#N canvas 495 25 245 300 12;
#X obj 80 55 inlet;
#X obj 151 54 inlet;
#X obj 80 240 outlet;
#X obj 151 85 t b f;
#X obj 80 141 - \$1;
#X connect 0 0 4 0;
#X connect 1 0 3 0;
#X connect 3 0 4 0;
#X connect 3 1 4 1;
#X connect 4 0 2 0;
