#N canvas 193 37 1038 699 12;
#X obj 244 294 openpanel;
#X obj 244 375 soundfiler;
#X obj 475 245 loadbang;
#X msg 244 351 read -resize \$1 \$2;
#X obj 244 328 pack s s;
#X obj 244 263 t b b;
#X obj 86 455 outlet;
#X obj 414 671 outlet;
#X obj 475 307 symbol \$0-array;
#X obj 415 594 f \$0;
#X obj 171 454 outlet;
#X obj 740 289 samplerate~;
#X obj 740 244 loadbang;
#X obj 740 313 * 0.001;
#X floatatom 740 410 5 0 0 0 - - - 0;
#X obj 740 433 s \$0-fadeLen;
#X obj 740 386 * 50;
#X obj 311 422 del 200;
#X obj 311 451 t b;
#X obj 311 480 s \$0-addFades;
#X obj 851 268 f \$1;
#X obj 904 307 > 0;
#X obj 851 337 spigot;
#X obj 851 289 t f f;
#X obj 67 50 bng 15 250 50 0 \$0-getInfo \$0-sdkjdfsjhkfds empty 25
5 0 10 #fcfcfc #000000 #000000;
#X obj 86 245 r \$0-getInfo;
#X obj 67 28 bng 15 250 50 0 empty empty empty 17 7 0 10 #fcfcfc #000000
#000000;
#X obj 386 209 inlet;
#X obj 86 282 f;
#X obj 450 565 r \$0-getInfo;
#X obj 429 209 inlet;
#N canvas 266 291 450 300 addFades 0;
#X obj 49 137 f 0;
#X obj 83 138 + 1;
#X obj 122 171 <;
#X obj 140 148 r \$0-fadeLen;
#X obj 83 197 spigot;
#X obj 83 243 s \$0-addCount;
#X obj 83 108 r \$0-addCount;
#X msg 40 108 0;
#X obj 255 181 tabread \$0-array;
#X obj 273 253 expr sin($f1 * 3.14159 / 2);
#X obj 255 283 *;
#X obj 273 229 /;
#X obj 291 208 r \$0-fadeLen;
#X obj 255 116 t f f, f 20;
#X obj 487 252 tabread \$0-array;
#X obj 487 348 *;
#X obj 505 300 /;
#X obj 523 279 r \$0-fadeLen;
#X obj 487 211 t f f, f 17;
#X obj 505 138 r \$0-sizeInSamps;
#X obj 487 161 f;
#X obj 487 186 -;
#X obj 487 114 t b f, f 10;
#X obj 83 221 pipe 0.1;
#X obj 255 310 tabwrite \$0-array, f 20;
#X obj 487 376 tabwrite \$0-array;
#X obj 504 323 expr sin($f1 * 3.14159 / 2);
#X obj 49 272 s \$0-fadeCount;
#X obj 255 80 r \$0-fadeCount;
#X obj 40 80 r \$0-addFades;
#X connect 0 0 1 0;
#X connect 0 0 27 0;
#X connect 1 0 2 0;
#X connect 1 0 4 0;
#X connect 2 0 4 1;
#X connect 3 0 2 1;
#X connect 4 0 23 0;
#X connect 6 0 0 0;
#X connect 7 0 0 0;
#X connect 8 0 10 0;
#X connect 9 0 10 1;
#X connect 10 0 24 0;
#X connect 11 0 9 0;
#X connect 12 0 11 1;
#X connect 13 0 8 0;
#X connect 13 1 11 0;
#X connect 13 1 24 1;
#X connect 14 0 15 0;
#X connect 15 0 25 0;
#X connect 16 0 26 0;
#X connect 17 0 16 1;
#X connect 18 0 14 0;
#X connect 18 1 25 1;
#X connect 19 0 20 1;
#X connect 20 0 21 0;
#X connect 21 0 18 0;
#X connect 22 0 20 0;
#X connect 22 1 21 1;
#X connect 22 1 16 0;
#X connect 23 0 5 0;
#X connect 26 0 15 1;
#X connect 28 0 13 0;
#X connect 28 0 22 0;
#X connect 29 0 7 0;
#X restore 311 505 pd addFades;
#X text 86 478 sizeInSamps;
#X text 171 477 buf info;
#X obj 386 263 t a b;
#X obj 91 585 array define \$0-array;
#X text 11 26 open SF;
#X text 11 48 info;
#X text 88 26 buf ID;
#X floatatom 89 48 5 0 0 0 - - - 0;
#X obj 146 17 loadbang;
#X obj 146 46 f \$0;
#X obj 411 480 s \$0-getInfo;
#X obj 418 424 del 200;
#X obj 939 351 tgl 15 0 empty empty empty 17 7 0 10 #fcfcfc #000000
#000000 0 1;
#X obj 545 566 unpack f f f f;
#X obj 573 603 r \$0-getInfo;
#X obj 545 603 f;
#X text 416 694 buf UID & SR;
#X msg 420 634 bufID \$1;
#X msg 490 634 bufSR \$1;
#X connect 0 0 4 0;
#X connect 1 0 28 0;
#X connect 1 1 10 0;
#X connect 1 1 17 0;
#X connect 1 1 45 0;
#X connect 2 0 8 0;
#X connect 3 0 1 0;
#X connect 4 0 3 0;
#X connect 5 0 0 0;
#X connect 5 1 8 0;
#X connect 5 1 43 0;
#X connect 8 0 4 1;
#X connect 9 0 49 0;
#X connect 11 0 13 0;
#X connect 12 0 11 0;
#X connect 12 0 20 0;
#X connect 13 0 16 0;
#X connect 14 0 15 0;
#X connect 16 0 14 0;
#X connect 17 0 18 0;
#X connect 18 0 19 0;
#X connect 18 0 42 0;
#X connect 20 0 23 0;
#X connect 21 0 22 1;
#X connect 21 0 44 0;
#X connect 22 0 16 1;
#X connect 23 0 22 0;
#X connect 23 1 21 0;
#X connect 25 0 28 0;
#X connect 26 0 5 0;
#X connect 27 0 34 0;
#X connect 28 0 6 0;
#X connect 29 0 9 0;
#X connect 30 0 24 0;
#X connect 34 0 4 0;
#X connect 34 1 8 0;
#X connect 34 1 43 0;
#X connect 40 0 41 0;
#X connect 41 0 39 0;
#X connect 43 0 42 0;
#X connect 45 0 47 0;
#X connect 46 0 47 0;
#X connect 47 0 50 0;
#X connect 49 0 7 0;
#X connect 50 0 7 0;
#X coords 0 -1 1 1 131 69 1 7 4;
