#N canvas 602 -1042 1038 699 12;
#X obj 161 116 cnv 10 167 12 empty empty sample\ ID 117 4 0 8 #e0e0e0
#404040 0;
#X obj 8 6 cnv 15 321 19 empty empty Buffer 3 5 0 14 #e0e0e0 #404040
0;
#N canvas 32 25 450 278 (subpatch) 0;
#X array \$0-array 655360 float 0 black black;
#X coords 0 1 655359 -1 319 89 1;
#X restore 9 26 graph;
#X obj 354 64 openpanel;
#X obj 354 145 soundfiler;
#X obj 585 15 loadbang;
#X msg 354 121 read -resize \$1 \$2;
#X obj 354 98 pack s s;
#X obj 354 33 t b b;
#X obj 86 385 outlet;
#X obj 524 391 outlet;
#X obj 585 77 symbol \$0-array;
#X obj 705 77 f \$0;
#X obj 9 116 cnv 10 200 12 empty empty size\ in\ samps 0 4 0 8 #e0e0e0
#404040 0;
#X obj 174 11 cnv 10 75 13 empty empty open\ sound\ file\ >> -15 4
0 8 #e0e0e0 #404040 0;
#X obj 171 384 outlet;
#X obj 147 116 cnv 10 96 12 empty empty buf\ info 0 4 0 8 #e0e0e0 #404040
0;
#X obj 850 59 samplerate~;
#X obj 850 14 loadbang;
#X obj 850 83 * 0.001;
#X floatatom 850 180 5 0 0 0 - - -, f 5;
#X obj 850 203 s \$0-fadeLen;
#X obj 850 156 * 50;
#X obj 421 192 del 200;
#X obj 421 221 t b;
#X obj 421 250 s \$0-addFades;
#X obj 961 38 f \$1;
#X obj 998 84 > 0;
#X obj 961 107 spigot;
#X obj 961 59 t f f;
#X obj 311 9 bng 15 250 50 0 \$0-getInfo \$0-sdkjdfsjhkfds empty 25
5 0 10 #fcfcfc #000000 #000000;
#X obj 86 175 r \$0-getInfo;
#X obj 267 9 cnv 10 43 13 empty empty info\ \ >> 6 6 0 8 #e0e0e0 #404040
0;
#X obj 251 9 bng 15 250 50 0 empty empty empty 17 7 0 10 #fcfcfc #000000
#000000;
#X obj 496 8 inlet;
#X obj 496 37 t s b;
#X obj 86 212 f;
#X obj 709 32 r \$0-getInfo;
#X obj 539 7 inlet;
#N canvas 0 22 450 300 addFades 0;
#X obj 49 137 f 0;
#X obj 83 138 + 1;
#X obj 122 171 <;
#X obj 140 148 r \$0-fadeLen;
#X obj 83 197 spigot;
#X obj 83 243 s \$0-addCount;
#X obj 83 108 r \$0-addCount;
#X msg 40 108 0;
#X obj 255 181 tabread \$0-array;
#X obj 273 253 expr sin($f1 * 3.14159 / 2);
#X obj 255 283 *;
#X obj 273 229 /;
#X obj 291 208 r \$0-fadeLen;
#X obj 255 116 t f f, f 20;
#X obj 487 252 tabread \$0-array;
#X obj 487 348 *;
#X obj 505 300 /;
#X obj 523 279 r \$0-fadeLen;
#X obj 487 211 t f f, f 17;
#X obj 505 138 r \$0-sizeInSamps;
#X obj 487 161 f;
#X obj 487 186 -;
#X obj 487 114 t b f, f 10;
#X obj 83 221 pipe 0.1;
#X obj 255 310 tabwrite \$0-array, f 20;
#X obj 487 376 tabwrite \$0-array;
#X obj 504 323 expr sin($f1 * 3.14159 / 2);
#X obj 49 272 s \$0-fadeCount;
#X obj 255 80 r \$0-fadeCount;
#X obj 40 80 r \$0-addFades;
#X connect 0 0 1 0;
#X connect 0 0 27 0;
#X connect 1 0 2 0;
#X connect 1 0 4 0;
#X connect 2 0 4 1;
#X connect 3 0 2 1;
#X connect 4 0 23 0;
#X connect 6 0 0 0;
#X connect 7 0 0 0;
#X connect 8 0 10 0;
#X connect 9 0 10 1;
#X connect 10 0 24 0;
#X connect 11 0 9 0;
#X connect 12 0 11 1;
#X connect 13 0 8 0;
#X connect 13 1 11 0;
#X connect 13 1 24 1;
#X connect 14 0 15 0;
#X connect 15 0 25 0;
#X connect 16 0 26 0;
#X connect 17 0 16 1;
#X connect 18 0 14 0;
#X connect 18 1 25 1;
#X connect 19 0 20 1;
#X connect 20 0 21 0;
#X connect 21 0 18 0;
#X connect 22 0 20 0;
#X connect 22 1 21 1;
#X connect 22 1 16 0;
#X connect 23 0 5 0;
#X connect 26 0 15 1;
#X connect 28 0 13 0;
#X connect 28 0 22 0;
#X connect 29 0 7 0;
#X restore 421 275 pd addFades;
#X text 86 408 sizeInSamps;
#X text 171 407 buf info;
#X text 526 414 comment;
#X connect 3 0 7 0;
#X connect 4 0 36 0;
#X connect 4 1 15 0;
#X connect 4 1 23 0;
#X connect 5 0 11 0;
#X connect 5 0 12 0;
#X connect 6 0 4 0;
#X connect 7 0 6 0;
#X connect 8 0 3 0;
#X connect 8 1 11 0;
#X connect 8 1 12 0;
#X connect 11 0 7 1;
#X connect 12 0 10 0;
#X connect 17 0 19 0;
#X connect 18 0 17 0;
#X connect 18 0 26 0;
#X connect 19 0 22 0;
#X connect 20 0 21 0;
#X connect 22 0 20 0;
#X connect 23 0 24 0;
#X connect 24 0 25 0;
#X connect 26 0 29 0;
#X connect 27 0 28 1;
#X connect 28 0 22 1;
#X connect 29 0 28 0;
#X connect 29 1 27 0;
#X connect 31 0 36 0;
#X connect 33 0 8 0;
#X connect 34 0 35 0;
#X connect 35 0 7 0;
#X connect 35 1 11 0;
#X connect 36 0 9 0;
#X connect 37 0 12 0;
#X connect 38 0 30 0;
#X coords 0 -1 1 1 323 126 1 7 4;
