#N canvas 574 -712 823 684 12;
#X obj 75 40 inlet;
#X obj 75 88 unpack f f f f, f 40;
#X obj 21 468 bp~, f 16;
#X obj 21 40 inlet~;
#X obj 21 497 *~;
#X obj 21 521 outlet~;
#X obj 193 40 inlet;
#X obj 143 40 inlet;
#X text 17 13 sig;
#X text 62 12 sigmund;
#X text 123 12 freqSmoo;
#X obj 253 40 inlet;
#X text 249 13 gain;
#X obj 303 40 inlet;
#X text 299 13 thresh;
#X obj 363 40 inlet;
#X text 359 13 volSmoo;
#X text 193 12 Q;
#X obj 75 112 ftom;
#X obj 75 136 jw.lbyl 0.05 2;
#X obj 75 160 jw.smoo;
#X obj 75 208 osc~;
#X obj 75 232 *~ 0.05;
#X obj 158 341 dac~;
#X obj 75 184 mtof;
#X obj 145 285 *~;
#X obj 164 199 jw.smoo;
#X connect 0 0 1 0;
#X connect 1 0 18 0;
#X connect 1 1 26 0;
#X connect 2 0 4 0;
#X connect 3 0 2 0;
#X connect 4 0 5 0;
#X connect 6 0 2 2;
#X connect 7 0 20 1;
#X connect 15 0 26 1;
#X connect 18 0 19 0;
#X connect 19 0 20 0;
#X connect 20 0 24 0;
#X connect 21 0 22 0;
#X connect 22 0 25 0;
#X connect 24 0 21 0;
#X connect 25 0 23 0;
#X connect 26 0 25 1;
