#N canvas 353 -937 944 678 12;
#X obj 105 203 delwrite~ \$0-del 200;
#X text 247 21 thresh;
#X text 309 21 ratio;
#X obj 362 190 env~ 512;
#X obj 362 218 dbtorms;
#X obj 362 410 /;
#X obj 361 434 clip 0 1;
#X obj 305 372 + 1e-10;
#X obj 111 574 *~;
#X obj 248 68 s \$0-thr;
#X obj 310 68 s \$0-rat;
#X obj 373 68 s \$0-att;
#X obj 435 68 s \$0-rel;
#X text 378 21 att;
#X text 438 21 rel;
#X obj 380 249 r \$0-thr;
#X obj 380 292 r \$0-rat;
#X obj 380 352 r \$0-thr;
#X text 159 21 input gain;
#X obj 161 41 inlet;
#X obj 249 41 inlet;
#X obj 311 41 inlet;
#X obj 374 41 inlet;
#X obj 436 41 inlet;
#X obj 506 41 inlet;
#X text 508 21 lookahead;
#X obj 505 68 clip 0 200;
#X obj 505 92 s \$0-look;
#X obj 108 349 r \$0-look;
#X obj 415 458 r \$0-att;
#X obj 477 458 r \$0-rel;
#X obj 108 371 delread~ \$0-del \$6;
#X obj 362 268 - \$2;
#X obj 362 372 + \$2;
#X obj 362 312 / \$3;
#X obj 361 479 jw.smooAR~ \$4 \$5;
#X obj 105 111 *~ \$1;
#X obj 111 630 outlet~;
#X obj 111 598 *~ \$7;
#X obj 143 574 r \$0-makeup;
#X obj 617 76 s \$0-makeup;
#X obj 617 41 inlet;
#X text 616 22 makeup;
#X obj 105 42 inlet~;
#X connect 3 0 4 0;
#X connect 4 0 7 0;
#X connect 4 0 32 0;
#X connect 5 0 6 0;
#X connect 6 0 35 0;
#X connect 7 0 5 1;
#X connect 8 0 38 0;
#X connect 15 0 32 1;
#X connect 16 0 34 1;
#X connect 17 0 33 1;
#X connect 19 0 36 1;
#X connect 20 0 9 0;
#X connect 21 0 10 0;
#X connect 22 0 11 0;
#X connect 23 0 12 0;
#X connect 24 0 26 0;
#X connect 26 0 27 0;
#X connect 28 0 31 0;
#X connect 29 0 35 1;
#X connect 30 0 35 2;
#X connect 31 0 8 0;
#X connect 32 0 34 0;
#X connect 33 0 5 0;
#X connect 34 0 33 0;
#X connect 35 0 8 1;
#X connect 36 0 0 0;
#X connect 36 0 3 0;
#X connect 38 0 37 0;
#X connect 39 0 38 1;
#X connect 41 0 40 0;
#X connect 43 0 36 0;
