#N canvas 989 -681 450 300 12;
#X obj 127 112 metro 1;
#X obj 127 196 f 0;
#X obj 177 196 + 1;
#X obj 113 37 inlet;
#X obj 163 37 inlet;
#X obj 213 37 inlet;
#X obj 127 220 outlet;
#X obj 213 110 f 0;
#X obj 213 134 t f f;
#X connect 0 0 1 0;
#X connect 1 0 2 0;
#X connect 1 0 6 0;
#X connect 2 0 1 1;
#X connect 3 0 0 0;
#X connect 4 0 0 1;
#X connect 5 0 7 0;
#X connect 7 0 8 0;
#X connect 8 0 1 1;
#X connect 8 1 2 0;
