#N canvas 244 130 219 188 12;
#X obj 21 9 ctlin, f 8;
#X obj 21 34 swap;
#X obj 21 58 pack;
#X obj 21 82 route \$1;
#X obj 21 106 jw.mapExp 0 127 \$2 \$3 \$4;
#X obj 21 130 s \$5;
#X connect 0 0 1 0;
#X connect 0 1 1 1;
#X connect 1 0 2 0;
#X connect 2 0 3 0;
#X connect 3 0 4 0;
#X connect 4 0 5 0;
