#N canvas 704 173 703 526 12;
#X obj 273 82 inlet;
#X text 266 51 note;
#X obj 426 82 inlet;
#X text 426 53 vel;
#X obj 273 106 t b f;
#X obj 202 181 + 1;
#X obj 167 180 f 0;
#X obj 167 219 % \$1;
#X obj 167 301 pack 0 0 0, f 35;
#X obj 167 325 outlet;
#X connect 0 0 4 0;
#X connect 2 0 8 2;
#X connect 4 0 6 0;
#X connect 4 1 8 1;
#X connect 5 0 6 1;
#X connect 6 0 5 0;
#X connect 6 0 7 0;
#X connect 7 0 8 0;
#X connect 8 0 9 0;
