#N canvas 495 25 613 436 12;
#X obj 300 170 osc~;
#X obj 300 195 *~ -0.5;
#X obj 300 219 +~ 0.5;
#X obj 148 191 samplerate~;
#X obj 59 232 swap;
#X obj 59 256 /;
#X obj 59 134 t f b f;
#X msg 148 141 resize \$1;
#X obj 148 165 s \$0-hann;
#X msg 325 140 0;
#X obj 252 136 t f b;
#X obj 59 80 loadbang;
#X obj 59 109 f \$1;
#X obj 59 280 s \$0-window-hz;
#X obj 252 108 r \$0-window-hz;
#X obj 40 356 array define \$2-hanning \$1;
#X text 57 33 comment;
#X obj 283 262 tabwrite~ \$2-hanning;
#X connect 0 0 1 0;
#X connect 1 0 2 0;
#X connect 2 0 17 0;
#X connect 3 0 4 1;
#X connect 4 0 5 0;
#X connect 4 1 5 1;
#X connect 5 0 13 0;
#X connect 6 0 4 0;
#X connect 6 1 3 0;
#X connect 6 2 7 0;
#X connect 7 0 8 0;
#X connect 9 0 0 1;
#X connect 10 0 0 0;
#X connect 10 1 9 0;
#X connect 10 1 17 0;
#X connect 11 0 12 0;
#X connect 12 0 6 0;
#X connect 14 0 10 0;
