#N canvas 236 -964 745 427 12;
#X obj 11 44 inlet~;
#X obj 60 44 inlet~;
#X obj 128 44 inlet~;
#X obj 177 44 inlet~;
#X obj 54 139 *~;
#X obj 107 138 +~;
#X obj 17 86 car2pol~;
#X obj 54 183 pol2car~;
#X obj 105 86 car2pol~;
#X obj 52 227 outlet~;
#X obj 182 227 outlet~;
#X connect 0 0 6 0;
#X connect 1 0 6 1;
#X connect 2 0 8 0;
#X connect 3 0 8 1;
#X connect 4 0 7 0;
#X connect 5 0 7 1;
#X connect 6 0 4 0;
#X connect 6 1 5 0;
#X connect 7 0 9 0;
#X connect 7 1 10 0;
#X connect 8 0 4 1;
#X connect 8 1 5 1;
