#N canvas 495 25 585 352 12;
#X obj 12 78 metro;
#X obj 13 26 inlet;
#X obj 414 28 inlet;
#X obj 351 29 inlet;
#X obj 13 280 outlet;
#X obj 89 280 outlet;
#X obj 144 280 outlet;
#X text 13 4 on/off;
#X text 286 4 min out;
#X text 351 4 max out;
#X text 414 4 exponent;
#X obj 285 28 inlet;
#X obj 144 207 map 0 1 25 1000;
#X obj 89 178 pow 2;
#X obj 89 120 random 10000;
#X obj 89 149 / 10000;
#X obj 154 236 s \$0-interval;
#X obj 65 49 r \$0-interval;
#X text 15 309 trig;
#X text 88 309 0-1;
#X text 143 309 min-max;
#X obj 285 57 f \$1;
#X obj 351 58 f \$2;
#X obj 414 57 f \$3;
#X obj 500 26 loadbang;
#X obj 285 86 s \$0-min;
#X obj 351 87 s \$0-max;
#X obj 414 86 s \$0-exp;
#X obj 220 181 r \$0-min;
#X obj 286 182 r \$0-max;
#X obj 146 149 r \$0-exp;
#X obj 98 14 jw.seedByPatchID;
#X connect 0 0 4 0;
#X connect 0 0 14 0;
#X connect 1 0 0 0;
#X connect 2 0 23 0;
#X connect 3 0 22 0;
#X connect 11 0 21 0;
#X connect 12 0 6 0;
#X connect 12 0 16 0;
#X connect 13 0 5 0;
#X connect 13 0 12 0;
#X connect 14 0 15 0;
#X connect 15 0 13 0;
#X connect 17 0 0 1;
#X connect 21 0 25 0;
#X connect 22 0 26 0;
#X connect 23 0 27 0;
#X connect 24 0 23 0;
#X connect 24 0 22 0;
#X connect 24 0 21 0;
#X connect 28 0 12 3;
#X connect 29 0 12 4;
#X connect 30 0 13 1;
#X connect 31 0 14 0;
