#N canvas 495 25 450 300 12;
#X obj 23 78 *~;
#X obj 97 78 *~;
#X obj 23 27 inlet~;
#X obj 97 26 inlet~;
#X obj 23 107 +~;
#X obj 23 166 sqrt~;
#X obj 23 195 outlet~;
#X obj 23 136 +~ 1e-20;
#X connect 0 0 4 0;
#X connect 1 0 4 1;
#X connect 2 0 0 0;
#X connect 2 0 0 1;
#X connect 3 0 1 0;
#X connect 3 0 1 1;
#X connect 4 0 7 0;
#X connect 5 0 6 0;
#X connect 7 0 5 0;
