#N canvas -99 -744 924 349 12;
#X msg 846 338;
#X obj 14 98 inlet~;
#X obj 65 98 inlet~;
#X obj 14 216 outlet~;
#X obj 525 72 inlet;
#X text 7 8 Takes 2 args: Window Size \, No. Overlaps;
#X obj 617 71 inlet;
#X obj 410 140 hsl 90 15 0 1 0 0 \$0-amps \$0-setAmps <A___amps___B>
3 6 0 10 #fcfcfc #000000 #000000 0 1;
#X obj 410 157 hsl 90 15 0 1 0 0 \$0-mags \$0-setMags <A___mags___B>
3 6 0 10 #fcfcfc #000000 #000000 0 1;
#X obj 525 98 s \$0-setAmps;
#X obj 617 97 s \$0-setMags;
#X obj 198 125 r \$0-amps;
#X obj 277 127 r \$0-mags;
#X obj 14 130 jw.xFade~;
#X obj 87 129 jw.xFade~;
#X obj 401 34 jw.loadnum 0;
#X obj 410 58 jw.loadnum 1;
#X obj 14 176 jw.fftXsnth~ \$0 \$1 \$2;
#X floatatom 507 157 4 0 0 0 - \$0-setComp1 - 10;
#X floatatom 537 157 4 0 0 0 - \$0-setComp2 - 10;
#X text 512 136 Comps;
#X obj 678 166 inlet;
#X obj 778 164 inlet;
#X obj 778 190 s \$0-setComp2;
#X obj 694 128 jw.loadnum 10;
#X obj 680 190 s \$0-setComp1;
#X obj 200 93 jw.createHanning~ \$1 \$0;
#X connect 1 0 13 0;
#X connect 1 0 14 0;
#X connect 2 0 13 1;
#X connect 2 0 14 1;
#X connect 4 0 9 0;
#X connect 6 0 10 0;
#X connect 11 0 13 2;
#X connect 12 0 14 2;
#X connect 13 0 17 0;
#X connect 14 0 17 1;
#X connect 15 0 7 0;
#X connect 16 0 8 0;
#X connect 17 0 3 0;
#X connect 18 0 17 2;
#X connect 19 0 17 3;
#X connect 21 0 25 0;
#X connect 22 0 23 0;
#X connect 24 0 23 0;
#X connect 24 0 25 0;
#X coords 0 -1 1 1 165 55 1 402 122;
