#N canvas 348 -795 930 681 12;
#X obj 9 70 *~;
#X obj 9 15 inlet~;
#X obj 9 93 rfft~;
#X obj 16 534 *~;
#X obj 284 93 rfft~;
#X obj 13 281 rifft~;
#X obj 16 567 outlet~;
#X obj 284 70 *~;
#X obj 284 15 inlet~;
#X text 70 15 filter input;
#X obj 27 45 tabreceive~ \$1-hanning;
#X obj 302 47 tabreceive~ \$1-hanning;
#X obj 34 502 tabreceive~ \$1-hanning;
#X obj 11 214 jw.complexMult;
#X obj 468 575 block~ \$2 4;
#X obj 181 331 expr 1 / ($f1 * 1.5);
#X obj 13 305 *~;
#X obj 181 281 loadbang;
#X obj 181 305 f \$2;
#X obj 11 132 jw.fftVolScaleLoud~;
#X obj 198 142 jw.fftVolScaleLoud~;
#X obj 515 159 inlet;
#X obj 569 163 inlet;
#X connect 0 0 2 0;
#X connect 1 0 0 0;
#X connect 2 0 19 0;
#X connect 2 1 19 1;
#X connect 3 0 6 0;
#X connect 4 0 20 0;
#X connect 4 1 20 1;
#X connect 5 0 16 0;
#X connect 7 0 4 0;
#X connect 8 0 7 0;
#X connect 10 0 0 1;
#X connect 11 0 7 1;
#X connect 12 0 3 1;
#X connect 13 0 5 0;
#X connect 13 1 5 1;
#X connect 15 0 16 1;
#X connect 16 0 3 0;
#X connect 17 0 18 0;
#X connect 18 0 15 0;
#X connect 19 0 13 0;
#X connect 19 1 13 1;
#X connect 20 0 13 2;
#X connect 20 1 13 3;
#X connect 21 0 19 2;
#X connect 22 0 20 2;
