#N canvas 508 116 809 385 12;
#X obj 43 11 inlet;
#X obj 43 234 expr if($f1 < $f2 \, $f1 \, $f2);
#X floatatom 75 322 5 0 0 0 - - - 0;
#X obj 115 200 spigot;
#X msg 170 164 0;
#X obj 43 170 t f b f;
#X obj 75 199 f;
#X obj 170 143 t b;
#X obj 405 200 spigot;
#X msg 460 164 0;
#X obj 333 170 t f b f;
#X obj 365 199 f;
#X obj 460 143 t b;
#X obj 333 234 expr if($f1 > $f2 \, $f1 \, $f2);
#X floatatom 139 322 5 0 0 0 - - - 0;
#X text 50 321 min;
#X text 114 321 max;
#X obj 48 357 outlet;
#X obj 160 357 outlet;
#X obj 207 322 bng 15 250 50 0 empty empty empty 17 7 0 10 #fcfcfc
#000000 #000000;
#X text 182 321 rst;
#X obj 152 11 inlet;
#X obj 154 114 jw.loadnum \$1;
#X obj 444 114 jw.loadnum \$1;
#X obj 25 114 jw.loadnum \$2;
#X obj 316 114 jw.loadnum \$3;
#X text 460 39 Args: 1 - autoset 2 - startmin 3 - startmax;
#X connect 0 0 5 0;
#X connect 0 0 10 0;
#X connect 1 0 2 0;
#X connect 1 0 6 1;
#X connect 2 0 17 0;
#X connect 3 0 6 1;
#X connect 3 0 7 0;
#X connect 4 0 3 1;
#X connect 5 0 1 0;
#X connect 5 1 6 0;
#X connect 5 2 3 0;
#X connect 6 0 1 1;
#X connect 7 0 4 0;
#X connect 8 0 11 1;
#X connect 8 0 12 0;
#X connect 9 0 8 1;
#X connect 10 0 13 0;
#X connect 10 1 11 0;
#X connect 10 2 8 0;
#X connect 11 0 13 1;
#X connect 12 0 9 0;
#X connect 13 0 11 1;
#X connect 13 0 14 0;
#X connect 14 0 18 0;
#X connect 19 0 22 0;
#X connect 19 0 23 0;
#X connect 21 0 22 0;
#X connect 21 0 23 0;
#X connect 22 0 3 1;
#X connect 23 0 8 1;
#X connect 24 0 6 1;
#X connect 25 0 11 1;
#X coords 0 -1 1 1 175 45 1 50 300;
