#N canvas 590 292 705 444 12;
#X obj 88 17 inlet;
#X msg 154 63 0 \, 1000 \$1;
#X obj 154 87 vline~;
#X obj 154 111 tabread4~ \$2;
#X obj 88 155 *~;
#X obj 88 229 outlet~;
#X obj 88 192 *~;
#X obj 88 41 unpack f f f;
#X obj 24 23 inlet~;
#X obj 88 85 bp~, f 6;
#X obj 245 24 inlet;
#X obj 245 52 f \$3;
#X obj 280 52 loadbang;
#X connect 0 0 7 0;
#X connect 1 0 2 0;
#X connect 2 0 3 0;
#X connect 3 0 4 1;
#X connect 4 0 6 0;
#X connect 6 0 5 0;
#X connect 7 0 9 1;
#X connect 7 1 1 0;
#X connect 7 2 6 1;
#X connect 8 0 9 0;
#X connect 9 0 4 0;
#X connect 10 0 11 0;
#X connect 11 0 9 2;
#X connect 12 0 11 0;
