#N canvas -50 -849 922 693 12;
#X obj 9 70 *~;
#X obj 9 15 inlet~;
#X obj 9 93 rfft~;
#X obj 9 537 *~;
#X obj 284 93 rfft~;
#X obj 9 462 rifft~;
#X obj 9 570 outlet~;
#X obj 284 70 *~;
#X obj 284 15 inlet~;
#X text 70 15 filter input;
#X obj 27 45 tabreceive~ \$1-hanning;
#X obj 302 47 tabreceive~ \$1-hanning;
#X obj 27 505 tabreceive~ \$1-hanning;
#X obj 9 428 /~;
#X obj 41 428 /~;
#X obj 286 367 f \$2;
#X obj 286 334 loadbang;
#X obj 37 132 jw.fftVolScaleLoud~;
#X obj 284 131 jw.fftVolScaleLoud~;
#X obj 552 81 inlet;
#X obj 596 81 inlet;
#X obj 182 164 jw.fft2mag~;
#X obj 284 193 jw.fft2mag~;
#X obj 9 209 /~;
#X obj 139 209 /~;
#X obj 9 253 *~;
#X obj 139 253 *~;
#X obj 286 403 expr (3*$f1)/2;
#X obj 468 575 block~ \$2 4;
#X connect 0 0 2 0;
#X connect 1 0 0 0;
#X connect 2 0 17 0;
#X connect 2 1 17 1;
#X connect 3 0 6 0;
#X connect 4 0 18 0;
#X connect 4 1 18 1;
#X connect 5 0 3 0;
#X connect 7 0 4 0;
#X connect 8 0 7 0;
#X connect 10 0 0 1;
#X connect 11 0 7 1;
#X connect 12 0 3 1;
#X connect 13 0 5 0;
#X connect 14 0 5 1;
#X connect 15 0 27 0;
#X connect 16 0 15 0;
#X connect 17 0 21 0;
#X connect 17 0 23 0;
#X connect 17 1 21 1;
#X connect 17 1 24 0;
#X connect 18 0 22 0;
#X connect 18 1 22 1;
#X connect 19 0 17 2;
#X connect 20 0 18 2;
#X connect 21 0 24 1;
#X connect 21 0 23 1;
#X connect 22 0 25 1;
#X connect 22 0 26 1;
#X connect 23 0 25 0;
#X connect 24 0 26 0;
#X connect 25 0 13 0;
#X connect 26 0 14 0;
#X connect 27 0 14 1;
#X connect 27 0 13 1;
