#N canvas 556 25 1407 611 12;
#X obj 11 85 inlet~;
#X obj 140 85 inlet~;
#X obj 11 225 car2pol~;
#X obj 11 161 rfft~;
#X obj 198 85 tabreceive~ \$1-hanning;
#X obj 11 127 *~;
#X obj 140 127 *~;
#X obj 140 161 rfft~;
#X obj 12 423 pol2car~;
#X obj 12 471 rifft~;
#X obj 12 500 *~;
#X obj 12 569 outlet~;
#X obj 77 471 tabreceive~ \$1-hanning;
#X obj 367 85 block~ \$2 \$3;
#X obj 12 536 *~;
#X obj 411 443 f \$2;
#X obj 534 443 f \$3;
#X obj 411 409 loadbang;
#X obj 411 481 expr 1/($f1*($f2-1)/2);
#X obj 142 223 car2pol~;
#X connect 0 0 5 0;
#X connect 1 0 6 0;
#X connect 2 1 8 1;
#X connect 3 0 2 0;
#X connect 3 1 2 1;
#X connect 4 0 5 1;
#X connect 4 0 6 1;
#X connect 5 0 3 0;
#X connect 6 0 7 0;
#X connect 7 0 19 0;
#X connect 7 1 19 1;
#X connect 8 0 9 0;
#X connect 8 1 9 1;
#X connect 9 0 10 0;
#X connect 10 0 14 0;
#X connect 12 0 10 1;
#X connect 14 0 11 0;
#X connect 15 0 18 0;
#X connect 16 0 18 1;
#X connect 17 0 15 0;
#X connect 17 0 16 0;
#X connect 18 0 14 1;
#X connect 19 0 8 0;
