#N canvas 437 25 626 682 12;
#X obj 9 70 *~;
#X obj 9 15 inlet~;
#X obj 9 93 rfft~;
#X obj 9 537 *~;
#X obj 284 93 rfft~;
#X obj 9 462 rifft~;
#X obj 9 570 outlet~;
#X obj 284 70 *~;
#X obj 284 15 inlet~;
#X text 70 15 filter input;
#X obj 27 45 tabreceive~ \$1-hanning;
#X obj 302 47 tabreceive~ \$1-hanning;
#X obj 27 505 tabreceive~ \$1-hanning;
#X obj 468 575 block~ \$2 \$3;
#X obj 9 129 car2pol~;
#X obj 284 131 jw.fft2mag~;
#X obj 9 278 pol2car~;
#X obj 193 377 expr (3*$f1)/2;
#X obj 9 428 /~;
#X obj 41 428 /~;
#X obj 193 341 f \$2;
#X obj 193 308 loadbang;
#X connect 0 0 2 0;
#X connect 1 0 0 0;
#X connect 2 0 14 0;
#X connect 2 1 14 1;
#X connect 3 0 6 0;
#X connect 4 0 15 0;
#X connect 4 1 15 1;
#X connect 5 0 3 0;
#X connect 7 0 4 0;
#X connect 8 0 7 0;
#X connect 10 0 0 1;
#X connect 11 0 7 1;
#X connect 12 0 3 1;
#X connect 14 1 16 1;
#X connect 15 0 16 0;
#X connect 16 0 18 0;
#X connect 16 1 19 0;
#X connect 17 0 19 1;
#X connect 17 0 18 1;
#X connect 18 0 5 0;
#X connect 19 0 5 1;
#X connect 20 0 17 0;
#X connect 21 0 20 0;
