#N canvas 693 48 619 673 12;
#X obj 20 23 inlet~;
#X obj 212 21 inlet~;
#X obj 20 85 *~;
#X obj 20 108 rfft~;
#X obj 212 106 rfft~;
#X obj 212 83 *~;
#X obj 38 60 tabreceive~ \$1-hanning;
#X obj 230 60 tabreceive~ \$1-hanning;
#X obj 20 519 *~;
#X obj 38 494 tabreceive~ \$1-hanning;
#X obj 20 454 rifft~;
#X obj 20 548 outlet~;
#X obj 395 417 block~ \$2 \$3;
#X obj 392 105 inlet, f 13;
#X obj 21 290 -~;
#X obj 81 289 -~;
#X obj 20 153 jw.fftVolScale~;
#X obj 212 150 jw.fftVolScale~;
#X obj 291 105 inlet, f 13;
#X obj 20 195 car2pol~;
#X obj 212 192 car2pol~;
#X obj 20 422 pol2car~;
#X connect 0 0 2 0;
#X connect 1 0 5 0;
#X connect 2 0 3 0;
#X connect 3 0 16 0;
#X connect 3 1 16 1;
#X connect 4 0 17 0;
#X connect 4 1 17 1;
#X connect 5 0 4 0;
#X connect 6 0 2 1;
#X connect 7 0 5 1;
#X connect 8 0 11 0;
#X connect 9 0 8 1;
#X connect 10 0 8 0;
#X connect 13 0 17 2;
#X connect 14 0 21 0;
#X connect 15 0 21 1;
#X connect 16 0 19 0;
#X connect 16 1 19 1;
#X connect 17 0 20 0;
#X connect 17 1 20 1;
#X connect 18 0 16 2;
#X connect 19 0 14 0;
#X connect 19 1 15 0;
#X connect 20 0 14 1;
#X connect 20 1 15 1;
#X connect 21 0 10 0;
#X connect 21 1 10 1;
