#N canvas 376 125 626 682 12;
#X obj 41 428 *~;
#X obj 9 428 *~;
#X obj 316 128 *~;
#X obj 284 128 *~;
#X obj 284 154 +~;
#X obj 9 70 *~;
#X obj 9 15 inlet~;
#X obj 9 93 rfft~;
#X obj 9 537 *~;
#X obj 101 142 *~;
#X obj 284 93 rfft~;
#X obj 9 462 rifft~;
#X obj 9 570 outlet~;
#X obj 67 142 *~;
#X obj 67 165 +~;
#X obj 66 327 *~;
#X obj 66 295 clip~;
#X obj 67 191 +~ 1e-20;
#X obj 66 357 *~ 0.00065;
#X obj 284 70 *~;
#X obj 284 15 inlet~;
#X obj 67 219 q8_rsqrt~;
#X obj 284 297 q8_sqrt~;
#X text 70 15 filter input;
#X obj 66 260 *~;
#X obj 179 233 expr 0.001*$f1*$f1;
#X obj 27 45 tabreceive~ \$1-hanning;
#X obj 302 47 tabreceive~ \$1-hanning;
#X obj 180 210 r \$0-squish;
#X obj 488 15 inlet;
#X obj 488 45 s \$0-squish;
#X obj 27 505 tabreceive~ \$1-hanning;
#X obj 468 575 block~ \$2 \$3;
#X connect 0 0 11 1;
#X connect 1 0 11 0;
#X connect 2 0 4 1;
#X connect 3 0 4 0;
#X connect 4 0 22 0;
#X connect 5 0 7 0;
#X connect 6 0 5 0;
#X connect 7 0 13 0;
#X connect 7 0 13 1;
#X connect 7 0 1 0;
#X connect 7 1 9 0;
#X connect 7 1 9 1;
#X connect 7 1 0 0;
#X connect 8 0 12 0;
#X connect 9 0 14 1;
#X connect 10 0 3 0;
#X connect 10 0 3 1;
#X connect 10 1 2 0;
#X connect 10 1 2 1;
#X connect 11 0 8 0;
#X connect 13 0 14 0;
#X connect 14 0 17 0;
#X connect 15 0 18 0;
#X connect 16 0 15 0;
#X connect 17 0 21 0;
#X connect 18 0 0 1;
#X connect 18 0 1 1;
#X connect 19 0 10 0;
#X connect 20 0 19 0;
#X connect 21 0 24 0;
#X connect 22 0 15 1;
#X connect 24 0 16 0;
#X connect 25 0 16 2;
#X connect 25 0 24 1;
#X connect 26 0 5 1;
#X connect 27 0 19 1;
#X connect 28 0 25 0;
#X connect 29 0 30 0;
#X connect 31 0 8 1;
