#N canvas 631 128 576 398 12;
#X obj 170 50 *~;
#X obj 136 50 *~;
#X obj 136 73 +~;
#X obj 136 99 +~ 1e-20;
#X obj 136 127 q8_rsqrt~;
#X obj 35 244 *~;
#X obj 108 244 *~;
#X obj 34 16 inlet~;
#X obj 107 16 inlet~;
#X obj 35 313 outlet~;
#X obj 88 313 outlet~;
#X obj 136 183 clip~;
#X obj 136 157 *~;
#X obj 228 111 inlet;
#X obj 227 135 expr 0.001*$f1*$f1;
#X obj 299 74 jw.loadnum 1;
#X connect 0 0 2 1;
#X connect 1 0 2 0;
#X connect 2 0 3 0;
#X connect 3 0 4 0;
#X connect 4 0 12 0;
#X connect 5 0 9 0;
#X connect 6 0 10 0;
#X connect 7 0 1 0;
#X connect 7 0 1 1;
#X connect 7 0 5 0;
#X connect 8 0 0 0;
#X connect 8 0 0 1;
#X connect 8 0 6 0;
#X connect 11 0 5 1;
#X connect 11 0 6 1;
#X connect 12 0 11 0;
#X connect 13 0 14 0;
#X connect 14 0 11 2;
#X connect 14 0 12 1;
#X connect 15 0 14 0;
