#N canvas 335 162 917 710 12;
#X obj 174 468 pipe 50;
#X obj 174 490 pack f 0;
#X obj 106 515 unpack;
#X obj 106 562 - 1;
#X obj 106 586 pack f f f f;
#X obj 105 489 pack f 1;
#X obj 75 56 inlet;
#X obj 15 646 outlet~;
#X obj 186 54 inlet;
#X obj 106 538 poly 128 0;
#X obj 76 87 unpack f f f;
#X obj 76 148 *;
#X obj 76 267 sel 0;
#X obj 157 115 expr if ($f1>=0 \, 1 \, 0);
#X obj 76 190 *;
#X obj 117 168 expr if ($f1>=$f2 \, 1 \, 0);
#X obj 263 54 inlet;
#X obj 76 230 * 1;
#X obj 92 114 s \$0-amp;
#X obj 187 564 r \$0-amp;
#X obj 186 78 s \$0-dur;
#X obj 220 447 r \$0-dur;
#X obj 184 538 r \$0-dur;
#X obj 104 298 jw.--;
#X obj 489 55 inlet;
#X obj 263 78 s \$0-thresh;
#X obj 283 147 r \$0-thresh;
#X obj 390 57 inlet;
#X obj 390 81 s \$0-mute;
#X obj 109 202 r \$0-mute;
#X obj 488 118 s \$0-warp;
#X obj 579 55 inlet;
#X obj 579 79 s \$0-centre;
#X obj 136 273 r \$0-centre;
#X obj 104 327 jw.**;
#X obj 195 330 + 1;
#X obj 195 306 r \$0-warp;
#X obj 104 352 jw.++;
#X obj 195 352 r \$0-centre;
#X obj 473 32 jw.loadnum 1;
#X obj 473 84 f;
#X obj 104 446 clip 10 24000;
#X obj 686 58 inlet;
#X obj 686 82 s \$0-trans;
#X obj 196 397 r \$0-trans;
#X obj 104 376 ftom;
#X obj 104 400 jw.++;
#X obj 104 424 mtof;
#X obj 15 56 inlet~;
#X obj 15 615 clone jw.filtbankFilt~ 128 \$2 10;
#X obj 767 58 inlet;
#X obj 767 82 s \$0-Q;
#X obj 264 565 r \$0-Q;
#X msg 264 589 all \$1;
#X connect 0 0 1 0;
#X connect 1 0 2 0;
#X connect 2 0 9 0;
#X connect 2 1 9 1;
#X connect 3 0 4 0;
#X connect 4 0 49 1;
#X connect 5 0 2 0;
#X connect 6 0 10 0;
#X connect 8 0 20 0;
#X connect 9 0 3 0;
#X connect 9 1 4 1;
#X connect 10 0 11 0;
#X connect 10 1 15 0;
#X connect 10 1 18 0;
#X connect 10 2 13 0;
#X connect 11 0 14 0;
#X connect 12 1 23 0;
#X connect 13 0 11 1;
#X connect 14 0 17 0;
#X connect 15 0 14 1;
#X connect 16 0 25 0;
#X connect 17 0 12 0;
#X connect 19 0 4 3;
#X connect 21 0 0 1;
#X connect 22 0 4 2;
#X connect 23 0 34 0;
#X connect 24 0 40 0;
#X connect 26 0 15 1;
#X connect 27 0 28 0;
#X connect 29 0 17 1;
#X connect 31 0 32 0;
#X connect 33 0 23 1;
#X connect 34 0 37 0;
#X connect 35 0 34 1;
#X connect 36 0 35 0;
#X connect 37 0 45 0;
#X connect 38 0 37 1;
#X connect 39 0 40 0;
#X connect 40 0 30 0;
#X connect 41 0 0 0;
#X connect 41 0 5 0;
#X connect 42 0 43 0;
#X connect 44 0 46 1;
#X connect 45 0 46 0;
#X connect 46 0 47 0;
#X connect 47 0 41 0;
#X connect 48 0 49 0;
#X connect 49 0 7 0;
#X connect 50 0 51 0;
#X connect 52 0 53 0;
#X connect 53 0 49 2;
