#N canvas 0 25 1440 847 12;
#X text 796 7 Speed;
#X text 526 7 Dur (ms);
#X text 266 7 Start (0-1);
#X obj 1234 30 inlet;
#X obj 266 30 inlet;
#X obj 796 30 inlet;
#X text 12 6 Trigger (1/0);
#X text 1233 7 Buffer Id;
#X obj 1423 30 inlet;
#X text 1422 7 Window Mode;
#X obj 527 30 inlet;
#X obj 1285 106 f;
#X obj 266 60 clip 0 1;
#X obj 796 60 sel 0;
#X obj 547 136 jw.loadSR;
#X obj 248 108 f 0;
#X obj 495 108 f 100;
#X obj 810 108 f 1;
#X obj 1405 108 f 0;
#X obj 13 30 inlet;
#X obj 495 193 jw.**;
#X obj 1174 385 * 0.5;
#X obj 1174 414 clip 2.5 30;
#X obj 1169 211 array size;
#X msg 1169 165 symbol \$1-array;
#X obj 15 193 s \$0-trig;
#X obj 1151 270 f;
#X obj 1151 237 r \$0-trig;
#X obj 248 185 jw.**;
#X obj 1151 299 s \$0-bufLen;
#X obj 280 158 r \$0-bufLen;
#X obj 653 138 s \$0-durMS;
#X obj 1174 356 r \$0-durMS;
#X obj 248 214 s \$0-start;
#X obj 810 137 s \$0-speed;
#X obj 1285 191 s \$0-setBuf;
#X msg 1285 165 set \$1-array;
#X obj 495 249 jw.**;
#X obj 527 171 * 0.001;
#X obj 551 205 r \$0-speed;
#X obj 495 299 jw.++;
#X obj 527 275 r \$0-start;
#X obj 495 328 s \$0-end;
#X obj 195 60 r \$0-trig;
#X obj 455 60 r \$0-trig;
#X obj 722 61 r \$0-trig;
#X obj 1503 190 == 1;
#X obj 1444 190 == 0;
#X obj 1405 231 spigot;
#X obj 1464 231 spigot;
#X obj 1370 255 s \$0-trigFd;
#X obj 1464 255 s \$0-trigWin;
#X obj 1405 165 t b f, f 6;
#X obj 274 395 r \$0-start;
#X obj 353 395 r \$0-end;
#X obj 418 395 r \$0-durMS;
#X obj 244 507 pack f f f;
#X obj 45 147 spigot;
#X obj 45 248 s \$0-trigGate;
#X msg 45 224 0;
#X obj 84 113 r \$0-trigGate;
#X obj 45 272 r \$0-durMS;
#X obj 45 301 t b f;
#X obj 45 390 del, f 5;
#X msg 45 419 1;
#X obj 45 448 s \$0-trigGate;
#X msg 68 87 1;
#X obj 68 64 r \$0-ready;
#X obj 547 109 r \$0-ready;
#X obj 1132 52 s \$0-ready;
#X obj 244 577 vline~;
#N canvas 928 22 461 412 wrapToBufSize 0;
#X obj 39 11 inlet~;
#X obj 39 254 outlet~;
#X obj 39 122 expr~ $v1 % $v2;
#X obj 197 40 sig~;
#X obj 39 155 /~, f 23;
#X obj 39 184 wrap~;
#X obj 39 213 *~, f 28;
#X obj 197 11 r \$0-bufLen;
#X connect 0 0 2 0;
#X connect 2 0 4 0;
#X connect 3 0 2 1;
#X connect 3 0 4 1;
#X connect 3 0 6 1;
#X connect 4 0 5 0;
#X connect 5 0 6 0;
#X connect 6 0 1 0;
#X connect 7 0 3 0;
#X restore 244 605 pd wrapToBufSize;
#X obj 244 634 tabread4~;
#X obj 158 605 r \$0-setBuf;
#X obj 237 828 outlet~;
#X obj 1132 28 t b;
#X obj 1117 661 sin~;
#X obj 1117 635 vline~;
#X msg 1117 594 0 \, 0.5 \$1;
#X obj 1117 567 f;
#X obj 244 731 *~;
#X obj 1180 753 s~ \$0-window;
#X obj 261 708 r~ \$0-window;
#X obj 1460 524 r \$0-fdLen;
#X obj 1286 579 f;
#X obj 1382 554 jw.--;
#X obj 1364 603 del;
#X obj 1304 553 r \$0-fdLen;
#X msg 1286 605 0 \, 1 \$1;
#X text 1285 503 Fade In;
#X msg 1364 654 0 \$1;
#X obj 1364 630 f;
#X obj 1174 443 s \$0-fdLen;
#X obj 1400 605 r \$0-fdLen;
#X obj 1325 694 line~;
#X obj 1382 524 r \$0-durMS;
#X obj 1135 542 r \$0-durMS;
#X obj 244 478 f;
#X obj 152 421 r \$0-trig;
#X msg 244 536 \$1 \, \$2 \$3;
#X obj 152 450 del 3;
#X obj 152 479 s \$0-trigDel;
#X text 984 7 Pan (0-1);
#X obj 984 36 inlet;
#X obj 984 65 clip 0 1;
#X obj 913 66 r \$0-trig;
#X obj 984 118 s \$0-pan;
#X obj 290 769 r \$0-pan;
#X obj 244 794 jw.pan~;
#X obj 294 828 outlet~;
#X obj 984 94 f 0.5;
#X obj 144 248 r \$0-trigGate;
#X obj 144 277 expr 1-$f1;
#X obj 144 306 switch~;
#X obj 244 674 hip~ 20;
#X obj 77 339 + 5;
#X obj 1405 54 r \$0-trigDel;
#X obj 1117 518 r \$0-trigWin;
#X obj 1286 528 r \$0-trigFd;
#X obj 1180 723 +~;
#X obj 13 93 t b b;
#X msg 13 117 0;
#X obj 1169 188 t b a;
#X obj 379 535 unpack f f f;
#X obj 460 560 t b f;
#X obj 460 584 del, f 5;
#X obj 460 608 outlet;
#X text 459 627 bang when done;
#X obj 1205 106 s \$0-bufSR;
#N canvas 576 354 529 352 adaptSpdToSRs 0;
#X obj 94 26 r \$0-bufSR;
#X obj 32 26 r \$0-SR;
#X floatatom 32 50 5 0 0 0 - - - 0;
#X floatatom 94 50 5 0 0 0 - - - 0;
#X obj 68 100 jw.div;
#X obj 68 174 outlet;
#X obj 122 100 inlet;
#X obj 68 143 jw.**;
#X connect 0 0 3 0;
#X connect 1 0 2 0;
#X connect 2 0 4 0;
#X connect 3 0 4 1;
#X connect 4 0 7 0;
#X connect 6 0 7 1;
#X connect 7 0 5 0;
#X restore 551 226 pd adaptSpdToSRs;
#X obj 586 157 s \$0-SR;
#X obj 1234 54 route bufSR bufID;
#X floatatom 292 420 5 0 0 0 - - - 0;
#X floatatom 353 419 5 0 0 0 - - - 0;
#X floatatom 418 419 5 0 0 0 - - - 0;
#X obj 527 59 sel 0;
#X obj 653 115 abs;
#X connect 3 0 75 0;
#X connect 3 0 131 0;
#X connect 4 0 12 0;
#X connect 5 0 13 0;
#X connect 8 0 18 1;
#X connect 10 0 135 0;
#X connect 11 0 24 0;
#X connect 11 0 36 0;
#X connect 12 0 15 1;
#X connect 13 1 17 1;
#X connect 14 0 38 0;
#X connect 14 0 130 0;
#X connect 15 0 28 0;
#X connect 16 0 20 0;
#X connect 16 0 136 0;
#X connect 17 0 34 0;
#X connect 18 0 52 0;
#X connect 19 0 120 0;
#X connect 20 0 37 0;
#X connect 21 0 22 0;
#X connect 22 0 92 0;
#X connect 23 0 26 0;
#X connect 24 0 122 0;
#X connect 26 0 29 0;
#X connect 27 0 26 0;
#X connect 28 0 33 0;
#X connect 30 0 28 1;
#X connect 32 0 21 0;
#X connect 36 0 35 0;
#X connect 37 0 40 0;
#X connect 38 0 20 1;
#X connect 39 0 129 0;
#X connect 40 0 42 0;
#X connect 41 0 40 1;
#X connect 43 0 15 0;
#X connect 44 0 16 0;
#X connect 45 0 17 0;
#X connect 46 0 49 1;
#X connect 47 0 48 1;
#X connect 48 0 50 0;
#X connect 49 0 51 0;
#X connect 52 0 49 0;
#X connect 52 0 48 0;
#X connect 52 1 46 0;
#X connect 52 1 47 0;
#X connect 53 0 97 1;
#X connect 53 0 132 0;
#X connect 54 0 56 1;
#X connect 54 0 133 0;
#X connect 55 0 56 2;
#X connect 55 0 134 0;
#X connect 56 0 99 0;
#X connect 56 0 123 0;
#X connect 57 0 25 0;
#X connect 57 0 59 0;
#X connect 59 0 58 0;
#X connect 60 0 57 1;
#X connect 61 0 62 0;
#X connect 62 0 63 0;
#X connect 62 1 115 0;
#X connect 63 0 64 0;
#X connect 64 0 65 0;
#X connect 66 0 57 1;
#X connect 67 0 66 0;
#X connect 68 0 14 0;
#X connect 70 0 71 0;
#X connect 71 0 72 0;
#X connect 72 0 114 0;
#X connect 73 0 72 0;
#X connect 75 0 69 0;
#X connect 76 0 119 0;
#X connect 77 0 76 0;
#X connect 78 0 77 0;
#X connect 79 0 78 0;
#X connect 80 0 108 0;
#X connect 82 0 80 1;
#X connect 83 0 85 1;
#X connect 84 0 88 0;
#X connect 85 0 86 1;
#X connect 86 0 91 0;
#X connect 87 0 84 1;
#X connect 88 0 94 0;
#X connect 90 0 94 0;
#X connect 91 0 90 0;
#X connect 93 0 91 1;
#X connect 94 0 119 1;
#X connect 95 0 85 0;
#X connect 96 0 79 1;
#X connect 97 0 56 0;
#X connect 98 0 100 0;
#X connect 99 0 70 0;
#X connect 100 0 97 0;
#X connect 100 0 101 0;
#X connect 103 0 104 0;
#X connect 104 0 110 1;
#X connect 105 0 110 0;
#X connect 107 0 108 1;
#X connect 108 0 74 0;
#X connect 108 1 109 0;
#X connect 110 0 106 0;
#X connect 111 0 112 0;
#X connect 112 0 113 0;
#X connect 114 0 80 0;
#X connect 115 0 63 1;
#X connect 116 0 18 0;
#X connect 117 0 79 0;
#X connect 118 0 84 0;
#X connect 118 0 86 0;
#X connect 119 0 81 0;
#X connect 120 0 121 0;
#X connect 120 1 57 0;
#X connect 121 0 57 1;
#X connect 122 0 23 0;
#X connect 122 1 23 1;
#X connect 123 2 124 0;
#X connect 124 0 125 0;
#X connect 124 1 125 1;
#X connect 125 0 126 0;
#X connect 129 0 37 1;
#X connect 131 0 128 0;
#X connect 131 1 11 0;
#X connect 135 1 16 1;
#X connect 136 0 31 0;
