#N canvas 48 25 1392 847 12;
#X text 756 7 Speed;
#X text 526 7 Dur (ms);
#X text 266 7 Start (0-1);
#X obj 1021 30 inlet;
#X obj 266 30 inlet;
#X obj 756 30 inlet;
#X text 12 6 Trigger (1/0);
#X text 1020 7 Buffer Id;
#X obj 1193 30 inlet;
#X text 1192 7 Window Mode;
#X obj 527 30 inlet;
#X obj 1021 108 f;
#X obj 266 60 clip 0 1;
#X obj 527 60 clip 5 1e+10;
#X obj 756 60 sel 0;
#X obj 547 136 jw.loadSR;
#X obj 248 108 f 0;
#X obj 495 108 f 100;
#X obj 770 108 f 1;
#X obj 1175 108 f 0;
#X obj 13 30 inlet;
#X obj 495 193 jw.**;
#X obj 1244 385 * 0.5;
#X obj 1244 414 clip 2.5 30;
#X obj 939 211 array size;
#X obj 939 188 t b s;
#X msg 939 165 symbol \$1-array;
#X obj 15 193 s \$0-trig;
#X obj 921 270 f;
#X obj 921 237 r \$0-trig;
#X floatatom 899 369 8 0 0 0 - - -, f 8;
#X obj 248 185 jw.**;
#X obj 921 299 s \$0-bufLen;
#X obj 280 158 r \$0-bufLen;
#X obj 629 136 s \$0-durMS;
#X obj 1244 356 r \$0-durMS;
#X obj 248 214 s \$0-start;
#X floatatom 176 214 10 0 0 0 - - -, f 10;
#X obj 770 137 s \$0-speed;
#X obj 1055 191 s \$0-setBuf;
#X msg 1055 165 set \$1-array;
#X obj 495 249 jw.**;
#X obj 547 165 * 0.001;
#X obj 527 224 r \$0-speed;
#X obj 495 299 jw.++;
#X obj 527 275 r \$0-start;
#X floatatom 566 329 18 0 0 0 - - -, f 18;
#X floatatom 551 195 5 0 0 0 - - -, f 5;
#X floatatom 429 279 7 0 0 0 - - -, f 7;
#X floatatom 460 218 5 0 0 0 - - -, f 5;
#X floatatom 609 166 5 0 0 0 - - -, f 5;
#X obj 495 328 s \$0-end;
#X obj 195 60 r \$0-trig;
#X obj 455 60 r \$0-trig;
#X obj 682 61 r \$0-trig;
#X obj 1084 65 r \$0-trig;
#X obj 1273 190 == 1;
#X obj 1214 190 == 0;
#X obj 1175 231 spigot;
#X obj 1234 231 spigot;
#X obj 1140 255 s \$0-trigFd;
#X obj 1234 255 s \$0-trigWin;
#X obj 1175 165 t b f, f 6;
#X obj 244 445 r \$0-start;
#X obj 323 445 r \$0-end;
#X obj 388 445 r \$0-durMS;
#X obj 244 519 pack f f f;
#X obj 13 113 t 0 b;
#X obj 45 147 spigot;
#X obj 45 248 s \$0-trigGate;
#X msg 45 224 0;
#X obj 84 113 r \$0-trigGate;
#X obj 45 272 r \$0-durMS;
#X obj 45 301 t b f;
#X obj 45 330 del, f 5;
#X msg 45 359 1;
#X obj 45 388 s \$0-trigGate;
#X obj 94 147 tgl 15 0 empty empty empty 17 7 0 10 #fcfcfc #000000
#000000 1 1;
#X floatatom 177 488 12 0 0 0 - - -, f 12;
#X floatatom 351 494 9 0 0 0 - - -, f 9;
#X floatatom 416 474 10 0 0 0 - - -, f 10;
#X msg 68 87 1;
#X obj 68 64 r \$0-ready;
#X obj 547 109 r \$0-ready;
#X obj 930 100 s \$0-ready;
#X obj 189 542 bng 15 250 50 0 empty empty empty 17 7 0 10 #fcfcfc
#000000 #000000;
#X msg 244 548 \$1 \, \$2 \$3;
#X obj 244 577 vline~;
#N canvas 928 22 461 412 wrapToBufSize 0;
#X obj 39 11 inlet~;
#X obj 39 254 outlet~;
#X obj 39 122 expr~ $v1 % $v2;
#X obj 197 40 sig~;
#X obj 39 155 /~, f 23;
#X obj 39 184 wrap~;
#X obj 39 213 *~, f 28;
#X obj 197 11 r \$0-bufLen;
#X connect 0 0 2 0;
#X connect 2 0 4 0;
#X connect 3 0 2 1;
#X connect 3 0 4 1;
#X connect 3 0 6 1;
#X connect 4 0 5 0;
#X connect 5 0 6 0;
#X connect 6 0 1 0;
#X connect 7 0 3 0;
#X restore 244 605 pd wrapToBufSize;
#X obj 244 634 tabread4~;
#X obj 158 605 r \$0-setBuf;
#X obj 244 723 outlet~;
#X obj 930 76 t b;
#X obj 623 658 sin~;
#X obj 623 632 vline~;
#X msg 623 521 0 \, 0.5 \$1;
#X obj 623 445 r \$0-trigWin;
#X obj 623 494 f;
#X obj 244 691 *~;
#X obj 623 717 s~ \$0-window;
#X obj 261 668 r~ \$0-window;
#X obj 1087 467 r \$0-fdLen;
#X obj 816 519 f;
#X obj 1009 497 jw.--;
#X obj 924 593 del;
#X obj 834 493 r \$0-fdLen;
#X msg 816 545 0 \, 1 \$1;
#X obj 816 468 r \$0-trigFd;
#X text 815 443 Fade In;
#X msg 1073 651 0 \$1;
#X obj 1073 627 f;
#X obj 1244 443 s \$0-fdLen;
#X floatatom 1201 444 5 0 0 0 - - -, f 5;
#X obj 1092 602 r \$0-fdLen;
#X obj 885 684 line~;
#X obj 393 691 jw.snapper~ 50;
#X floatatom 393 720 18 0 0 0 - - -, f 18;
#X obj 623 687 +~;
#X obj 886 726 jw.snapper~ 50;
#X floatatom 886 755 18 0 0 0 - - -, f 18;
#X floatatom 1009 526 5 0 0 0 - - -, f 5;
#X obj 1009 467 r \$0-durMS;
#X obj 641 469 r \$0-durMS;
#X connect 3 0 11 0;
#X connect 3 0 92 0;
#X connect 4 0 12 0;
#X connect 5 0 14 0;
#X connect 8 0 19 1;
#X connect 10 0 13 0;
#X connect 11 0 26 0;
#X connect 11 0 40 0;
#X connect 12 0 16 1;
#X connect 13 0 17 1;
#X connect 14 1 18 1;
#X connect 15 0 42 0;
#X connect 15 0 50 0;
#X connect 16 0 31 0;
#X connect 17 0 21 0;
#X connect 17 0 34 0;
#X connect 18 0 38 0;
#X connect 19 0 62 0;
#X connect 20 0 67 0;
#X connect 21 0 41 0;
#X connect 21 0 49 0;
#X connect 22 0 23 0;
#X connect 23 0 111 0;
#X connect 23 0 112 0;
#X connect 24 0 28 1;
#X connect 25 0 24 0;
#X connect 25 1 24 1;
#X connect 26 0 25 0;
#X connect 28 0 30 0;
#X connect 28 0 32 0;
#X connect 29 0 28 0;
#X connect 31 0 36 0;
#X connect 31 0 37 0;
#X connect 33 0 31 1;
#X connect 35 0 22 0;
#X connect 40 0 39 0;
#X connect 41 0 44 0;
#X connect 41 0 48 0;
#X connect 42 0 21 1;
#X connect 42 0 47 0;
#X connect 43 0 41 1;
#X connect 44 0 46 0;
#X connect 44 0 51 0;
#X connect 45 0 44 1;
#X connect 52 0 16 0;
#X connect 53 0 17 0;
#X connect 54 0 18 0;
#X connect 55 0 11 0;
#X connect 55 0 19 0;
#X connect 56 0 59 1;
#X connect 57 0 58 1;
#X connect 58 0 60 0;
#X connect 59 0 61 0;
#X connect 62 0 59 0;
#X connect 62 0 58 0;
#X connect 62 1 56 0;
#X connect 62 1 57 0;
#X connect 63 0 66 0;
#X connect 63 0 78 0;
#X connect 64 0 66 1;
#X connect 64 0 79 0;
#X connect 65 0 66 2;
#X connect 65 0 80 0;
#X connect 66 0 85 0;
#X connect 66 0 86 0;
#X connect 67 0 68 1;
#X connect 67 1 68 0;
#X connect 68 0 27 0;
#X connect 68 0 70 0;
#X connect 70 0 69 0;
#X connect 71 0 68 1;
#X connect 71 0 77 0;
#X connect 72 0 73 0;
#X connect 73 0 74 0;
#X connect 73 1 74 1;
#X connect 74 0 75 0;
#X connect 75 0 76 0;
#X connect 81 0 68 1;
#X connect 82 0 81 0;
#X connect 83 0 15 0;
#X connect 86 0 87 0;
#X connect 87 0 88 0;
#X connect 88 0 89 0;
#X connect 89 0 98 0;
#X connect 90 0 89 0;
#X connect 92 0 84 0;
#X connect 93 0 117 0;
#X connect 94 0 93 0;
#X connect 95 0 94 0;
#X connect 96 0 97 0;
#X connect 97 0 95 0;
#X connect 98 0 91 0;
#X connect 100 0 98 1;
#X connect 100 0 115 0;
#X connect 101 0 103 1;
#X connect 102 0 106 0;
#X connect 103 0 104 1;
#X connect 103 0 120 0;
#X connect 104 0 110 0;
#X connect 105 0 102 1;
#X connect 106 0 114 0;
#X connect 107 0 102 0;
#X connect 107 0 104 0;
#X connect 109 0 114 0;
#X connect 110 0 109 0;
#X connect 113 0 110 1;
#X connect 114 0 117 1;
#X connect 114 0 118 0;
#X connect 115 0 116 0;
#X connect 117 0 99 0;
#X connect 118 0 119 0;
#X connect 121 0 103 0;
#X connect 122 0 97 1;
