#N canvas 236 25 968 706 12;
#X obj 51 289 tgl 15 0 \$0-metroTog \$0-metroTogUI empty 17 7 0 10
#fcfcfc #000000 #000000 0 1;
#X obj 51 312 tgl 15 0 \$0-dustTog \$0-dustTogUI empty 17 7 0 10 #fcfcfc
#000000 #000000 0 1;
#X text 68 286 metro;
#X floatatom 110 286 8 0 1e+07 0 - #0-metroMsUI #0-metroMs, f 8;
#X floatatom 86 333 8 0 0 0 - #0-dustMinUI #0-dustMin, f 8;
#X obj 51 380 bng 15 250 50 0 \$0-oneShot \$0-oneShotUI empty 17 7
0 10 #fcfcfc #000000 #000000;
#X text 68 377 one shot;
#X text 170 286 ms;
#X text 147 333 ms;
#X text 68 309 dust;
#X obj 60 104 inlet;
#X text 51 332 min:;
#X floatatom 86 355 8 0 0 0 - #0-dustMaxUI #0-dustMax, f 8;
#X text 147 355 ms;
#X text 51 354 max:;
#X text 170 333 exp;
#X floatatom 197 333 5 0 0 0 - #0-dustExpUI #0-dustExp, f 5;
#X obj 50 261 cnv 15 189 22 empty empty Triggers 5 8 0 14 #e0e0e0 #404040
0;
#N canvas 160 22 800 470 handleTrigParams 0;
#X obj 218 80 r \$0-metroMs;
#X obj 120 137 pack 0 100;
#X obj 120 80 r \$0-metroTog;
#X msg 120 166 metro \$1 \$2;
#X msg 429 229 megaDust \$1 \$2 \$3 \$4;
#X obj 486 155 r \$0-dustExp;
#X obj 465 130 r \$0-dustMax;
#X obj 448 106 r \$0-dustMin;
#X obj 426 81 r \$0-dustTog;
#X obj 429 206 pack 0 0 1 1;
#X obj 434 181 t b;
#X obj 585 229 r \$0-oneShot;
#X obj 218 103 t b f;
#X obj 120 302 outlet;
#X obj 7 121 sel 1;
#X obj 311 129 sel 1;
#X msg 311 158 0;
#X msg 7 150 0;
#X obj 7 179 s \$0-dustTogUI;
#X obj 311 187 s \$0-metroTogUI;
#X connect 0 0 12 0;
#X connect 1 0 3 0;
#X connect 2 0 1 0;
#X connect 2 0 14 0;
#X connect 3 0 13 0;
#X connect 4 0 13 0;
#X connect 5 0 10 0;
#X connect 5 0 9 3;
#X connect 6 0 10 0;
#X connect 6 0 9 2;
#X connect 7 0 10 0;
#X connect 7 0 9 1;
#X connect 8 0 9 0;
#X connect 8 0 15 0;
#X connect 9 0 4 0;
#X connect 10 0 9 0;
#X connect 11 0 13 0;
#X connect 12 0 1 0;
#X connect 12 1 1 1;
#X connect 14 0 17 0;
#X connect 15 0 16 0;
#X connect 16 0 19 0;
#X connect 17 0 18 0;
#X restore 46 456 pd handleTrigParams;
#N canvas 495 25 500 333 handleTrigInputs 0;
#X obj 40 164 unpack;
#X obj 185 164 unpack f f f f;
#X obj 40 140 route metro megaDust, f 42;
#X obj 79 212 s \$0-metroMsUI;
#X obj 40 188 s \$0-metroTogUI;
#X obj 185 189 s \$0-dustTogUI;
#X obj 331 164 t b;
#X obj 331 187 s \$0-oneShotUI;
#X obj 195 211 s \$0-dustMinUI;
#X obj 205 233 s \$0-dustMaxUI;
#X obj 215 255 s \$0-dustExpUI;
#X obj 13 86 inlet;
#X obj 79 99 jw.loadnum 100;
#X obj 227 24 jw.loadnum 10;
#X obj 237 47 jw.loadnum 1000;
#X obj 254 71 jw.loadnum 3;
#X connect 0 0 4 0;
#X connect 0 1 3 0;
#X connect 1 0 5 0;
#X connect 1 1 8 0;
#X connect 1 2 9 0;
#X connect 1 3 10 0;
#X connect 2 0 0 0;
#X connect 2 1 1 0;
#X connect 2 2 6 0;
#X connect 6 0 7 0;
#X connect 11 0 2 0;
#X connect 12 0 3 0;
#X connect 13 0 8 0;
#X connect 14 0 9 0;
#X connect 15 0 10 0;
#X restore 60 129 pd handleTrigInputs;
#X obj 201 104 inlet;
#X obj 245 261 cnv 15 184 22 empty empty Start\ Position 5 8 0 14 #e0e0e0
#404040 0;
#X floatatom 306 286 6 0 0 0 - #0-posLoopHzUI #0-posLoopHz, f 6;
#X text 352 286 (Hz);
#X floatatom 361 310 6 0 0 0 - #0-posSweepMsUI #0-posSweepMs, f 6
;
#X floatatom 361 334 6 0 0 0 - #0-posSweepPosUI #0-posSweepPos, f
6;
#X obj 435 261 cnv 15 189 22 empty empty Grain\ Duration 5 8 0 14 #e0e0e0
#404040 0;
#X text 262 286 loop:;
#X text 262 310 random sweep:;
#X text 244 333 set fixed pos:;
#X obj 245 289 tgl 15 0 \$0-posLoopTog \$0-posLoopTogUI empty 17 7
0 10 #fcfcfc #000000 #000000 0 0.07;
#X obj 245 312 tgl 15 0 \$0-posSweepTog \$0-posSweepTogUI empty 17
7 0 10 #fcfcfc #000000 #000000 0 1;
#X text 408 311 ms;
#N canvas 739 25 633 300 handlePosInputs 0;
#X obj 40 150 inlet;
#X obj 40 150 route loop randSweep, f 59;
#X obj 40 177 unpack f f;
#X obj 40 206 s \$0-posLoopTogUI;
#X obj 107 231 s \$0-posLoopHzUI;
#X obj 229 180 unpack f f;
#X obj 229 209 s \$0-posSweepTogUI;
#X obj 296 234 s \$0-posSweepMsUI;
#X obj 412 210 s \$0-posSweepPosUI;
#X obj 13 96 inlet;
#X obj 88 84 jw.loadnum 0;
#X obj 162 83 jw.loadnum 0.2;
#X obj 251 82 jw.loadnum 1000;
#X connect 1 0 2 0;
#X connect 1 1 5 0;
#X connect 1 2 8 0;
#X connect 2 0 3 0;
#X connect 2 1 4 0;
#X connect 5 0 6 0;
#X connect 5 1 7 0;
#X connect 9 0 1 0;
#X connect 10 0 3 0;
#X connect 10 0 6 0;
#X connect 10 0 8 0;
#X connect 11 0 4 0;
#X connect 12 0 7 0;
#X restore 201 129 pd handlePosInputs;
#N canvas 255 135 957 331 handlePosParams 0;
#X obj 179 96 r \$0-posLoopTog;
#X obj 246 121 r \$0-posLoopHz;
#X obj 528 80 r \$0-posSweepTog;
#X obj 596 105 r \$0-posSweepMs;
#X obj 711 211 r \$0-posSweepPos;
#X obj 40 122 sel 1;
#X msg 40 151 0;
#X obj 40 180 s \$0-posSweepTogUI;
#X obj 359 121 sel 1;
#X msg 359 150 0;
#X obj 359 179 s \$0-posLoopTogUI;
#X obj 246 145 t b f;
#X msg 179 209 loop \$1 \$2;
#X obj 596 134 t b f;
#X msg 528 208 randSweep \$1 \$2;
#X obj 179 180 pack 0 1;
#X obj 528 179 pack 0 1000;
#X obj 205 261 outlet;
#X msg 719 249 0;
#X obj 729 278 s \$0-posLoopTogUI;
#X obj 700 303 s \$0-posSweepTogUI;
#X connect 0 0 5 0;
#X connect 0 0 15 0;
#X connect 1 0 11 0;
#X connect 2 0 8 0;
#X connect 2 0 16 0;
#X connect 3 0 13 0;
#X connect 4 0 17 0;
#X connect 4 0 18 0;
#X connect 5 0 6 0;
#X connect 6 0 7 0;
#X connect 8 0 9 0;
#X connect 9 0 10 0;
#X connect 11 0 15 0;
#X connect 11 1 15 1;
#X connect 12 0 17 0;
#X connect 13 0 16 0;
#X connect 13 1 16 1;
#X connect 14 0 17 0;
#X connect 15 0 12 0;
#X connect 16 0 14 0;
#X connect 18 0 19 0;
#X connect 18 0 20 0;
#X restore 79 478 pd handlePosParams;
#X floatatom 470 310 8 0 0 0 - #0-durRandMinUI #0-durRandMin, f 8
;
#X text 531 310 ms;
#X text 435 309 min:;
#X floatatom 470 332 8 0 0 0 - #0-durRandMaxUI #0-durRandMax, f 8
;
#X text 531 332 ms;
#X text 435 331 max:;
#X text 554 310 exp;
#X floatatom 581 310 5 0 0 0 - #0-durRandExpUI #0-durRandExp, f 5
;
#X obj 435 289 tgl 15 0 \$0-durRandTog \$0-durRandTogUI empty 17 7
0 10 #fcfcfc #000000 #000000 0 1;
#X floatatom 552 355 6 0 0 0 - #0-fixedDurUI #0-fixedDur, f 6;
#X text 452 286 randomise;
#X obj 336 104 inlet;
#N canvas 0 22 450 300 handleDurParams 0;
#X obj 269 190 t 0;
#X obj 269 219 s \$0-durRandTogUI;
#X obj 42 80 r \$0-durRandTog;
#X obj 65 104 r \$0-durRandMin;
#X obj 81 130 r \$0-durRandMax;
#X obj 103 156 r \$0-durRandExp;
#X obj 221 155 r \$0-fixedDur;
#X msg 40 229 randRange \$1 \$2 \$3 \$4;
#X obj 50 175 t b;
#X obj 40 204 pack 0 10 100 1;
#X obj 221 269 outlet;
#X connect 0 0 1 0;
#X connect 2 0 9 0;
#X connect 3 0 8 0;
#X connect 3 0 9 1;
#X connect 4 0 8 0;
#X connect 4 0 9 2;
#X connect 5 0 8 0;
#X connect 5 0 9 3;
#X connect 6 0 0 0;
#X connect 6 0 10 0;
#X connect 7 0 10 0;
#X connect 8 0 9 0;
#X connect 9 0 7 0;
#X restore 112 500 pd handleDurParams;
#X obj 566 104 inlet;
#X obj 245 386 cnv 15 184 22 empty empty Grain\ Speed 5 8 0 14 #e0e0e0
#404040 0;
#X floatatom 289 411 6 0 0 0 - #0-speedUI #0-speed, f 6;
#X text 245 411 speed:;
#X obj 629 261 cnv 15 189 22 empty empty Pan 5 8 0 14 #e0e0e0 #404040
0;
#X floatatom 665 310 8 0 1 0 - #0-panRandMinUI #0-panRandMin, f 8
;
#X text 630 309 min:;
#X floatatom 665 332 8 0 1 0 - #0-panRandMaxUI #0-panRandMax, f 8
;
#X text 630 331 max:;
#X text 749 310 exp;
#X floatatom 776 310 5 0 0 0 - #0-panRandExpUI #0-panRandExp, f 5
;
#X obj 630 289 tgl 15 0 \$0-panRandTog \$0-panRandTogUI empty 17 7
0 10 #fcfcfc #000000 #000000 0 1;
#X floatatom 747 355 6 0 0 0 - #0-fixedPanUI #0-fixedPan, f 6;
#X text 630 354 set fixed pos:;
#X text 647 286 randomise;
#N canvas 495 25 450 300 handleDurInputs 0;
#X obj 40 80 route randRange, f 31;
#X obj 40 109 unpack 0 0 0 0;
#X obj 40 142 s \$0-durRandTogUI;
#X obj 63 166 s \$0-durRandMinUI;
#X obj 79 192 s \$0-durRandMaxUI;
#X obj 101 218 s \$0-durRandExpUI;
#X obj 155 109 s \$0-fixedDurUI;
#X obj 13 26 inlet;
#X obj 184 134 jw.loadnum 0;
#X obj 202 156 jw.loadnum 10;
#X obj 219 179 jw.loadnum 1000;
#X obj 238 202 jw.loadnum 8;
#X obj 284 110 jw.loadnum 50;
#X connect 0 0 1 0;
#X connect 0 1 6 0;
#X connect 1 0 2 0;
#X connect 1 1 3 0;
#X connect 1 2 4 0;
#X connect 1 3 5 0;
#X connect 7 0 0 0;
#X connect 8 0 2 0;
#X connect 9 0 3 0;
#X connect 10 0 4 0;
#X connect 11 0 5 0;
#X connect 12 0 6 0;
#X restore 335 129 pd handleDurInputs;
#N canvas 495 25 450 300 hanldlePanInputs 0;
#X obj 40 80 route randRange, f 31;
#X obj 40 109 unpack 0 0 0 0;
#X obj 40 142 s \$0-panRandTogUI;
#X obj 63 166 s \$0-panRandMinUI;
#X obj 79 192 s \$0-panRandMaxUI;
#X obj 101 218 s \$0-panRandExpUI;
#X obj 155 109 s \$0-fixedPanUI;
#X obj 13 26 inlet;
#X obj 282 79 jw.loadnum 0.5;
#X obj 254 140 jw.loadnum 0;
#X obj 255 169 jw.loadnum 1;
#X connect 0 0 1 0;
#X connect 0 1 6 0;
#X connect 1 0 2 0;
#X connect 1 1 3 0;
#X connect 1 2 4 0;
#X connect 1 3 5 0;
#X connect 7 0 0 0;
#X connect 8 0 6 0;
#X connect 9 0 2 0;
#X connect 9 0 3 0;
#X connect 10 0 4 0;
#X connect 10 0 5 0;
#X restore 566 129 pd hanldlePanInputs;
#X obj 472 104 inlet;
#X obj 472 129 s \$0-speedUI;
#N canvas 0 22 450 300 handlePanParams 0;
#X obj 269 190 t 0;
#X msg 40 229 randRange \$1 \$2 \$3 \$4;
#X obj 50 175 t b;
#X obj 40 204 pack 0 10 100 1;
#X obj 221 269 outlet;
#X obj 42 80 r \$0-panRandTog;
#X obj 65 104 r \$0-panRandMin;
#X obj 81 130 r \$0-panRandMax;
#X obj 103 156 r \$0-panRandExp;
#X obj 269 219 s \$0-panRandTogUI;
#X obj 221 155 r \$0-fixedPan;
#X connect 0 0 9 0;
#X connect 1 0 4 0;
#X connect 2 0 3 0;
#X connect 3 0 1 0;
#X connect 5 0 3 0;
#X connect 6 0 2 0;
#X connect 6 0 3 1;
#X connect 7 0 2 0;
#X connect 7 0 3 2;
#X connect 8 0 2 0;
#X connect 8 0 3 3;
#X connect 10 0 0 0;
#X connect 10 0 4 0;
#X restore 179 547 pd handlePanParams;
#X obj 147 524 r \$0-speed;
#X obj 436 386 cnv 15 184 22 empty empty Window\ Type 5 8 0 14 #e0e0e0
#404040 0;
#X text 436 411 short fade;
#X obj 513 414 tgl 15 0 \$0-winFd \$0-winFdUI empty 17 7 0 10 #fcfcfc
#000000 #000000 1 1;
#X obj 561 413 tgl 15 0 \$0-sinFd \$0-sinFdUI empty 17 7 0 10 #fcfcfc
#000000 #000000 0 1;
#X text 533 411 sin;
#X obj 711 104 inlet;
#X obj 711 133 s \$0-buf;
#X obj 213 572 r \$0-buf;
#X obj 779 104 inlet;
#X obj 779 133 sel 0 1;
#X msg 738 175 1;
#X msg 831 175 1;
#X obj 739 204 s \$0-winFdUI;
#X obj 832 204 s \$0-sinFdUI;
#N canvas 495 25 450 300 handleWinParams 0;
#X obj 40 80 r \$0-winFd;
#X obj 136 80 r \$0-sinFd;
#X obj 72 175 s \$0-sinFdUI;
#X obj 40 109 t 0 f;
#X obj 159 110 t 1 f;
#X obj 72 131 sel 1;
#X msg 72 153 0;
#X obj 191 132 sel 1;
#X msg 191 154 0;
#X obj 191 176 s \$0-winFdUI;
#X obj 13 249 outlet;
#X connect 0 0 3 0;
#X connect 1 0 4 0;
#X connect 3 0 10 0;
#X connect 3 1 5 0;
#X connect 4 0 10 0;
#X connect 4 1 7 0;
#X connect 5 0 6 0;
#X connect 6 0 2 0;
#X connect 7 0 8 0;
#X connect 8 0 9 0;
#X restore 246 600 pd handleWinParams;
#X obj 50 247 cnv 10 219 11 empty empty trig 0 2 0 8 #e0e0e0 #404040
0;
#X obj 170 247 cnv 10 141 11 empty empty pos 0 2 0 8 #e0e0e0 #404040
0;
#X obj 299 247 cnv 10 141 11 empty empty dur 0 2 0 8 #e0e0e0 #404040
0;
#X obj 420 247 cnv 10 156 11 empty empty speed 0 2 0 8 #e0e0e0 #404040
0;
#X obj 554 247 cnv 10 134 11 empty empty pan 0 2 0 8 #e0e0e0 #404040
0;
#X obj 683 247 cnv 10 134 11 empty empty buf 0 2 0 8 #e0e0e0 #404040
0;
#X obj 803 247 cnv 10 15 11 empty empty win -6 2 0 8 #e0e0e0 #404040
0;
#X obj 50 433 cnv 10 766 11 empty empty l.ch 0 2 0 8 #e0e0e0 #404040
0;
#X obj 793 433 cnv 10 25 11 empty empty r.ch -6 2 0 8 #e0e0e0 #404040
0;
#X obj 61 526 bng 15 250 50 0 empty empty empty 17 7 0 10 #fcfcfc #000000
#000000;
#X text 435 354 set fixed dur:;
#X obj 46 660 hip~ 20;
#X obj 46 689 outlet~;
#X obj 246 657 hip~ 20;
#X obj 246 686 outlet~;
#X text 103 28 CREATION ARGUMENT: 1 - maxGrains;
#X obj 46 631 jw.granular~ \$1, f 29;
#X obj 465 81 jw.loadnum 1;
#X obj 828 104 jw.loadnum 0;
#X obj 428 435 nbx 4 8 -1e+37 1e+37 0 0 \$0-nothing \$0-buf buf: -20
3 0 8 #fcfcfc #000000 #000000 0 256 0;
#X connect 10 0 19 0;
#X connect 18 0 93 0;
#X connect 18 0 100 0;
#X connect 20 0 33 0;
#X connect 34 0 100 1;
#X connect 46 0 63 0;
#X connect 47 0 100 2;
#X connect 48 0 64 0;
#X connect 65 0 66 0;
#X connect 67 0 100 4;
#X connect 68 0 100 3;
#X connect 74 0 75 0;
#X connect 76 0 100 5;
#X connect 77 0 78 0;
#X connect 78 0 79 0;
#X connect 78 1 80 0;
#X connect 79 0 81 0;
#X connect 80 0 82 0;
#X connect 83 0 100 6;
#X connect 95 0 96 0;
#X connect 97 0 98 0;
#X connect 100 0 95 0;
#X connect 100 1 97 0;
#X connect 101 0 66 0;
#X connect 102 0 78 0;
#X coords 0 -1 1 1 773 203 2 47 244;
