#N canvas 103 580 923 258 12;
#X msg 428 94 all \$1;
#X msg 844 94 all \$1;
#X obj 170 70 inlet;
#X obj 323 70 inlet;
#X obj 428 70 inlet;
#X obj 643 20 inlet;
#X obj 844 70 inlet;
#X obj 39 197 outlet~;
#X obj 10 70 inlet;
#N canvas 973 25 467 674 help/f***IcantRememberHowThisWorks 0;
#X text 8 38 [metro {on/off} {ms}(;
#X text 38 67 message sets metro on state and bang rate;
#X text 8 96 [megaDust {on/off} {min} {max} {exp}(;
#X text 38 125 message sets megaDust on state \, min & max range \,
and the exponent curve for time ranges;
#X text 8 170 [anything else(;
#X text 38 199 Triggers a grain;
#X text 38 286 sets the rate at which pos loops between 0-1 (in Hz)
;
#X text 38 344 sets the rate at which pos scans between random positions
between 0-1 (in no. of ms between each new position);
#X text 8 389 [num(;
#X text 38 418 sets position immediately;
#X text 38 505 sets parameters of random number generator. A new delay
time is set each time a grain is triggered;
#X text 8 859 INLET 6 - buf;
#X text 8 888 INLET 7 - win;
#X text 8 610 INLET 4 - speed;
#X text 8 640 INLET 5;
#X text 38 698 sets parameters of random number generator. A new pan
position is set each time a grain is triggered;
#X text 8 743 [glide {ms}(;
#X text 38 772 sets a smoothing time in Ms for all pan messages;
#X text 8 801 [num(;
#X text 38 830 sets fixed pan position;
#X text 8 257 [loop {on/off} {rate}(;
#X text 8 315 [randSweep {on/off} {rate}(;
#X text 8 669 [randRange {on/off} {min} {max} {exp}(;
#X text 8 476 [randRange {on/off} {min} {max} {exp}(;
#X text 8 9 INLET 1 - trigs;
#X text 8 228 INLET 2 - start pos;
#X text 8 447 INLET 3 - duration;
#X text 9 550 [num(;
#X text 39 579 sets duration immediately;
#X restore 273 10 pd help/f***IcantRememberHowThisWorks;
#N canvas 348 69 802 533 createPositions 0;
#X msg 366 380 all \$1;
#X obj 40 80 route loop randSweep, f 47;
#X obj 40 240 phasor~;
#X obj 40 265 jw.snapper~ 50;
#X obj 40 290 jw.smoo 50;
#X obj 203 243 random 10000;
#X obj 203 272 / 10000;
#X obj 203 214 metro 1000;
#X obj 203 301 jw.smoo 1000;
#X obj 40 215 jw.**;
#X obj 40 319 change;
#X obj 366 105 clip 0 1;
#X obj 13 26 inlet;
#X obj 13 453 outlet;
#X obj 40 107 unpack f f;
#X obj 203 107 unpack f f;
#X obj 40 136 t f 0;
#X obj 203 136 t f 0;
#X obj 327 231 jw.seedByPatchID;
#X connect 0 0 13 0;
#X connect 1 0 14 0;
#X connect 1 1 15 0;
#X connect 1 2 11 0;
#X connect 2 0 3 0;
#X connect 3 0 4 0;
#X connect 4 0 10 0;
#X connect 5 0 6 0;
#X connect 6 0 8 0;
#X connect 7 0 5 0;
#X connect 8 0 0 0;
#X connect 9 0 2 0;
#X connect 10 0 0 0;
#X connect 11 0 0 0;
#X connect 12 0 1 0;
#X connect 14 0 16 0;
#X connect 14 1 9 1;
#X connect 15 0 17 0;
#X connect 15 1 7 1;
#X connect 15 1 8 1;
#X connect 16 0 9 0;
#X connect 16 1 7 0;
#X connect 17 0 7 0;
#X connect 17 1 9 0;
#X connect 18 0 5 0;
#X restore 170 94 pd createPositions;
#X obj 147 122 s \$0-trigs;
#N canvas 467 87 752 398 createDurs 0;
#X obj 40 190 r \$0-trigs;
#X obj 118 80 route randRange, f 27;
#X obj 84 260 spigot, f 19;
#X obj 13 26 inlet;
#X obj 13 333 outlet;
#X msg 84 296 all \$1;
#X obj 84 221 jw.randRange, f 15;
#X obj 118 109 unpack f f f f;
#X obj 304 170 t f b;
#X msg 336 195 0;
#X connect 0 0 6 0;
#X connect 1 0 7 0;
#X connect 1 1 8 0;
#X connect 2 0 5 0;
#X connect 3 0 1 0;
#X connect 5 0 4 0;
#X connect 6 0 2 0;
#X connect 7 0 2 1;
#X connect 7 1 6 1;
#X connect 7 2 6 2;
#X connect 7 3 6 3;
#X connect 8 0 5 0;
#X connect 8 1 9 0;
#X connect 9 0 2 1;
#X restore 323 94 pd createDurs;
#X text 11 48 trig;
#X text 169 48 pos;
#X text 323 48 dur;
#X text 643 -2 buf;
#X text 844 48 win;
#X obj 522 70 inlet;
#X obj 764 199 outlet~;
#X text 428 48 speed;
#X text 522 48 pan;
#N canvas 768 400 477 368 createPan 0;
#X obj 90 180 jw.randRange;
#X obj 16 107 r \$0-trigs;
#X msg 261 255 all \$1;
#X obj 117 80 route randRange glide;
#X obj 307 198 f 0;
#X obj 307 170 loadbang;
#X obj 13 26 inlet;
#X obj 13 288 outlet;
#X obj 16 143 spigot;
#X obj 261 107 t f b;
#X msg 292 128 0;
#X obj 261 230 jw.smoo 0;
#X obj 171 159 jw.loadnum 1;
#X obj 117 110 unpack f f f;
#X connect 0 0 11 0;
#X connect 1 0 8 0;
#X connect 2 0 7 0;
#X connect 3 0 13 0;
#X connect 3 1 4 0;
#X connect 3 2 9 0;
#X connect 4 0 11 1;
#X connect 5 0 4 0;
#X connect 6 0 3 0;
#X connect 8 0 0 0;
#X connect 9 0 11 0;
#X connect 9 1 10 0;
#X connect 10 0 8 1;
#X connect 11 0 2 0;
#X connect 12 0 0 3;
#X connect 13 0 8 1;
#X connect 13 1 0 1;
#X connect 13 2 0 2;
#X restore 522 94 pd createPan;
#X obj 39 173 clone jw.grain~ \$1, f 104;
#X text 40 10 CREATION ARGUMENT: 1 - maxGrains;
#N canvas 8 213 574 446 createTriggers 0;
#X obj 41 190 metro 50;
#X msg 40 334 \$1 1;
#X obj 40 305 - 1;
#X obj 41 103 unpack;
#X obj 109 106 unpack f f f f;
#X obj 110 189 jw.megaDust 30 40000 100 25;
#X obj 41 80 route metro megaDust, f 41;
#X obj 325 157 t b;
#X obj 13 26 inlet;
#X obj 13 407 outlet;
#X obj 208 405 outlet;
#X obj 40 276 poly 64 1;
#X obj 40 229 t b b;
#X msg 40 251 1;
#X msg 72 251 1;
#X obj 50 128 sel 1;
#X obj 113 130 sel 1;
#X msg 113 152 0;
#X msg 50 152 0;
#X connect 0 0 10 0;
#X connect 0 0 12 0;
#X connect 1 0 9 0;
#X connect 2 0 1 0;
#X connect 3 0 0 0;
#X connect 3 0 15 0;
#X connect 3 1 0 1;
#X connect 4 0 5 0;
#X connect 4 0 16 0;
#X connect 4 1 5 1;
#X connect 4 2 5 2;
#X connect 4 3 5 3;
#X connect 5 0 10 0;
#X connect 5 0 12 0;
#X connect 6 0 3 0;
#X connect 6 1 4 0;
#X connect 6 2 7 0;
#X connect 7 0 10 0;
#X connect 7 0 12 0;
#X connect 8 0 6 0;
#X connect 11 0 2 0;
#X connect 12 0 13 0;
#X connect 12 1 14 0;
#X connect 13 0 11 0;
#X connect 14 0 11 1;
#X connect 15 0 18 0;
#X connect 17 0 0 0;
#X connect 18 0 5 0;
#X restore 10 96 pd createTriggers \$1;
#X obj 346 114 route all;
#X msg 643 94 all bufID \$1;
#X obj 643 52 route bufID bufSR;
#X msg 701 120 all bufSR \$1;
#X connect 0 0 23 3;
#X connect 1 0 23 6;
#X connect 2 0 10 0;
#X connect 3 0 12 0;
#X connect 4 0 0 0;
#X connect 5 0 28 0;
#X connect 6 0 1 0;
#X connect 8 0 25 0;
#X connect 10 0 23 1;
#X connect 12 0 26 0;
#X connect 12 0 23 2;
#X connect 18 0 22 0;
#X connect 22 0 23 4;
#X connect 23 0 7 0;
#X connect 23 1 19 0;
#X connect 25 0 23 0;
#X connect 25 1 11 0;
#X connect 27 0 23 5;
#X connect 28 0 27 0;
#X connect 28 1 29 0;
#X connect 29 0 23 5;
