#N canvas 1097 -1048 672 512 12;
#N canvas 0 22 450 300 (subpatch) 0;
#X array \$0-hann 1024 float 0 black black;
#X coords 0 1 1023 0 300 100 1;
#X restore 110 394 graph;
#X obj 327 184 osc~;
#X obj 327 209 *~ -0.5;
#X obj 327 233 +~ 0.5;
#X obj 310 276 tabwrite~ \$0-hann;
#X obj 86 113 r window-size;
#X obj 157 237 /;
#X obj 175 205 samplerate~;
#X obj 157 315 s window-sec;
#X obj 67 251 swap;
#X obj 67 275 /;
#X obj 67 299 s window-hz;
#X obj 168 265 * 1000;
#X obj 168 292 s window-msec;
#X obj 86 148 t f b f;
#X msg 175 155 resize \$1;
#X obj 175 179 s \$0-hann;
#X obj 279 122 r window-hz;
#X msg 352 154 0;
#X obj 279 150 t f b;
#X text 56 20 calculate Hann window table (variable window size) and
constants window-hz (fundamental frequency of analysis) \, window-sec
and window-msec (analysis window size in seconds and msec)., f 56
;
#X connect 1 0 2 0;
#X connect 2 0 3 0;
#X connect 3 0 4 0;
#X connect 5 0 14 0;
#X connect 6 0 8 0;
#X connect 6 0 12 0;
#X connect 7 0 6 1;
#X connect 7 0 9 1;
#X connect 9 0 10 0;
#X connect 9 1 10 1;
#X connect 10 0 11 0;
#X connect 12 0 13 0;
#X connect 14 0 6 0;
#X connect 14 0 9 0;
#X connect 14 1 7 0;
#X connect 14 2 15 0;
#X connect 15 0 16 0;
#X connect 17 0 19 0;
#X connect 18 0 1 1;
#X connect 19 0 1 0;
#X connect 19 1 4 0;
#X connect 19 1 18 0;
