#N canvas 92 117 450 300 12;
#X obj 123 24 inlet;
#X obj 123 72 - 0.5;
#X obj 124 143 clip 0 1;
#X obj 124 95 * -2;
#X obj 124 118 expr acos($f1)/3.14159;
#X obj 124 167 outlet;
#X obj 123 48 clip 0 1;
#X connect 0 0 6 0;
#X connect 1 0 3 0;
#X connect 2 0 5 0;
#X connect 3 0 4 0;
#X connect 4 0 2 0;
#X connect 6 0 1 0;
