#N canvas 419 238 768 522 12;
#N canvas 0 22 450 300 (subpatch) 0;
#X array han1000 1000 float 0;
#X coords 0 1 999 0 300 100 1 0 0;
#X restore 110 394 graph;
#X obj 377 185 osc~;
#X obj 377 210 *~ -0.5;
#X obj 377 234 +~ 0.5;
#X obj 205 205 samplerate~;
#X obj 87 251 swap;
#X obj 87 275 /;
#X obj 86 148 t f b f;
#X msg 205 155 resize \$1;
#X msg 402 155 0;
#X obj 329 151 t f b;
#X obj 86 113 jw.loadnum 1000;
#X obj 87 299 s \$0-window-hz;
#X obj 329 123 r \$0-window-hz;
#X obj 205 179 s han1000;
#X obj 360 277 tabwrite~ han1000;
#X connect 1 0 2 0;
#X connect 2 0 3 0;
#X connect 3 0 15 0;
#X connect 4 0 5 1;
#X connect 5 0 6 0;
#X connect 5 1 6 1;
#X connect 6 0 12 0;
#X connect 7 0 5 0;
#X connect 7 1 4 0;
#X connect 7 2 8 0;
#X connect 8 0 14 0;
#X connect 9 0 1 1;
#X connect 10 0 1 0;
#X connect 10 1 9 0;
#X connect 10 1 15 0;
#X connect 11 0 7 0;
#X connect 13 0 10 0;
