#N canvas 361 25 945 585.031 12;
#X obj 67 140 tgl 20 0 \$0-inxPlay \$0-inxPlayUI empty 17 7 0 10 #fcfcfc
#000000 #000000 0 1;
#X obj 335 110 r inxOSC;
#X obj 335 133 route list;
#X obj 335 156 route transport;
#X msg 335 202 1;
#X msg 386 202 0;
#X obj 67 284 r \$0-inxPlay;
#X obj 67 361 sel 1 0;
#X obj 335 229 s \$0-inxPlayUI;
#X obj 20 393 f 1;
#X floatatom 67 163 5 0 0 0 - - #0-inxGlobSpd, f 5;
#X obj 6 229 r \$0-inxGlobSpd;
#X obj 20 339 spigot;
#X text 18 140 play;
#X text 18 163 speed;
#X text 18 186 rewind;
#X obj 67 186 bng 20 250 50 0 \$0-rwnd empty empty 17 7 0 10 #fcfcfc
#000000 #000000;
#X obj 165 289 r \$0-rwnd;
#X obj 335 179 route play stop fastrewind;
#X msg 20 419 send /iannix/play \$1;
#X obj 20 476 s inxSendMsg;
#X msg 90 445 send /iannix/stop;
#X msg 138 390 send /iannix/fastrewind;
#X msg 354 409 send /iannix/goto \$1;
#X floatatom 181 140 5 0 0 0 - - #0-goto, f 5;
#X obj 430 350 r \$0-goto;
#X text 117 140 goto pos;
#X text 138 163 goto!;
#X obj 181 163 bng 20 250 50 0 \$0-goto! empty empty 17 7 0 10 #fcfcfc
#000000 #000000;
#X obj 415 328 r \$0-goto!;
#X obj 415 378 f;
#X obj 30 -65 inlet;
#X obj 75 -65 inlet;
#X obj 120 -65 inlet;
#X obj 165 -65 inlet;
#X obj 210 -65 inlet;
#X obj 18 116 cnv 15 201 21 empty empty IANNIX\ TRANSPORT 38 9 0 14
#e0e0e0 #404040 0;
#X obj 18 105 cnv 10 201 11 empty empty ply 0 2 0 8 #e0e0e0 #404040
0;
#X obj 60 105 cnv 10 42 11 empty empty spd 0 2 0 8 #e0e0e0 #404040
0;
#X obj 105 105 cnv 10 42 11 empty empty goto 0 2 0 8 #e0e0e0 #404040
0;
#X obj 156 105 cnv 10 42 11 empty empty goto! 0 2 0 8 #e0e0e0 #404040
0;
#X obj 200 105 cnv 10 19 11 empty empty rwnd 0 2 0 8 #e0e0e0 #404040
0;
#X obj 30 -41 r inxPlay;
#X obj 74 -18 r inxGlobSpd;
#X obj 110 30 r inxGoto!;
#X obj 96 5 r inxGoto;
#X obj 144 58 r inxRwnd;
#X obj 67 313 change;
#X obj 185 311 del 100;
#X obj 202 331 del 100;
#X obj 216 353 del 100;
#X obj 570 105 r inxOSC;
#X obj 570 134 route list;
#X obj 568 242 list prepend set;
#X obj 568 271 list trim;
#X symbolatom 119 186 13 0 0 0 - - -, f 13;
#X obj 570 163 route time;
#X obj 30 -90 jw.loadnum 1;
#X obj 6 258 sel 0;
#X connect 1 0 2 0;
#X connect 2 0 3 0;
#X connect 3 0 18 0;
#X connect 4 0 8 0;
#X connect 5 0 8 0;
#X connect 6 0 47 0;
#X connect 7 0 9 0;
#X connect 7 1 21 0;
#X connect 9 0 19 0;
#X connect 11 0 58 0;
#X connect 12 0 9 0;
#X connect 17 0 22 0;
#X connect 17 0 48 0;
#X connect 18 0 4 0;
#X connect 18 1 5 0;
#X connect 19 0 20 0;
#X connect 21 0 20 0;
#X connect 22 0 20 0;
#X connect 23 0 20 0;
#X connect 25 0 30 1;
#X connect 29 0 30 0;
#X connect 30 0 23 0;
#X connect 31 0 0 0;
#X connect 32 0 10 0;
#X connect 33 0 24 0;
#X connect 34 0 28 0;
#X connect 35 0 16 0;
#X connect 42 0 0 0;
#X connect 43 0 10 0;
#X connect 44 0 28 0;
#X connect 45 0 24 0;
#X connect 46 0 16 0;
#X connect 47 0 12 1;
#X connect 47 0 7 0;
#X connect 48 0 9 0;
#X connect 48 0 49 0;
#X connect 49 0 21 0;
#X connect 49 0 50 0;
#X connect 50 0 22 0;
#X connect 51 0 52 0;
#X connect 52 0 56 0;
#X connect 53 0 54 0;
#X connect 54 0 55 0;
#X connect 56 0 53 0;
#X connect 57 0 10 0;
#X connect 58 1 9 1;
#X connect 58 1 12 0;
#X coords 0 -1 1 1 207 107 2 15 102;
