#N canvas 81 70 1230 766.031 12;
#X obj 94 419 f;
#X floatatom 209 79 5 0 0 0 - - #0-inPort, f 5;
#X obj 139 382 r \$0-inPort;
#X obj 104 80 tgl 19 0 \$0-connect empty empty 17 7 0 10 #fcfcfc #000000
#000000 1 1;
#X obj 71 340 r \$0-connect;
#X obj 71 369 sel 0 1;
#X obj 94 485 oscparse;
#X obj 94 463 netreceive -u -b;
#X obj 169 536 print OSC;
#X obj 127 563 outlet;
#X obj 104 103 tgl 19 0 \$0-debug empty empty 17 7 0 10 #fcfcfc #000000
#000000 0 1;
#X text 51 80 connect;
#X text 65 102 debug;
#X text 125 79 from Iannix;
#X text 126 102 to Iannix;
#X floatatom 209 102 5 0 0 0 - - #0-outPort, f 5;
#X obj 169 513 spigot;
#X obj 209 490 r \$0-debug;
#X msg 94 441 listen \$1;
#X obj 398 541 netsend -u -b;
#X obj 398 442 f;
#X obj 375 363 r \$0-connect;
#X obj 375 392 sel 0 1;
#X msg 313 444 disconnect;
#X obj 443 405 r \$0-outPort;
#X msg 398 469 connect 127.0.0.1 \$1;
#X obj 603 299 t a;
#X obj 603 328 route send;
#X obj 603 357 t a a;
#X obj 603 386 list split 1;
#X obj 603 415 t a;
#X obj 603 444 oscformat;
#X obj 712 368 symbol;
#X msg 712 397 set \$1;
#X obj 603 473 list prepend send;
#X obj 603 502 list trim;
#X obj 47 55 cnv 15 202 21 empty empty IANNIX\ COMMS 55 8 0 14 #e0e0e0
#404040 0;
#X obj 63 563 s inxOSC;
#X obj 603 276 r inxSendMsg;
#X text 465 23 ARGUMENTS;
#X text 466 49 1 - autostart connections 0/1;
#X text 466 78 2 - receive port from Iannix;
#X text 466 107 3 - send port to Iannix;
#X obj 103 27 del 100;
#X obj 883 481 route list;
#X obj 883 457 r inxOSC;
#X obj 843 539 s inxCursors;
#X obj 934 540 outlet;
#X obj 883 505 route cursor;
#X obj 103 -2 jw.loadnum \$1;
#X obj 310 30 jw.loadnum \$3;
#X obj 279 55 jw.loadnum \$2;
#X connect 0 0 18 0;
#X connect 2 0 0 1;
#X connect 4 0 5 0;
#X connect 5 1 0 0;
#X connect 6 0 9 0;
#X connect 6 0 16 0;
#X connect 6 0 37 0;
#X connect 7 0 6 0;
#X connect 16 0 8 0;
#X connect 17 0 16 1;
#X connect 18 0 7 0;
#X connect 18 0 8 0;
#X connect 20 0 25 0;
#X connect 21 0 22 0;
#X connect 22 0 23 0;
#X connect 22 1 20 0;
#X connect 23 0 19 0;
#X connect 24 0 20 1;
#X connect 25 0 19 0;
#X connect 26 0 27 0;
#X connect 27 0 28 0;
#X connect 28 0 29 0;
#X connect 28 1 32 0;
#X connect 29 1 30 0;
#X connect 30 0 31 0;
#X connect 31 0 34 0;
#X connect 32 0 33 0;
#X connect 33 0 30 0;
#X connect 34 0 35 0;
#X connect 35 0 19 0;
#X connect 38 0 26 0;
#X connect 43 0 3 0;
#X connect 44 0 48 0;
#X connect 45 0 44 0;
#X connect 48 0 46 0;
#X connect 48 0 47 0;
#X connect 49 0 43 0;
#X connect 50 0 15 0;
#X connect 51 0 1 0;
#X coords 0 -1 1 1 207 72 2 45 53;
