#N canvas 495 25 450 300 12;
#X obj 13 103 samplerate~;
#X obj 13 71 loadbang;
#X obj 13 175 outlet;
#X obj 103 43 r \$0-fromDspTog;
#X obj 103 72 t b;
#X obj 62 15 inlet;
#X connect 0 0 2 0;
#X connect 1 0 0 0;
#X connect 3 0 4 0;
#X connect 4 0 0 0;
#X connect 5 0 0 0;
