#N canvas 466 202 789 572 12;
#X obj 113 10 inlet;
#X obj 159 62 f;
#X obj 95 97 -, f 7;
#X obj 95 123 /;
#X obj 403 289 t b;
#X obj 403 316 f;
#X obj 403 340 + 1;
#X obj 286 248 t b;
#X msg 286 272 0;
#X obj 144 226 sel 0;
#X obj 330 224 sel 0;
#X obj 95 147 abs;
#X obj 144 188 expr if($f1 < $f2 \, $f3 \, 0) \; if($f1 >= $f2 \, $f3
\, 0) \;;
#X obj 343 496 f;
#X obj 403 413 sel 1;
#X obj 237 75 f \$1;
#X obj 272 52 loadbang;
#X obj 237 10 inlet;
#X obj 428 10 inlet;
#X obj 176 536 s \$0-output;
#X obj 170 39 r \$0-output;
#X obj 519 173 r \$0-output;
#X obj 113 39 t f f b;
#X obj 403 365 > \$2;
#X obj 519 202 outlet;
#X floatatom 445 341 5 0 0 0 - - - 0;
#X obj 461 443 bng 15 250 50 0 empty empty empty 17 7 0 10 #fcfcfc
#000000 #000000;
#X obj 362 246 t b f;
#X connect 0 0 22 0;
#X connect 1 0 2 1;
#X connect 2 0 3 0;
#X connect 3 0 11 0;
#X connect 4 0 5 0;
#X connect 5 0 6 0;
#X connect 6 0 5 1;
#X connect 6 0 23 0;
#X connect 6 0 25 0;
#X connect 7 0 8 0;
#X connect 8 0 5 1;
#X connect 9 1 7 0;
#X connect 9 1 19 0;
#X connect 10 1 27 0;
#X connect 11 0 12 0;
#X connect 12 0 9 0;
#X connect 12 1 10 0;
#X connect 13 0 19 0;
#X connect 14 0 13 0;
#X connect 14 0 26 0;
#X connect 15 0 12 1;
#X connect 16 0 15 0;
#X connect 17 0 15 0;
#X connect 18 0 23 1;
#X connect 20 0 1 1;
#X connect 21 0 24 0;
#X connect 22 0 2 0;
#X connect 22 0 3 1;
#X connect 22 1 12 2;
#X connect 22 2 1 0;
#X connect 23 0 14 0;
#X connect 27 0 4 0;
#X connect 27 1 13 1;
