#N canvas 32 25 1408 801.062 12;
#X floatatom 766 264 5 0 1 0 - #0-setStart #0-start, f 5;
#X floatatom 806 264 5 0 1 0 - #0-setEnd #0-end, f 5;
#X floatatom 846 264 5 0 0 0 - #0-setSpeed #0-speed, f 5;
#X obj 700 266 tgl 15 0 \$0-loopTog \$0-setLoopTog empty 17 7 0 10
#ffffff #000000 #000000 1 1;
#X obj 56 252 spigot;
#X msg 56 274 1;
#X obj 728 266 bng 15 250 50 0 \$0-oneShot \$0-trigOneShot empty 17
7 0 10 #ffffff #000000 #000000;
#X obj 165 203 t b b;
#X msg 198 226 0;
#X msg 165 226 1;
#X obj 56 226 t b f;
#X obj 698 31 loadbang;
#X msg 694 58 1;
#X obj 929 266 bng 15 250 50 0 \$0-reset \$0-setReset empty 17 7 0
10 #fcfcfc #000000 #000000;
#X obj 767 31 r \$0-reset;
#X obj 693 82 s \$0-setSpeed;
#X obj 363 227 r \$0-speed;
#X obj 198 251 s \$0-setLoopTog;
#X obj 384 251 r \$0-bufID;
#X obj 1224 55 s \$0-bufID;
#X obj 654 31 inlet;
#X obj 37 58 s \$0-setLoopTog;
#X obj 36 34 inlet;
#X obj 1224 31 inlet;
#X obj 340 203 r \$0-end;
#X obj 318 178 r \$0-start;
#X obj 56 203 r \$0-loopTog;
#X obj 166 178 r \$0-oneShot;
#X obj 150 35 inlet;
#X obj 150 58 s \$0-trigOneShot;
#X obj 284 31 inlet;
#X obj 284 100 s \$0-setStart;
#X msg 327 62 0;
#X obj 327 31 loadbang;
#X obj 389 31 r \$0-reset;
#X obj 297 297 jw.playLoop~, f 16;
#X obj 469 31 inlet;
#X obj 512 31 loadbang;
#X obj 574 31 r \$0-reset;
#X msg 512 62 1;
#X obj 469 100 s \$0-setEnd;
#X obj 892 266 tgl 15 0 \$0-window \$0-setWindow empty 17 7 0 10 #fcfcfc
#000000 #000000 0 1;
#X obj 889 31 loadbang;
#X obj 958 31 r \$0-reset;
#X obj 845 31 inlet;
#X msg 885 58 0;
#X obj 884 82 s \$0-setWindow;
#X obj 297 374 outlet~;
#X obj 698 250 cnv 10 319 11 empty empty loop 0 2 0 8 #e0e0e0 #404040
0;
#X obj 724 250 cnv 10 35 11 empty empty oneshot 0 2 0 8 #e0e0e0 #404040
0;
#X obj 766 250 cnv 10 35 11 empty empty start 0 2 0 8 #e0e0e0 #404040
0;
#X obj 807 250 cnv 10 35 11 empty empty end 0 2 0 8 #e0e0e0 #404040
0;
#X obj 849 250 cnv 10 35 11 empty empty speed 0 2 0 8 #e0e0e0 #404040
0;
#X obj 880 250 cnv 10 35 11 empty empty smth\ win 0 2 0 8 #e0e0e0 #404040
0;
#X obj 927 250 cnv 10 35 11 empty empty reset 0 2 0 8 #e0e0e0 #404040
0;
#X obj 698 286 cnv 10 319 11 empty empty loop\ out~ 0 2 0 8 #e0e0e0
#404040 0;
#X obj 461 251 r \$0-window;
#X obj 1141 31 inlet;
#X obj 1142 119 s \$0-bufSR;
#X obj 440 227 r \$0-bufSR;
#X obj 1046 31 inlet;
#X obj 963 250 cnv 10 54 46 empty empty bufSR -1 3 0 8 #e0e0e0 #404040
0;
#X obj 993 250 cnv 10 19 11 empty empty bufID -1 3 0 8 #e0e0e0 #404040
0;
#X obj 1060 6 r pd-dsp-started;
#X obj 1029 81 s \$0-setReset;
#X obj 1142 90 unpack f f f f s;
#X obj 443 321 s \$0-loopTrig;
#X obj 36 179 r \$0-loopTrig;
#X obj 406 345 outlet;
#X connect 4 0 5 0;
#X connect 5 0 35 0;
#X connect 7 0 9 0;
#X connect 7 1 8 0;
#X connect 8 0 17 0;
#X connect 9 0 35 0;
#X connect 10 0 4 0;
#X connect 10 1 4 1;
#X connect 11 0 12 0;
#X connect 12 0 15 0;
#X connect 14 0 12 0;
#X connect 16 0 35 3;
#X connect 18 0 35 4;
#X connect 20 0 15 0;
#X connect 22 0 21 0;
#X connect 23 0 19 0;
#X connect 24 0 35 2;
#X connect 25 0 35 1;
#X connect 26 0 10 0;
#X connect 27 0 7 0;
#X connect 28 0 29 0;
#X connect 30 0 31 0;
#X connect 32 0 31 0;
#X connect 33 0 32 0;
#X connect 34 0 32 0;
#X connect 35 0 47 0;
#X connect 35 1 66 0;
#X connect 35 1 68 0;
#X connect 36 0 40 0;
#X connect 37 0 39 0;
#X connect 38 0 39 0;
#X connect 39 0 40 0;
#X connect 42 0 45 0;
#X connect 43 0 45 0;
#X connect 44 0 46 0;
#X connect 45 0 46 0;
#X connect 56 0 35 6;
#X connect 57 0 65 0;
#X connect 59 0 35 5;
#X connect 65 0 58 0;
#X connect 67 0 4 0;
#X coords 0 -1 1 1 323 52 2 696 247;
