#N canvas 92 117 1273 574 12;
#X obj 295 57 inlet;
#X obj 656 57 inlet;
#X text 295 33 Note;
#X text 659 36 vel;
#X obj 665 258 pipe;
#X obj 656 81 t f f;
#X obj 295 81 t f f;
#X obj 440 408 outlet;
#X obj 504 407 outlet;
#X obj 665 282 t f b;
#X msg 697 318 0;
#X connect 0 0 6 0;
#X connect 1 0 5 0;
#X connect 4 0 9 0;
#X connect 5 0 8 0;
#X connect 5 1 4 1;
#X connect 6 0 7 0;
#X connect 6 1 4 0;
#X connect 9 0 7 0;
#X connect 9 1 10 0;
#X connect 10 0 8 0;
