#N canvas 579 406 728 365 12;
#X obj 10 32 inlet;
#X obj 214 34 inlet;
#X obj 151 35 inlet;
#X text 10 10 on/off;
#X text 86 10 min out;
#X text 151 10 max out;
#X text 214 10 exponent;
#X obj 86 34 inlet;
#X obj 282 34 loadbang;
#X msg 10 91 all \$1;
#X msg 86 91 all \$1;
#X msg 151 91 all \$1;
#X msg 214 91 all \$1;
#X obj 86 63 f \$1;
#X obj 151 65 f \$2;
#X obj 214 63 f \$3;
#X obj 10 242 outlet;
#X obj 64 242 outlet;
#X obj 119 242 outlet;
#X text 12 271 trig;
#X text 63 271 0-1;
#X text 118 271 min-max;
#X obj 10 127 clone jw.dust 5;
#X obj 60 156 unpack;
#X obj 110 156 unpack;
#X obj 10 156 t b;
#X connect 0 0 9 0;
#X connect 1 0 15 0;
#X connect 2 0 14 0;
#X connect 7 0 13 0;
#X connect 8 0 13 0;
#X connect 8 0 14 0;
#X connect 8 0 15 0;
#X connect 9 0 22 0;
#X connect 10 0 22 1;
#X connect 11 0 22 2;
#X connect 12 0 22 3;
#X connect 13 0 10 0;
#X connect 14 0 11 0;
#X connect 15 0 12 0;
#X connect 22 0 25 0;
#X connect 22 1 23 0;
#X connect 22 2 24 0;
#X connect 23 1 17 0;
#X connect 24 1 18 0;
#X connect 25 0 16 0;
