#N canvas 495 25 577 368 12;
#X obj 19 27 inlet;
#X obj 19 56 clip \$1 \$2;
#X obj 421 56 loadbang;
#X obj 177 92 f \$1;
#X obj 221 92 f \$2;
#X obj 221 155 -;
#X obj 177 114 t b f;
#X obj 177 56 inlet;
#X obj 221 56 inlet;
#X obj 312 56 inlet;
#X obj 356 56 inlet;
#X obj 177 208 s \$0-inLo;
#X text 63 28 ARGUMENTS: inLo \, inHi \, outLo \, outHi;
#X obj 221 178 s \$0-inDiff;
#X obj 356 157 -;
#X obj 312 210 s \$0-outLo;
#X obj 356 180 s \$0-outDiff;
#X obj 20 312 expr ((($f1-$f2)/$f3) * $f5) + $f4, f 50;
#X obj 106 288 r \$0-inLo;
#X obj 193 288 r \$0-inDiff;
#X obj 280 288 r \$0-outLo;
#X obj 367 288 r \$0-outDiff;
#X obj 20 341 outlet;
#X obj 312 123 t b f;
#X obj 312 94 f \$3;
#X obj 356 94 f \$4;
#X connect 0 0 1 0;
#X connect 1 0 17 0;
#X connect 2 0 3 0;
#X connect 2 0 4 0;
#X connect 2 0 24 0;
#X connect 2 0 25 0;
#X connect 3 0 6 0;
#X connect 4 0 5 0;
#X connect 5 0 13 0;
#X connect 6 0 5 0;
#X connect 6 1 5 1;
#X connect 6 1 11 0;
#X connect 7 0 3 0;
#X connect 8 0 4 0;
#X connect 9 0 24 0;
#X connect 10 0 25 0;
#X connect 14 0 16 0;
#X connect 17 0 22 0;
#X connect 18 0 17 1;
#X connect 19 0 17 2;
#X connect 20 0 17 3;
#X connect 21 0 17 4;
#X connect 23 0 14 0;
#X connect 23 1 15 0;
#X connect 23 1 14 1;
#X connect 24 0 23 0;
#X connect 25 0 14 0;
