#N canvas 495 25 768 591 12;
#X obj 19 27 inlet;
#X obj 19 56 clip \$1 \$2;
#X obj 421 56 loadbang;
#X obj 177 92 f \$1;
#X obj 221 92 f \$2;
#X obj 221 155 -;
#X obj 177 114 t b f;
#X obj 177 56 inlet;
#X obj 221 56 inlet;
#X obj 312 56 inlet;
#X obj 356 56 inlet;
#X obj 177 208 s \$0-inLo;
#X text 63 28 ARGUMENTS: inLo \, inHi \, outLo \, outHi;
#X obj 221 178 s \$0-inDiff;
#X obj 356 157 -;
#X obj 312 210 s \$0-outLo;
#X obj 356 180 s \$0-outDiff;
#X obj 193 288 r \$0-inLo;
#X obj 367 288 r \$0-inDiff;
#X obj 312 123 t b f;
#X obj 312 94 f \$3;
#X obj 356 94 f \$4;
#X obj 193 388 r \$0-outLo;
#X obj 367 388 r \$0-outDiff;
#X obj 20 312 expr ((($f1-$f2)/$f3)), f 50;
#X obj 20 356 pow \$5;
#X obj 20 412 expr ($f1 * $f3) + $f2, f 50;
#X obj 20 436 clip \$3 \$4;
#X obj 20 460 outlet;
#X connect 0 0 1 0;
#X connect 1 0 24 0;
#X connect 2 0 3 0;
#X connect 2 0 4 0;
#X connect 2 0 20 0;
#X connect 2 0 21 0;
#X connect 3 0 6 0;
#X connect 4 0 5 0;
#X connect 5 0 13 0;
#X connect 6 0 5 0;
#X connect 6 1 5 1;
#X connect 6 1 11 0;
#X connect 7 0 3 0;
#X connect 8 0 4 0;
#X connect 9 0 20 0;
#X connect 10 0 21 0;
#X connect 14 0 16 0;
#X connect 17 0 24 1;
#X connect 18 0 24 2;
#X connect 19 0 14 0;
#X connect 19 1 15 0;
#X connect 19 1 14 1;
#X connect 20 0 19 0;
#X connect 21 0 14 0;
#X connect 22 0 26 1;
#X connect 23 0 26 2;
#X connect 24 0 25 0;
#X connect 25 0 26 0;
#X connect 26 0 27 0;
#X connect 27 0 28 0;
