#N canvas 495 25 450 300 12;
#X obj 40 109 list fromsymbol;
#X obj 40 217 list tosymbol;
#X obj 122 136 list length;
#X obj 122 165 - 1;
#X msg 40 80 symbol \$1^;
#X obj 13 26 inlet;
#X obj 13 290 outlet;
#X obj 40 188 list split;
#X connect 0 0 2 0;
#X connect 0 0 7 0;
#X connect 1 0 6 0;
#X connect 2 0 3 0;
#X connect 3 0 7 1;
#X connect 4 0 0 0;
#X connect 5 0 4 0;
#X connect 7 0 1 0;
