#N canvas 450 63 978 656.031 12;
#X obj 132 383 oscparse;
#X obj 186 435 print OSC;
#X obj 186 413 spigot;
#X obj 132 435 outlet;
#X obj 101 15 inlet;
#X obj 303 68 f \$2;
#X obj 132 361 netreceive -u -b;
#X text 74 188 listen to port;
#X floatatom 193 188 10 0 0 0 - - -, f 10;
#X text 74 212 print OSC input;
#X obj 193 213 tgl 15 0 empty empty empty 17 7 0 10 #fcfcfc #000000
#000000 0 1;
#X obj 193 166 tgl 15 0 empty empty empty 17 7 0 10 #fcfcfc #000000
#000000 0 1;
#X text 74 164 receive messages;
#X obj 99 48 loadbang;
#X msg 132 339 listen \$1;
#X msg 100 313 0;
#X obj 100 289 sel 0 1;
#X obj 135 312 f;
#X obj 303 92 f \$3;
#X obj 304 44 f \$1;
#X text 346 44 1 receive on/off by default;
#X text 372 68 2 listen to port;
#X text 347 93 3 print messages by default;
#X text 260 14 ARGUMENTS: receive(0/1) \, Port \, Print(0/1);
#X obj 143 15 inlet;
#X obj 185 15 inlet;
#X obj 72 129 cnv 10 196 11 empty empty rcvMsgs 0 2 0 8 #e0e0e0 #404040
0;
#X obj 156 129 cnv 10 62 11 empty empty port 0 2 0 8 #e0e0e0 #404040
0;
#X obj 232 129 cnv 10 35 11 empty empty print 10 2 0 8 #e0e0e0 #404040
0;
#X obj 72 140 cnv 15 196 22 empty empty OSC\ in 73 8 0 14 #e0e0e0 #404040
0;
#X obj 72 234 cnv 10 196 11 empty empty OSC\ messages 0 2 0 8 #e0e0e0
#404040 0;
#X connect 0 0 2 0;
#X connect 0 0 3 0;
#X connect 2 0 1 0;
#X connect 4 0 19 0;
#X connect 5 0 8 0;
#X connect 6 0 0 0;
#X connect 8 0 17 0;
#X connect 10 0 2 1;
#X connect 11 0 16 0;
#X connect 13 0 19 0;
#X connect 13 0 5 0;
#X connect 13 0 18 0;
#X connect 14 0 6 0;
#X connect 15 0 14 0;
#X connect 16 0 15 0;
#X connect 16 1 17 0;
#X connect 17 0 14 0;
#X connect 18 0 10 0;
#X connect 19 0 11 0;
#X connect 24 0 5 0;
#X connect 25 0 18 0;
#X coords 0 -1 1 1 200 122 2 70 126;
