#N canvas 224 150 505 300 12;
#X obj 138 39 inlet;
#X obj 243 39 inlet;
#X obj 70 126 *~;
#X obj 138 78 f \$1;
#X obj 243 78 f \$2;
#X obj 342 39 inlet;
#X obj 342 78 f \$3;
#X obj 426 39 loadbang;
#X obj 70 170 osc~;
#X obj 70 211 *~;
#X obj 70 240 outlet~;
#X obj 17 39 inlet~;
#X text 17 14 FREQ;
#X text 138 14 FREQ MUL;
#X text 243 14 PHASE;
#X text 342 15 AMP;
#X text 127 240 PARTIAL SIGNAL~;
#X connect 0 0 3 0;
#X connect 1 0 4 0;
#X connect 2 0 8 0;
#X connect 3 0 2 1;
#X connect 4 0 8 1;
#X connect 5 0 6 0;
#X connect 6 0 9 1;
#X connect 7 0 6 0;
#X connect 7 0 4 0;
#X connect 7 0 3 0;
#X connect 8 0 9 0;
#X connect 9 0 10 0;
#X connect 11 0 2 0;
