#N canvas 273 126 908 627 12;
#X obj 22 50 inlet~;
#X obj 329 50 inlet;
#X obj 124 164 expr cos($f1 * 3.14159 / 2);
#X obj 329 164 expr sin($f1 * 3.14159 / 2);
#X obj 329 109 clip 0 1;
#X msg 124 186 \$1 15;
#X msg 329 188 \$1 15;
#X obj 124 207 line~;
#X obj 329 210 line~;
#X obj 21 278 *~;
#X obj 92 278 *~;
#X obj 21 309 outlet~;
#X text 22 25 SIG;
#X text 331 27 Pan 0-1 (L-R);
#X obj 92 309 outlet~;
#X obj 505 56 loadbang;
#X obj 329 79 f \$1;
#X connect 0 0 9 0;
#X connect 0 0 10 0;
#X connect 1 0 16 0;
#X connect 2 0 5 0;
#X connect 3 0 6 0;
#X connect 4 0 3 0;
#X connect 4 0 2 0;
#X connect 5 0 7 0;
#X connect 6 0 8 0;
#X connect 7 0 9 1;
#X connect 8 0 10 1;
#X connect 9 0 11 0;
#X connect 10 0 14 0;
#X connect 15 0 16 0;
#X connect 16 0 4 0;
