#N canvas 16 25 1408 847.031 12;
#X floatatom 164 335 5 0 0 0 - #0-setPlaybackSpeed #0-playbackSpeed
, f 5;
#X floatatom 282 335 5 0 0 0 - #0-setTranspose #0-transpose, f 5;
#X obj 164 357 bng 19 250 50 0 \$0-rwnd \$0-setRwnd empty 17 7 0 10
#fcfcfc #000000 #000000;
#N canvas 704 274 700 483 hannWindow 0;
#N canvas 0 22 450 300 (subpatch) 0;
#X array \$0-hann 1024 float 0 black black;
#X coords 0 1 1023 0 300 100 1;
#X restore 67 304 graph;
#X obj 284 94 osc~;
#X obj 284 119 *~ -0.5;
#X obj 284 143 +~ 0.5;
#X obj 267 186 tabwrite~ \$0-hann;
#X obj 114 147 /;
#X obj 132 115 samplerate~;
#X obj 24 161 swap;
#X obj 24 185 /;
#X obj 125 175 * 1000;
#X obj 43 58 t f b f;
#X msg 132 65 resize \$1;
#X obj 132 89 s \$0-hann;
#X msg 309 64 0;
#X obj 236 60 t f b;
#X obj 43 3 r \$0-window-size;
#X obj 236 32 r \$0-window-hz;
#X obj 24 249 s \$0-window-hz;
#X obj 114 225 s \$0-window-sec;
#X obj 125 202 s \$0-window-msec;
#X obj 43 32 pipe 5;
#X connect 1 0 2 0;
#X connect 2 0 3 0;
#X connect 3 0 4 0;
#X connect 5 0 9 0;
#X connect 5 0 18 0;
#X connect 6 0 5 1;
#X connect 6 0 7 1;
#X connect 7 0 8 0;
#X connect 7 1 8 1;
#X connect 8 0 17 0;
#X connect 9 0 19 0;
#X connect 10 0 5 0;
#X connect 10 0 7 0;
#X connect 10 1 6 0;
#X connect 10 2 11 0;
#X connect 11 0 12 0;
#X connect 13 0 1 1;
#X connect 14 0 1 0;
#X connect 14 1 4 0;
#X connect 14 1 13 0;
#X connect 15 0 20 0;
#X connect 16 0 14 0;
#X connect 20 0 10 0;
#X restore 965 122 pd hannWindow;
#N canvas 61 25 625 847.969 pvocGuts 0;
#X text 61 284 This a clone of the 'I-08' Pd helpfile phase vocoder
example.;
#N canvas 32 25 1407 847.969 readFromBuffers 0;
#X obj 18 149 t f b;
#X obj 18 198 /;
#X obj 50 173 samplerate~;
#X obj 18 227 * 1000;
#X text 18 95 Get no. ms in window;
#X obj 18 256 / 4;
#X text 67 226 get duration of each overlap (pvoc will use 4), f 17
;
#X obj 18 285 s \$0-ovlpDur;
#X obj 72 817 outlet~;
#X obj 322 817 outlet~;
#X obj 72 791 *~;
#X obj 322 791 *~;
#X obj 72 745 tabread4~;
#X obj 1112 112 f;
#X obj 196 702 r \$0-setBuf;
#N canvas 0 22 450 300 bufMsgs 0;
#X obj 279 106 s \$0-setBuf;
#X msg 279 80 set \$1-array;
#X obj 148 126 array size;
#X obj 148 103 t b s;
#X msg 148 80 symbol \$1-array;
#X obj 130 185 f;
#X obj 130 152 r \$0-trig;
#X obj 40 214 s \$0-bufLenSamps;
#X obj 160 214 t f b;
#X obj 160 263 /;
#X obj 192 238 samplerate~;
#X obj 160 292 * 1000;
#X obj 160 321 s \$0-bufLenMs;
#X obj 13 26 inlet;
#X obj 63 26 inlet;
#X connect 1 0 0 0;
#X connect 2 0 5 0;
#X connect 3 0 2 0;
#X connect 3 1 2 1;
#X connect 4 0 3 0;
#X connect 5 0 7 0;
#X connect 5 0 8 0;
#X connect 6 0 5 0;
#X connect 8 0 9 0;
#X connect 8 1 10 0;
#X connect 9 0 11 0;
#X connect 10 0 9 1;
#X connect 11 0 12 0;
#X connect 13 0 4 0;
#X connect 14 0 1 0;
#X restore 1112 139 pd bufMsgs;
#X text 1112 162 format 'setbuf' messages & get length of sample,
f 25;
#X obj 322 745 tabread4~;
#X obj 72 641 -~;
#X obj 90 588 / 4;
#X text 117 627 back window is 1/4 cycle behind the front one, f 15
;
#X obj 322 550 line~;
#X msg 322 526 \$1 \, \$2 \$3;
#X obj 90 564 r \$0-stretchWinSize;
#X obj 322 502 pack 0 0 0;
#X obj 389 480 r \$0-ovlpDur;
#X obj 441 87 r \$0-speed;
#X obj 518 87 r \$0-ovlpDur;
#X obj 322 85 bang~;
#X obj 322 149 f;
#X obj 340 116 r \$0-location;
#X obj 367 149 +;
#X text 483 117 increment location according to 'speed' param, f 19
;
#X obj 322 181 t f b;
#X obj 354 204 samplerate~;
#X obj 354 227 / 1000;
#X obj 322 250 *;
#X obj 322 419 -;
#X obj 322 448 t f f;
#X obj 354 474 +;
#X text 241 420 back up 1/2 window, f 10;
#X text 237 218 get reading location in samples, f 11;
#X obj 749 91 r \$0-trans;
#X obj 749 120 + 69;
#X obj 749 149 mtof;
#X obj 749 178 / 440;
#X obj 749 207 * 1;
#X obj 717 233 jw.**;
#X obj 340 397 / 2;
#X obj 716 259 s \$0-stretchWinSize;
#X obj 372 371 r \$0-stretchWinSize;
#X obj 895 91 r \$0-rewind;
#X obj 895 150 f;
#X obj 913 126 r \$0-stretchWinSize;
#X obj 895 179 t f b;
#X obj 895 232 /;
#X obj 927 203 samplerate~;
#X obj 895 261 * 1000;
#X obj 895 290 * -0.5;
#X obj 895 319 s \$0-location;
#X obj 322 328 %;
#X obj 340 304 r \$0-bufLenSamps;
#X text 237 304 wrap to sample length, f 9;
#X obj 1112 86 r \$0-bufID;
#X obj 165 744 tabreceive~ \$0-hann;
#X obj 18 120 r \$0-window-size;
#X obj 625 207 r \$0-window-size;
#X obj 441 116 jw.**;
#X connect 0 0 1 0;
#X connect 0 1 2 0;
#X connect 1 0 3 0;
#X connect 2 0 1 1;
#X connect 3 0 5 0;
#X connect 5 0 7 0;
#X connect 10 0 8 0;
#X connect 11 0 9 0;
#X connect 12 0 10 0;
#X connect 13 0 15 0;
#X connect 13 0 15 1;
#X connect 14 0 12 0;
#X connect 14 0 17 0;
#X connect 17 0 11 0;
#X connect 18 0 12 0;
#X connect 19 0 18 1;
#X connect 21 0 18 0;
#X connect 21 0 17 0;
#X connect 22 0 21 0;
#X connect 23 0 19 0;
#X connect 24 0 22 0;
#X connect 25 0 24 2;
#X connect 26 0 67 0;
#X connect 27 0 67 1;
#X connect 28 0 29 0;
#X connect 29 0 31 0;
#X connect 29 0 33 0;
#X connect 30 0 29 1;
#X connect 31 0 29 1;
#X connect 33 0 36 0;
#X connect 33 1 34 0;
#X connect 34 0 35 0;
#X connect 35 0 36 1;
#X connect 36 0 60 0;
#X connect 37 0 38 0;
#X connect 38 0 24 0;
#X connect 38 1 39 0;
#X connect 39 0 24 1;
#X connect 42 0 43 0;
#X connect 43 0 44 0;
#X connect 44 0 45 0;
#X connect 45 0 46 0;
#X connect 46 0 47 1;
#X connect 47 0 49 0;
#X connect 48 0 37 1;
#X connect 50 0 48 0;
#X connect 50 0 39 1;
#X connect 51 0 52 0;
#X connect 52 0 54 0;
#X connect 53 0 52 1;
#X connect 54 0 55 0;
#X connect 54 1 56 0;
#X connect 55 0 57 0;
#X connect 56 0 55 1;
#X connect 57 0 58 0;
#X connect 58 0 59 0;
#X connect 60 0 37 0;
#X connect 61 0 60 1;
#X connect 63 0 13 0;
#X connect 64 0 11 1;
#X connect 64 0 10 1;
#X connect 65 0 0 0;
#X connect 66 0 47 0;
#X connect 67 0 31 1;
#X restore 301 -487 pd readFromBuffers;
#X obj 7 -693 inlet;
#X obj 7 -664 s \$0-speed;
#X obj 106 -694 inlet;
#X obj 106 -665 s \$0-trans;
#X obj 201 -694 inlet;
#X obj 201 -665 s \$0-rewind;
#X obj 61 254 outlet~;
#X obj 456 -640 r \$0-window-size;
#X obj 455 -695 inlet;
#X obj 455 -666 s \$0-window-size;
#X msg 456 -611 set \$1 4;
#X obj 456 -582 block~;
#X obj 61 150 *~;
#X obj 61 225 *~;
#X obj 91 150 tabreceive~ \$0-hann;
#X obj 79 177 r \$0-window-size;
#X obj 79 201 expr 2/(3*$f1);
#X obj 61 121 rifft~;
#X obj 301 -448 rfft~;
#X obj 424 -28 rfft~;
#X obj 7 -605 tabreceive~ \$0-prevReal;
#X obj 181 -605 tabreceive~ \$0-prevImag;
#N canvas 0 22 450 300 phaseTables 0;
#N canvas 0 22 450 300 (subpatch) 0;
#X array \$0-prevImag 4096 float 0 black black;
#X coords 0 1000 4095 -1000 317 131 1;
#X restore 40 80 graph;
#N canvas 0 22 450 300 (subpatch) 0;
#X array \$0-prevReal 4096 float 0 black black;
#X coords 0 500 4095 -500 317 131 1;
#X restore 40 220 graph;
#X restore 456 -533 pd phaseTables;
#X obj 225 -562 *~;
#X obj 299 -562 *~;
#X obj 225 -537 +~;
#X obj 225 -512 +~ 1e-20;
#X obj 225 -487 q8_rsqrt~;
#X obj 61 -448 *~;
#X obj 181 -448 *~;
#X obj 61 -366 *~;
#X obj 90 -366 *~;
#X obj 221 -366 *~;
#X obj 250 -366 *~;
#X obj 61 -327 +~;
#X obj 221 -327 -~;
#X obj 83 -283 lrshift~ 1;
#X obj 73 -260 lrshift~ -1;
#X obj 83 -219 *~;
#X obj 259 -282 lrshift~ 1;
#X obj 249 -259 lrshift~ -1;
#X obj 259 -218 *~;
#X obj 349 -258 r \$0-lock;
#X obj 296 -694 inlet;
#X obj 296 -665 s \$0-lock;
#X obj 61 -193 +~;
#X obj 221 -193 +~;
#X obj 61 -162 +~ 1e-15;
#X obj 186 -109 *~;
#X obj 221 -109 *~;
#X obj 186 -85 +~;
#X obj 186 -61 q8_rsqrt~;
#X obj 61 -28 *~;
#X obj 90 -28 *~;
#X obj 61 21 *~;
#X obj 90 21 *~;
#X obj 161 21 *~;
#X obj 190 21 *~;
#X obj 61 50 -~;
#X obj 161 50 +~;
#X obj 161 92 tabsend~ \$0-prevImag;
#X obj 161 121 tabsend~ \$0-prevReal;
#X obj 474 -384 jw.waveScope~;
#X connect 1 0 20 0;
#X connect 1 0 64 0;
#X connect 1 1 21 0;
#X connect 2 0 3 0;
#X connect 4 0 5 0;
#X connect 6 0 7 0;
#X connect 9 0 12 0;
#X connect 10 0 11 0;
#X connect 12 0 13 0;
#X connect 14 0 15 0;
#X connect 15 0 8 0;
#X connect 16 0 14 1;
#X connect 17 0 18 0;
#X connect 18 0 15 1;
#X connect 19 0 14 0;
#X connect 20 0 32 1;
#X connect 20 0 34 1;
#X connect 20 1 33 1;
#X connect 20 1 35 1;
#X connect 21 0 56 1;
#X connect 21 0 59 1;
#X connect 21 1 57 1;
#X connect 21 1 58 1;
#X connect 22 0 25 0;
#X connect 22 0 25 1;
#X connect 22 0 30 0;
#X connect 23 0 26 0;
#X connect 23 0 26 1;
#X connect 23 0 31 0;
#X connect 25 0 27 0;
#X connect 26 0 27 1;
#X connect 27 0 28 0;
#X connect 28 0 29 0;
#X connect 29 0 31 1;
#X connect 29 0 30 1;
#X connect 30 0 32 0;
#X connect 30 0 35 0;
#X connect 31 0 33 0;
#X connect 31 0 34 0;
#X connect 32 0 36 0;
#X connect 33 0 36 1;
#X connect 34 0 37 0;
#X connect 35 0 37 1;
#X connect 36 0 38 0;
#X connect 36 0 39 0;
#X connect 36 0 47 0;
#X connect 37 0 41 0;
#X connect 37 0 42 0;
#X connect 37 0 48 0;
#X connect 38 0 40 0;
#X connect 39 0 40 0;
#X connect 40 0 47 1;
#X connect 41 0 43 0;
#X connect 42 0 43 0;
#X connect 43 0 48 1;
#X connect 44 0 43 1;
#X connect 44 0 40 1;
#X connect 45 0 46 0;
#X connect 47 0 49 0;
#X connect 48 0 51 0;
#X connect 48 0 51 1;
#X connect 48 0 55 0;
#X connect 49 0 50 0;
#X connect 49 0 50 1;
#X connect 49 0 54 0;
#X connect 50 0 52 0;
#X connect 51 0 52 1;
#X connect 52 0 53 0;
#X connect 53 0 55 1;
#X connect 53 0 54 1;
#X connect 54 0 56 0;
#X connect 54 0 58 0;
#X connect 55 0 57 0;
#X connect 55 0 59 0;
#X connect 56 0 60 0;
#X connect 57 0 60 1;
#X connect 58 0 61 0;
#X connect 59 0 61 1;
#X connect 60 0 63 0;
#X connect 60 0 19 0;
#X connect 61 0 62 0;
#X connect 61 0 19 1;
#X restore 580 288 pd pvocGuts;
#X floatatom 282 379 5 3 16 0 - #0-setWinSize #0-winSize, f 5;
#X obj 882 11 inlet;
#X obj 261 11 inlet;
#X obj 261 95 s \$0-setPlaybackSpeed;
#X obj 421 11 inlet;
#X obj 421 95 s \$0-setFreeze;
#X obj 282 313 tgl 19 0 \$0-freeze \$0-setFreeze empty 17 7 0 10 #fcfcfc
#000000 #000000 0 1;
#X obj 164 313 tgl 19 0 \$0-play \$0-setPlay empty 17 7 0 10 #fcfcfc
#000000 #000000 1 1;
#X text 95 313 play/stop;
#X obj 154 11 inlet;
#X obj 154 95 s \$0-setPlay;
#X text 205 313 freeze;
#X text 95 335 speed;
#X obj 163 127 r \$0-playbackSpeed;
#X obj 163 156 change;
#X obj 163 185 == 0;
#X obj 163 214 sel 1 0;
#X msg 163 243 0;
#X msg 196 243 1;
#X obj 95 402 jw.volCtlSlim~;
#X obj 664 290 r \$0-play;
#X msg 664 319 \$1 25;
#X obj 664 348 line~;
#X obj 580 325 *~;
#N canvas 0 22 450 300 play/pause/playbackSpeed 0;
#X obj 162 80 r \$0-playbackSpeed;
#X obj 162 135 f;
#X obj 215 134 sel 0;
#X obj 247 157 t 0;
#X obj 215 107 r \$0-freeze;
#X obj 40 109 r \$0-play;
#X obj 40 138 sel 1 0;
#X obj 110 186 f;
#X obj 138 186 t 0;
#X obj 110 218 outlet;
#X connect 0 0 1 0;
#X connect 1 0 7 0;
#X connect 2 0 1 0;
#X connect 2 1 3 0;
#X connect 3 0 7 0;
#X connect 4 0 2 0;
#X connect 5 0 6 0;
#X connect 6 0 7 0;
#X connect 6 1 8 0;
#X connect 7 0 9 0;
#X connect 8 0 9 0;
#X restore 404 190 pd play/pause/playbackSpeed;
#X obj 250 157 t 0;
#X obj 882 95 s \$0-bufID;
#X text 205 335 transpose;
#X obj 497 217 r \$0-transpose;
#X obj 537 11 inlet;
#X obj 537 95 s \$0-setTranspose;
#X obj 668 11 inlet;
#X obj 668 95 s \$0-setRwnd;
#X text 95 357 rewind;
#X obj 164 379 tgl 19 0 \$0-lck \$0-setLck empty 17 7 0 10 #fcfcfc
#000000 #000000 0 1;
#X text 95 379 lock;
#X obj 761 11 inlet;
#X obj 761 95 s \$0-setLck;
#X obj 607 191 r \$0-rwnd;
#X obj 618 215 r \$0-lck;
#X obj 965 95 s \$0-setWinSize;
#X obj 965 11 inlet;
#N canvas 993 159 450 300 winSize 0;
#X obj 96 134 pow;
#X obj 96 110 t 2 f;
#X obj 96 80 r \$0-winSize;
#X obj 69 207 outlet;
#X connect 0 0 3 0;
#X connect 1 0 0 0;
#X connect 1 1 0 1;
#X connect 2 0 1 0;
#X restore 685 191 pd winSize;
#X text 205 357 window size;
#X text 205 379 pow 2 :;
#X obj 94 287 cnv 10 227 11 empty empty pl 0 2 0 8 #e0e0e0 #404040
0;
#X obj 95 427 cnv 10 226 11 empty empty out~ 0 2 0 8 #e0e0e0 #404040
0;
#X obj 94 297 cnv 15 227 15 empty empty Phase\ Vocoder 62 5 0 14 #e0e0e0
#404040 0;
#X obj 125 287 cnv 10 28 11 empty empty sp 0 2 0 8 #e0e0e0 #404040
0;
#X obj 156 287 cnv 10 28 11 empty empty fr 0 2 0 8 #e0e0e0 #404040
0;
#X obj 187 287 cnv 10 28 11 empty empty tr 0 2 0 8 #e0e0e0 #404040
0;
#X obj 218 287 cnv 10 28 11 empty empty rw 0 2 0 8 #e0e0e0 #404040
0;
#X obj 249 287 cnv 10 28 11 empty empty lk 0 2 0 8 #e0e0e0 #404040
0;
#X obj 310 287 cnv 10 11 11 empty empty wn 0 2 0 8 #e0e0e0 #404040
0;
#X obj 280 287 cnv 10 28 11 empty empty bf 0 2 0 8 #e0e0e0 #404040
0;
#X obj 95 452 outlet~;
#X obj 136 42 == 0;
#X obj 136 64 expr 1-$f1;
#X obj 67 40 s \$0-vol;
#X obj 425 376 r \$0-vol;
#X obj 281 480 jw.waveScope~;
#X obj 986 36 jw.loadnum 10;
#X obj 319 36 jw.loadnum 1;
#X obj 183 36 jw.loadnum 0;
#X floatatom 419 246 5 0 0 0 - - -, f 5;
#X floatatom 497 246 5 0 0 0 - - -, f 5;
#X floatatom 618 244 5 0 0 0 - - -, f 5;
#X floatatom 685 220 5 0 0 0 - - -, f 5;
#X obj 555 503 jw.waveScope~;
#X obj 18 339 switch~;
#X obj 18 314 r \$0-play;
#X connect 4 0 28 0;
#X connect 6 0 31 0;
#X connect 7 0 8 0;
#X connect 9 0 10 0;
#X connect 14 0 61 0;
#X connect 14 0 63 0;
#X connect 18 0 19 0;
#X connect 18 0 30 0;
#X connect 19 0 20 0;
#X connect 20 0 21 0;
#X connect 21 0 22 0;
#X connect 21 1 23 0;
#X connect 22 0 12 0;
#X connect 23 0 12 0;
#X connect 24 0 60 0;
#X connect 25 0 26 0;
#X connect 26 0 27 0;
#X connect 27 0 28 1;
#X connect 27 0 73 0;
#X connect 28 0 24 0;
#X connect 28 0 65 0;
#X connect 29 0 4 0;
#X connect 29 0 69 0;
#X connect 30 0 11 0;
#X connect 33 0 4 1;
#X connect 33 0 70 0;
#X connect 34 0 35 0;
#X connect 36 0 37 0;
#X connect 41 0 42 0;
#X connect 43 0 4 2;
#X connect 44 0 4 3;
#X connect 44 0 71 0;
#X connect 46 0 45 0;
#X connect 47 0 4 4;
#X connect 47 0 72 0;
#X connect 61 0 62 0;
#X connect 62 0 15 0;
#X connect 64 0 24 2;
#X connect 66 0 45 0;
#X connect 67 0 8 0;
#X connect 68 0 15 0;
#X connect 68 0 10 0;
#X connect 68 0 35 0;
#X connect 68 0 42 0;
#X connect 75 0 74 0;
#X coords 0 -1 1 1 234 158 2 91 283;
