#N canvas 588 -1055 1118 847 12;
#X obj 85 719 vline~;
#X obj 85 802 tabread4~;
#X obj 215 768 vline~;
#X obj 177 832 *~;
#X text 291 4 Speed;
#X text 93 4 Start (0-1);
#X obj 574 29 inlet;
#X text 573 4 Buffer Name;
#X obj 490 151 array size;
#X obj 177 856 outlet~;
#X obj 490 128 t b s;
#X obj 490 175 s \$0-bufSize;
#X obj 639 855 outlet;
#X obj 93 28 inlet;
#X obj 184 28 inlet;
#X obj 21 30 inlet;
#X text 15 3 Trigger;
#X obj 53 145 s \$0-trig;
#X obj 639 766 r \$0-trig;
#X obj 93 263 s \$0-dur;
#X obj 639 790 del;
#X text 690 855 bang when done;
#X text 96 855 Grain out;
#X obj 291 28 inlet;
#X obj 13 359 f;
#X obj 73 359 f;
#X obj 233 359 f;
#X obj 233 383 > 0;
#X obj 13 389 pack, f 9;
#X msg 273 407 1 \$1;
#X obj 273 432 -;
#X obj 13 456 spigot;
#X obj 131 456 spigot;
#X obj 13 509 unpack f f;
#X obj 131 509 unpack f f;
#X obj 86 628 pack f f f;
#N canvas 392 22 216 211 bufRange 0;
#X obj 95 143 *;
#X obj 30 17 inlet;
#X obj 94 176 outlet;
#X obj 95 42 t b f;
#X obj 95 18 r \$0-bufSize;
#X connect 0 0 2 0;
#X connect 1 0 0 0;
#X connect 3 0 0 0;
#X connect 3 1 0 1;
#X connect 4 0 3 0;
#X restore 93 204 pd bufRange;
#X msg 85 672 \$1 \, \$2 \$3;
#X obj 215 711 - 20;
#X msg 215 735 1 20 \, 0 20 \$1;
#X obj 295 589 f;
#X obj 363 360 f;
#X obj 13 306 t b b b b;
#X obj 13 280 r \$0-trig;
#X obj 295 567 r \$0-trig;
#X obj 365 567 r \$0-dur;
#X obj 317 274 r \$0-dur;
#X obj 610 175 s \$0-setBuf;
#X obj 1 719 r \$0-setBuf;
#X obj 21 83 sel 0;
#X obj 21 168 s \$0-stop;
#X obj 53 115 t b;
#X obj 321 710 r \$0-stop;
#X msg 321 735 0 20;
#X obj 11 632 r \$0-stop;
#X obj 11 653 del 20;
#X msg 11 677 stop;
#X msg 490 105 symbol \$1-array;
#X msg 610 105 set \$1-array;
#X obj 1 743 print;
#X obj 934 29 inlet;
#X obj 954 251 loadbang;
#X obj 934 275 f 0;
#X text 933 4 Window-Mode 0/1;
#X text 501 256 Default window mode is 0: 20ms fade. Otherwise \, 1
gives a sine envelope, f 23;
#X obj 215 688 spigot;
#X obj 254 667 == 0;
#X obj 399 690 spigot;
#X obj 399 735 vline~;
#X obj 399 766 cos~;
#X msg 399 713 0.75 \, 1.25 \$1;
#X obj 438 667 == 1;
#X obj 934 300 s \$0-windowSel;
#X obj 313 800 +~;
#X obj 427 567 r \$0-windowSel;
#X text 183 4 End (0-1);
#N canvas 515 252 216 211 bufRange 0;
#X obj 95 143 *;
#X obj 30 17 inlet;
#X obj 94 176 outlet;
#X obj 95 42 t b f;
#X obj 95 18 r \$0-bufSize;
#X connect 0 0 2 0;
#X connect 1 0 0 0;
#X connect 3 0 0 0;
#X connect 3 1 0 1;
#X connect 4 0 3 0;
#X restore 184 204 pd bufRange;
#N canvas 328 -570 580 444 getDur 1;
#X obj 40 112 -;
#X obj 46 80 t b f;
#X obj 147 123 samplerate~;
#X obj 177 297 / 1;
#X obj 147 74 r pd-dsp-started;
#X obj 177 320 * 1000;
#X obj 40 135 abs;
#X obj 13 26 inlet;
#X obj 63 26 inlet;
#X obj 177 350 outlet;
#X obj 269 173 /;
#X obj 269 73 r \$0-bufSR;
#X obj 269 98 t b f;
#X floatatom 43 194 8 0 0 0 - - -, f 8;
#X floatatom 291 141 5 0 0 0 - - -, f 5;
#X obj 269 226 *;
#X obj 269 198 t b f;
#X obj 269 251 t b f;
#X floatatom 279 289 5 0 0 0 - - -, f 5;
#X floatatom 347 240 5 0 0 0 - - -, f 5;
#X connect 0 0 6 0;
#X connect 1 0 0 0;
#X connect 1 1 0 1;
#X connect 2 0 10 0;
#X connect 2 0 15 0;
#X connect 3 0 5 0;
#X connect 4 0 2 0;
#X connect 5 0 9 0;
#X connect 6 0 3 0;
#X connect 6 0 13 0;
#X connect 7 0 0 0;
#X connect 8 0 1 0;
#X connect 10 0 16 0;
#X connect 11 0 12 0;
#X connect 12 0 2 0;
#X connect 12 1 10 1;
#X connect 12 1 14 0;
#X connect 15 0 17 0;
#X connect 16 0 15 0;
#X connect 16 1 15 1;
#X connect 16 1 19 0;
#X connect 17 0 3 0;
#X connect 17 1 3 1;
#X connect 17 1 18 0;
#X restore 93 239 pd getDur;
#X obj 381 246 abs;
#X obj 381 274 t b f;
#X obj 381 300 / 1;
#X obj 93 61 f 0;
#X obj 184 60 f 1;
#X obj 709 766 r \$0-loopLen;
#X obj 391 360 s \$0-loopLen;
#X obj 757 29 inlet;
#X text 756 4 Buffer SR;
#X obj 757 60 s \$0-bufSR;
#X obj 291 62 f 1;
#X obj 375 33 loadbang;
#X floatatom 195 250 8 0 0 0 - - -, f 8;
#X floatatom 40 226 5 0 0 0 - - -, f 5;
#X floatatom 142 293 15 0 0 0 - - -, f 15;
#X floatatom 35 543 5 0 0 0 - - -, f 5;
#X floatatom 114 548 5 0 0 0 - - -, f 5;
#X connect 0 0 1 0;
#X connect 1 0 3 0;
#X connect 2 0 73 0;
#X connect 3 0 9 0;
#X connect 6 0 57 0;
#X connect 6 0 58 0;
#X connect 8 0 11 0;
#X connect 10 0 8 0;
#X connect 10 1 8 1;
#X connect 13 0 81 0;
#X connect 14 0 82 0;
#X connect 15 0 49 0;
#X connect 18 0 20 0;
#X connect 20 0 12 0;
#X connect 23 0 88 0;
#X connect 24 0 28 0;
#X connect 25 0 28 1;
#X connect 26 0 27 0;
#X connect 27 0 29 0;
#X connect 27 0 31 1;
#X connect 28 0 31 0;
#X connect 28 0 32 0;
#X connect 29 0 30 0;
#X connect 30 0 32 1;
#X connect 31 0 33 0;
#X connect 32 0 34 0;
#X connect 33 0 35 0;
#X connect 33 0 93 0;
#X connect 33 1 35 1;
#X connect 33 1 94 0;
#X connect 34 0 35 1;
#X connect 34 1 35 0;
#X connect 35 0 37 0;
#X connect 36 0 24 1;
#X connect 36 0 77 0;
#X connect 36 0 91 0;
#X connect 37 0 0 0;
#X connect 38 0 39 0;
#X connect 39 0 2 0;
#X connect 40 0 65 0;
#X connect 40 0 67 0;
#X connect 41 0 35 2;
#X connect 42 0 24 0;
#X connect 42 1 25 0;
#X connect 42 2 26 0;
#X connect 42 3 41 0;
#X connect 43 0 42 0;
#X connect 44 0 40 0;
#X connect 45 0 40 1;
#X connect 46 0 80 0;
#X connect 48 0 1 0;
#X connect 48 0 59 0;
#X connect 49 0 50 0;
#X connect 49 1 51 0;
#X connect 51 0 17 0;
#X connect 52 0 53 0;
#X connect 53 0 2 0;
#X connect 54 0 55 0;
#X connect 55 0 56 0;
#X connect 56 0 0 0;
#X connect 57 0 10 0;
#X connect 58 0 47 0;
#X connect 60 0 62 0;
#X connect 61 0 62 0;
#X connect 62 0 72 0;
#X connect 65 0 38 0;
#X connect 66 0 65 1;
#X connect 67 0 70 0;
#X connect 68 0 69 0;
#X connect 69 0 73 1;
#X connect 70 0 68 0;
#X connect 71 0 67 1;
#X connect 73 0 3 1;
#X connect 74 0 71 0;
#X connect 74 0 66 0;
#X connect 76 0 25 1;
#X connect 76 0 77 1;
#X connect 76 0 90 0;
#X connect 77 0 19 0;
#X connect 77 0 92 0;
#X connect 78 0 79 0;
#X connect 79 0 80 0;
#X connect 79 1 80 1;
#X connect 80 0 41 1;
#X connect 80 0 84 0;
#X connect 81 0 36 0;
#X connect 82 0 76 0;
#X connect 83 0 20 1;
#X connect 85 0 87 0;
#X connect 88 0 78 0;
#X connect 88 0 26 1;
#X connect 89 0 88 0;
#X connect 89 0 82 0;
#X connect 89 0 81 0;
