#N canvas 495 25 450 300 12;
#X obj 13 90 random 10000;
#X obj 13 119 / 10000;
#X obj 13 26 inlet;
#X obj 13 240 outlet;
#X obj 166 26 inlet;
#X obj 224 26 inlet;
#X obj 289 26 inlet;
#X text 166 4 min;
#X text 223 3 max;
#X text 289 5 exponent;
#X obj 13 177 jw.map 0 1 0 1;
#X obj 13 148 pow 1;
#X obj 166 95 f \$1;
#X obj 224 95 f \$2;
#X obj 289 95 f \$3;
#X obj 386 51 loadbang;
#X connect 0 0 1 0;
#X connect 1 0 11 0;
#X connect 2 0 0 0;
#X connect 4 0 12 0;
#X connect 5 0 13 0;
#X connect 6 0 14 0;
#X connect 10 0 3 0;
#X connect 11 0 10 0;
#X connect 12 0 10 3;
#X connect 13 0 10 4;
#X connect 14 0 11 1;
#X connect 15 0 14 0;
#X connect 15 0 13 0;
#X connect 15 0 12 0;
