#N canvas 293 95 994 777 12;
#X msg 357 128 start;
#X msg 402 128 stop;
#X obj 259 111 adc~ 1;
#X obj 709 96 jw.**;
#X obj 753 96 jw.loadSR;
#X msg 709 120 resize \$1;
#X msg 259 87 set \$1;
#X obj 709 144 array define \$0-array;
#X obj 263 219 tabwrite~ \$0-array;
#X obj 183 357 outlet;
#X text 155 383 size In Samples;
#X obj 479 361 outlet;
#X text 477 389 comment;
#X obj 372 87 sel 1 0;
#X obj 443 129 timer;
#X obj 53 28 tgl 15 0 \$0-rec empty empty 17 7 0 10 #fcfcfc #000000
#000000 0 1;
#X obj 443 177 jw.**;
#X obj 487 177 jw.loadSR;
#X obj 443 153 * 0.001;
#X obj 443 207 s \$0-lenInSamples;
#X obj 183 284 r \$0-lenInSamples;
#X obj 526 294 jw.loadSR;
#X msg 434 317 bufID \$1;
#X obj 434 293 f \$0;
#X msg 526 318 bufSR \$1;
#X obj 453 255 loadbang;
#X obj 498 128 s $-0-refresh;
#X obj 520 255 r $-0-refresh;
#X obj 372 63 r \$0-rec;
#X obj 53 50 bng 15 250 50 0 \$0-getInfo \$0-sdkjdfsjhkfds empty 25
5 0 10 #fcfcfc #000000 #000000;
#X text 7 48 info;
#X floatatom 96 47 5 0 0 0 - \$0-bufID - 0;
#X text 7 26 rec SF;
#X obj 357 294 s \$0-bufID;
#X obj 94 284 r \$0-getInfo;
#X obj 183 328 f;
#X obj 619 255 r \$0-getInfo;
#X obj 334 365 outlet;
#X text 321 386 nothing;
#X obj 147 2 inlet;
#X obj 256 3 inlet;
#X text 74 48 ID;
#X floatatom 96 27 5 0 0 0 - - - 0;
#X text 74 27 ms;
#X obj 357 161 bng 15 250 50 0 empty empty empty 17 7 0 10 #fcfcfc
#000000 #000000;
#X obj 378 168 bng 15 250 50 0 empty empty empty 17 7 0 10 #fcfcfc
#000000 #000000;
#X obj 710 73 jw.loadnum \$1;
#X connect 0 0 8 0;
#X connect 0 0 44 0;
#X connect 1 0 8 0;
#X connect 1 0 45 0;
#X connect 2 0 8 0;
#X connect 3 0 5 0;
#X connect 4 0 3 1;
#X connect 5 0 7 0;
#X connect 6 0 2 0;
#X connect 13 0 0 0;
#X connect 13 0 14 0;
#X connect 13 0 4 0;
#X connect 13 0 46 0;
#X connect 13 1 1 0;
#X connect 13 1 14 1;
#X connect 13 1 26 0;
#X connect 13 1 17 0;
#X connect 14 0 18 0;
#X connect 14 0 42 0;
#X connect 16 0 19 0;
#X connect 17 0 16 1;
#X connect 18 0 16 0;
#X connect 20 0 35 0;
#X connect 21 0 24 0;
#X connect 22 0 11 0;
#X connect 23 0 22 0;
#X connect 23 0 33 0;
#X connect 24 0 11 0;
#X connect 25 0 23 0;
#X connect 25 0 21 0;
#X connect 27 0 21 0;
#X connect 27 0 23 0;
#X connect 28 0 13 0;
#X connect 34 0 35 0;
#X connect 35 0 9 0;
#X connect 36 0 21 0;
#X connect 36 0 23 0;
#X connect 39 0 15 0;
#X connect 40 0 6 0;
#X connect 46 0 3 0;
#X coords 0 -1 1 1 131 69 1 7 4;
