#N canvas 590 292 705 444 12;
#X obj 88 17 inlet;
#X obj 88 65 osc~;
#X msg 154 63 0 \, 1000 \$1;
#X obj 154 87 vline~;
#X obj 154 111 tabread4~ \$2;
#X obj 88 155 *~;
#X obj 88 229 outlet~;
#X obj 88 192 *~;
#X obj 88 41 unpack f f f;
#X connect 0 0 8 0;
#X connect 1 0 5 0;
#X connect 2 0 3 0;
#X connect 3 0 4 0;
#X connect 4 0 5 1;
#X connect 5 0 7 0;
#X connect 7 0 6 0;
#X connect 8 0 1 0;
#X connect 8 1 2 0;
#X connect 8 2 7 1;
