#N canvas 590 292 705 444 12;
#X obj 88 17 inlet;
#X obj 88 155 osc~;
#X msg 156 153 0 \, 1000 \$1;
#X obj 156 177 vline~;
#X obj 156 201 tabread4~ \$2;
#X obj 88 245 *~;
#X obj 88 319 outlet~;
#X obj 88 282 *~;
#X obj 88 41 unpack f f f, f 20;
#X obj 156 127 pipe 1;
#X obj 259 202 switch~;
#X obj 156 68 t f b f;
#X obj 300 147 del;
#X msg 259 177 1;
#X msg 300 177 0;
#X obj 318 123 + 1;
#X connect 0 0 8 0;
#X connect 1 0 5 0;
#X connect 2 0 3 0;
#X connect 3 0 4 0;
#X connect 4 0 5 1;
#X connect 5 0 7 0;
#X connect 7 0 6 0;
#X connect 8 0 1 0;
#X connect 8 1 11 0;
#X connect 8 2 7 1;
#X connect 9 0 2 0;
#X connect 11 0 9 0;
#X connect 11 1 12 0;
#X connect 11 1 13 0;
#X connect 11 2 15 0;
#X connect 12 0 14 0;
#X connect 13 0 10 0;
#X connect 14 0 10 0;
#X connect 15 0 12 1;
