#N canvas 0 25 1440 847 12;
#X obj 245 142 hsl 128 15 0 1 0 1 \$0-sStart \$0-setsStart start 48
8 0 10 #fcfcfc #000000 #000000 0 1;
#X obj 245 161 hsl 128 15 0 1 0 1 \$0-sEnd \$0-setsEnd end 53 8 0 10
#fcfcfc #000000 #000000 12700 1;
#X floatatom 162 121 5 0 0 0 - \$0-setSpeed \$0-speed 0;
#X text 198 122 speed;
#X obj 106 121 tgl 18 0 \$0-loop \$0-setLoop empty 17 7 0 10 #fcfcfc
#000000 #000000 0 1;
#X obj 358 180 vradio 16 1 1 2 \$0-win \$0-setWin empty 0 -8 0 10 #fcfcfc
#000000 #000000 0;
#X obj 1144 123 route bufSR;
#X obj 1044 185 s \$0-setBuf;
#X msg 1044 159 set \$1-array;
#X obj 1044 123 route bufID;
#X obj 380 776 vline~;
#X obj 398 314 r \$0-sStart;
#X obj 494 314 r \$0-sEnd;
#X obj 570 314 r \$0-bufSamps;
#X obj 398 358 jw.**;
#X obj 494 358 jw.**;
#X obj 604 394 jw.--;
#X obj 604 418 jw.div;
#X obj 1144 159 s \$0-bufSR;
#X obj 646 394 r \$0-bufSR;
#X obj 604 442 abs;
#X obj 604 498 * 1000;
#X obj 380 656 f;
#X obj 476 656 f;
#X obj 572 656 f;
#X obj 380 718 pack f f f;
#X obj 144 406 sel 1;
#X obj 408 832 r \$0-setBuf;
#X obj 380 586 t b b b, f 28;
#X obj 604 466 sel 0;
#X obj 88 532 spigot;
#X obj 126 508 tgl 15 0 empty empty empty 17 7 0 10 #fcfcfc #000000
#000000 0 1;
#X obj 666 742 unpack f f f;
#X obj 748 838 vline~;
#X msg 88 556 1;
#X obj 380 1074 *~;
#X obj 748 934 /~;
#X obj 748 770 t f f, f 15;
#X msg 380 752 \$1 \, \$2 \$3 0;
#X obj 850 817 * 0.5;
#X obj 748 864 -~;
#X obj 748 888 abs~;
#X obj 748 956 clip~ 0 1;
#X obj 748 910 expr~ $f2 - $v1;
#X text 332 179 lin;
#X text 240 179 win size;
#X floatatom 242 198 5 1 1e+06 0 - \$0-setWinSize \$0-winSize 10;
#X obj 785 933 r \$0-winSize;
#X obj 976 866 /~;
#N canvas 0 22 450 300 (subpatch) 0;
#X array \$0-han1000 1000 float 0;
#X coords 0 1 999 0 300 100 1 0 0;
#X restore 856 542 graph;
#X obj 1146 388 osc~;
#X obj 1146 412 *~ -0.5;
#X obj 1146 436 +~ 0.5;
#X obj 974 408 samplerate~;
#X obj 856 454 swap;
#X obj 856 478 /;
#X obj 854 350 t f b f;
#X msg 974 358 resize \$1;
#X msg 1170 358 0;
#X obj 1098 354 t f b;
#X obj 854 316 jw.loadnum 1000;
#X obj 856 502 s \$0-window-hz;
#X obj 1098 326 r \$0-window-hz;
#X obj 1128 480 tabwrite~ \$0-han1000;
#X obj 976 890 *~ 1000;
#X obj 974 382 s \$0-han1000;
#X text 332 195 han;
#X obj 380 856 tabread4~;
#X obj 644 530 r \$0-speed;
#X obj 604 550 jw.div;
#X obj 976 914 tabread4~ \$0-han1000;
#X obj 882 961 r \$0-win;
#X obj 748 1020 *~;
#X obj 766 996 == 0;
#X obj 995 1000 == 1;
#X obj 977 1024 *~;
#X text 261 122 one-shot;
#X obj 243 121 bng 18 250 50 0 \$0-oneShot \$0-setOneShot empty 17
7 0 10 #fcfcfc #000000 #000000;
#X text 124 122 loop;
#X obj 126 374 r \$0-loop;
#X obj 380 542 spigot;
#X obj 88 292 r \$0-done;
#X obj 88 316 t b b;
#X msg 120 336 1;
#X msg 274 557 0;
#X obj 419 509 jw.loadnum 1;
#X obj 380 484 r \$0-oneShot;
#X obj 514 850 del, f 5;
#X obj 514 788 t b f;
#X obj 514 874 s \$0-done;
#X obj 160 332 bng 15 250 50 0 empty empty empty 17 7 0 10 #fcfcfc
#000000 #000000;
#X obj 748 792 pipe 1;
#X msg 748 816 0 0 \, \$1 \$1 0;
#X msg 558 852 0;
#X obj 546 816 + 0;
#X obj 88 406 del 1;
#X obj 296 702 r \$0-loop;
#X msg 296 750 stop;
#X obj 296 726 sel 0;
#X obj 622 778 r \$0-loop;
#X msg 622 826 stop;
#X obj 622 802 sel 0;
#X obj 380 1121 outlet~;
#X obj 134 19 inlet;
#X obj 516 77 s \$0-setLoop;
#X obj 536 101 s \$0-setOneShot;
#X obj 556 125 s \$0-setSpeed;
#X obj 576 149 s \$0-setsStart;
#X obj 596 173 s \$0-setsEnd;
#X obj 616 197 s \$0-setWin;
#X obj 636 221 s \$0-setWinSize;
#X obj 29 19 inlet;
#X obj 516 55 route loop oneShot speed start end win winSize;
#X obj 428 124 jw.loadnum 1;
#X obj 466 173 jw.loadnum 1;
#X obj 506 220 jw.loadnum 25;
#X obj 480 196 jw.loadnum 0;
#X obj 106 233 s \$0-bufSamps;
#X obj 230 231 s \$0-bufInfo;
#X obj 1044 69 r \$0-bufInfo;
#X obj 29 43 s \$0-controls;
#X obj 516 33 r \$0-controls;
#X obj 106 144 jw.recBuf \$1;
#X obj 207 21 inlet;
#X floatatom 65 247 5 0 0 0 - - - 0;
#X obj 240 273 route bufID bufSR;
#X floatatom 240 297 5 0 0 0 - - - 0;
#X floatatom 304 302 5 0 0 0 - - - 0;
#X connect 6 0 18 0;
#X connect 8 0 7 0;
#X connect 9 0 8 0;
#X connect 10 0 67 0;
#X connect 11 0 14 0;
#X connect 12 0 15 0;
#X connect 13 0 15 1;
#X connect 13 0 14 1;
#X connect 14 0 16 0;
#X connect 14 0 22 1;
#X connect 15 0 16 1;
#X connect 15 0 23 1;
#X connect 16 0 17 0;
#X connect 17 0 20 0;
#X connect 19 0 17 1;
#X connect 20 0 29 0;
#X connect 21 0 69 0;
#X connect 22 0 25 0;
#X connect 23 0 25 1;
#X connect 24 0 25 2;
#X connect 25 0 32 0;
#X connect 25 0 38 0;
#X connect 26 0 80 0;
#X connect 27 0 67 0;
#X connect 28 0 22 0;
#X connect 28 0 84 0;
#X connect 28 1 23 0;
#X connect 28 2 24 0;
#X connect 29 1 21 0;
#X connect 30 0 34 0;
#X connect 31 0 30 1;
#X connect 32 2 37 0;
#X connect 32 2 88 0;
#X connect 33 0 40 0;
#X connect 33 0 48 0;
#X connect 34 0 26 0;
#X connect 35 0 102 0;
#X connect 36 0 42 0;
#X connect 37 0 91 0;
#X connect 37 1 39 0;
#X connect 37 1 48 1;
#X connect 38 0 10 0;
#X connect 39 0 40 1;
#X connect 39 0 43 1;
#X connect 40 0 41 0;
#X connect 41 0 43 0;
#X connect 42 0 72 0;
#X connect 43 0 36 0;
#X connect 47 0 36 1;
#X connect 48 0 64 0;
#X connect 50 0 51 0;
#X connect 51 0 52 0;
#X connect 52 0 63 0;
#X connect 53 0 54 1;
#X connect 54 0 55 0;
#X connect 54 1 55 1;
#X connect 55 0 61 0;
#X connect 56 0 54 0;
#X connect 56 1 53 0;
#X connect 56 2 57 0;
#X connect 57 0 65 0;
#X connect 58 0 50 1;
#X connect 59 0 50 0;
#X connect 59 1 58 0;
#X connect 59 1 63 0;
#X connect 60 0 56 0;
#X connect 62 0 59 0;
#X connect 64 0 70 0;
#X connect 67 0 35 0;
#X connect 68 0 69 1;
#X connect 69 0 24 1;
#X connect 70 0 75 0;
#X connect 71 0 73 0;
#X connect 71 0 74 0;
#X connect 72 0 35 1;
#X connect 73 0 72 1;
#X connect 74 0 75 1;
#X connect 75 0 35 1;
#X connect 79 0 31 0;
#X connect 79 0 26 0;
#X connect 80 0 28 0;
#X connect 81 0 82 0;
#X connect 82 0 95 0;
#X connect 82 1 83 0;
#X connect 82 1 90 0;
#X connect 83 0 80 1;
#X connect 84 0 80 1;
#X connect 85 0 80 1;
#X connect 86 0 80 0;
#X connect 87 0 89 0;
#X connect 87 0 93 0;
#X connect 88 0 87 0;
#X connect 88 1 94 0;
#X connect 91 0 92 0;
#X connect 92 0 33 0;
#X connect 93 0 33 0;
#X connect 94 0 87 1;
#X connect 95 0 30 0;
#X connect 96 0 98 0;
#X connect 97 0 10 0;
#X connect 98 0 97 0;
#X connect 99 0 101 0;
#X connect 100 0 33 0;
#X connect 101 0 100 0;
#X connect 101 0 89 0;
#X connect 103 0 122 0;
#X connect 111 0 120 0;
#X connect 112 0 104 0;
#X connect 112 1 105 0;
#X connect 112 2 106 0;
#X connect 112 3 107 0;
#X connect 112 4 108 0;
#X connect 112 5 109 0;
#X connect 112 6 110 0;
#X connect 113 0 106 0;
#X connect 114 0 108 0;
#X connect 115 0 110 0;
#X connect 116 0 109 0;
#X connect 119 0 9 0;
#X connect 119 0 6 0;
#X connect 121 0 112 0;
#X connect 122 0 117 0;
#X connect 122 0 124 0;
#X connect 122 2 118 0;
#X connect 122 2 125 0;
#X connect 123 0 122 1;
#X connect 125 0 126 0;
#X connect 125 1 127 0;
#X coords 0 -1 1 1 282 120 1 100 100;
