#N canvas 785 255 448 390 12;
#X obj 250 98 loadbang;
#X obj 132 101 f \$1;
#X obj 185 150 f \$2;
#X obj 132 69 inlet;
#X obj 188 69 inlet;
#X obj 80 70 inlet;
#X obj 80 94 sig~;
#X obj 123 242 metro \$3;
#X obj 81 267 snapshot~;
#X obj 81 289 pack 0 \$3;
#X obj 81 313 line;
#X obj 81 337 outlet;
#X text 7 43 sig to be sloo'd;
#X text 130 43 att;
#X text 191 44 rel;
#X obj 370 178 f \$3;
#X obj 370 152 inlet;
#X text 362 129 refresh;
#X obj 123 221 jw.loadnum 1;
#X floatatom 98 167 5 0 0 0 - - - 0;
#X obj 81 198 slop~ 20000 0 0 0 0;
#X connect 0 0 1 0;
#X connect 0 0 2 0;
#X connect 0 0 15 0;
#X connect 1 0 20 2;
#X connect 2 0 20 4;
#X connect 3 0 1 0;
#X connect 4 0 2 0;
#X connect 5 0 6 0;
#X connect 6 0 20 0;
#X connect 7 0 8 0;
#X connect 8 0 9 0;
#X connect 9 0 10 0;
#X connect 10 0 11 0;
#X connect 15 0 7 1;
#X connect 15 0 9 1;
#X connect 16 0 15 0;
#X connect 18 0 7 0;
#X connect 20 0 8 0;
