#N canvas 495 25 532 465 12;
#X obj 108 56 inlet;
#X obj 108 223 outlet;
#X obj 252 56 inlet;
#X obj 305 56 loadbang;
#X obj 252 85 f \$1;
#X obj 108 132 pack;
#X obj 108 181 line;
#X obj 41 101 route stop;
#X obj 41 125 t b;
#X msg 41 149 stop;
#X connect 0 0 7 0;
#X connect 2 0 4 0;
#X connect 3 0 4 0;
#X connect 4 0 5 1;
#X connect 5 0 6 0;
#X connect 6 0 1 0;
#X connect 7 0 8 0;
#X connect 7 1 5 0;
#X connect 8 0 9 0;
#X connect 9 0 6 0;
