#N canvas 53 25 671 679 12;
#X obj 77 185 osc~;
#X obj 244 185 >= 0;
#X obj 244 209 change;
#X obj 77 389 *~;
#X obj 78 91 unpack 0 0 0;
#X obj 77 453 outlet~;
#X obj 78 65 inlet;
#X obj 77 423 *~ \$3;
#X obj 136 289 jw.smoo~ \$2;
#X obj 244 232 jw.smoo 15;
#X obj 135 185 jw.smoo 15;
#X obj 136 265 jw.**;
#X obj 77 142 jw.smoo~ \$2;
#X obj 414 315 bp~, f 17;
#X obj 513 259 jw.loadnum 10;
#X obj 414 144 inlet~;
#X obj 405 458 outlet~;
#X connect 0 0 3 0;
#X connect 1 0 2 0;
#X connect 2 0 9 0;
#X connect 3 0 7 0;
#X connect 4 0 12 0;
#X connect 4 0 13 1;
#X connect 4 1 10 0;
#X connect 4 2 1 0;
#X connect 6 0 4 0;
#X connect 7 0 5 0;
#X connect 8 0 3 1;
#X connect 9 0 11 1;
#X connect 10 0 11 0;
#X connect 11 0 8 0;
#X connect 12 0 0 0;
#X connect 13 0 16 0;
#X connect 14 0 13 2;
#X connect 15 0 13 0;
