#N canvas 333 64 829 729 12;
#X obj 3 4 cnv 15 822 60 empty empty simpleVerb~ 20 12 0 30 #e0e0e0
#404040 0;
#X text 24 37 A simple reverb abstraction using [rev1~] and a lowpass
filter., f 72;
#X obj 12 102 inlet~;
#X text 10 77 INCOMING DRY SIGNAL;
#X obj 137 269 *~;
#X obj 155 102 inlet;
#X obj 285 102 inlet;
#X text 283 76 LENGTH (0-100) \, where 100 is infinite reverb.;
#X msg 155 217 \$1 5;
#X msg 285 267 \$1 5;
#X obj 285 291 line;
#X obj 155 241 line~;
#X obj 137 342 rev1~;
#X obj 155 187 clip 0 1;
#X obj 285 237 clip 0 100;
#X obj 607 102 inlet;
#X msg 362 460 \$1 5;
#X obj 362 484 line;
#X obj 295 511 lop~ 20000;
#X text 606 76 LP FILTER CUTOFF;
#X text 231 343 <-- reverb object \, right click and choose "help"
to find out more about it., f 26;
#X text 382 513 <-- low pass filter;
#X obj 12 642 clip~ -1 1;
#X text 115 644 <-- clip incase of runaway feedback;
#X obj 729 97 inlet;
#X text 727 76 DRY/WET (0-1);
#X obj 12 613 xFade~, f 15;
#X obj 12 666 outlet~;
#X text 69 666 Combined Wet/Dry sig out~;
#X obj 729 185 s \$0-dryWet;
#X obj 114 590 r \$0-dryWet;
#X obj 155 136 f \$1;
#X obj 285 136 f \$2;
#X obj 607 136 f \$3;
#X obj 729 136 f \$4;
#X obj 347 102 loadbang;
#X text 153 76 INPUT GAIN (0-1);
#X obj 607 165 clip 10 24000;
#X connect 2 0 4 0;
#X connect 2 0 26 0;
#X connect 4 0 12 0;
#X connect 5 0 31 0;
#X connect 6 0 32 0;
#X connect 8 0 11 0;
#X connect 9 0 10 0;
#X connect 10 0 12 1;
#X connect 11 0 4 1;
#X connect 12 0 18 0;
#X connect 13 0 8 0;
#X connect 14 0 9 0;
#X connect 15 0 33 0;
#X connect 16 0 17 0;
#X connect 17 0 18 1;
#X connect 18 0 26 1;
#X connect 22 0 27 0;
#X connect 24 0 34 0;
#X connect 26 0 22 0;
#X connect 30 0 26 2;
#X connect 31 0 13 0;
#X connect 32 0 14 0;
#X connect 33 0 37 0;
#X connect 34 0 29 0;
#X connect 35 0 32 0;
#X connect 35 0 31 0;
#X connect 35 0 33 0;
#X connect 35 0 34 0;
#X connect 37 0 16 0;
