#N canvas 11 -939 806 381 12;
#X obj 608 183 inlet;
#X text 608 161 phase (bang);
#X obj 608 207 t b;
#X msg 608 231 0.75;
#X obj 635 206 loadbang;
#X obj 168 115 f \$1;
#X obj 168 94 loadbang;
#X obj 23 273 par~ 1 0.75 1;
#X obj 123 273 par~ 3 0.75 0.333;
#X obj 250 273 par~ 5 0.75 0.2;
#X obj 364 273 par~ 7 0.75 0.143;
#X obj 492 273 par~ 9 0.75 0.111;
#X obj 22 95 inlet~;
#X obj 168 136 sig~;
#X obj 23 326 outlet~;
#X obj 2 2 cnv 15 800 60 empty empty SQUARE 20 12 0 30 #e0e0e0 #404040
0;
#X text 21 69 FREQUENCY;
#X text 21 348 SQUARE;
#X connect 0 0 2 0;
#X connect 2 0 3 0;
#X connect 3 0 7 2;
#X connect 3 0 8 2;
#X connect 3 0 9 2;
#X connect 3 0 10 2;
#X connect 3 0 11 2;
#X connect 4 0 3 0;
#X connect 5 0 13 0;
#X connect 6 0 5 0;
#X connect 7 0 14 0;
#X connect 8 0 14 0;
#X connect 9 0 14 0;
#X connect 10 0 14 0;
#X connect 11 0 14 0;
#X connect 12 0 8 0;
#X connect 12 0 9 0;
#X connect 12 0 10 0;
#X connect 12 0 11 0;
#X connect 12 0 7 0;
#X connect 13 0 7 0;
#X connect 13 0 8 0;
#X connect 13 0 9 0;
#X connect 13 0 10 0;
#X connect 13 0 11 0;
