#N canvas 632 59 808 429 12;
#X obj 73 31 inlet;
#X obj 73 120 sig~;
#X obj 73 329 *~;
#X obj 73 353 outlet~;
#X obj 73 144 vd~ \$2;
#X obj 73 55 unpack 0 0;
#X msg 143 91 0 \, 1000 \$1;
#X obj 143 115 line~;
#X obj 143 139 tabread4~ \$3;
#X connect 0 0 5 0;
#X connect 1 0 4 0;
#X connect 2 0 3 0;
#X connect 4 0 2 0;
#X connect 5 0 1 0;
#X connect 5 1 6 0;
#X connect 6 0 7 0;
#X connect 7 0 8 0;
#X connect 8 0 2 1;
