#N canvas 495 25 450 300 12;
#X obj 57 108 metro \$1;
#X obj 57 80 loadnum 1;
#X obj 40 136 snapshot~;
#X obj 13 26 inlet~;
#X obj 41 236 outlet;
#X connect 0 0 2 0;
#X connect 1 0 0 0;
#X connect 2 0 4 0;
#X connect 3 0 2 0;
