#N canvas 632 59 808 429 12;
#X obj 73 31 inlet;
#X obj 73 120 sig~;
#X msg 223 122 0 \, 1000 \$1;
#X obj 223 144 line~;
#X obj 73 249 *~;
#X obj 73 273 outlet~;
#X obj 73 144 vd~ \$2;
#X obj 223 165 tabread~ \$3;
#X obj 73 55 unpack 0 0;
#X obj 249 240 jw.scope~;
#X connect 0 0 8 0;
#X connect 1 0 6 0;
#X connect 2 0 3 0;
#X connect 3 0 7 0;
#X connect 4 0 5 0;
#X connect 6 0 4 0;
#X connect 7 0 4 1;
#X connect 7 0 9 0;
#X connect 8 0 1 0;
#X connect 8 1 2 0;
