#N canvas 495 25 450 300 12;
#X obj 60 36 inlet;
#X obj 204 36 inlet;
#X obj 257 36 loadbang;
#X obj 204 65 f \$1;
#X obj 60 112 pack;
#X obj 58 203 outlet~;
#X obj 60 141 line~;
#X connect 0 0 4 0;
#X connect 1 0 3 0;
#X connect 2 0 3 0;
#X connect 3 0 4 1;
#X connect 4 0 6 0;
#X connect 6 0 5 0;
