#N canvas 121 25 839 557.031 12;
#X obj 278 82 tgl 41 0 \$0-t1 empty empty 17 7 0 10 #fcfcfc #000000
#000000 1 1;
#X obj 278 39 bng 41 250 50 0 empty \$0-b1 empty 17 7 0 10 #fcfcfc
#000000 #000000;
#X obj 321 82 tgl 41 0 \$0-t2 empty empty 17 7 0 10 #fcfcfc #000000
#000000 1 1;
#X obj 321 39 bng 41 250 50 0 empty \$0-b2 empty 17 7 0 10 #fcfcfc
#000000 #000000;
#X obj 364 82 tgl 41 0 \$0-t3 empty empty 17 7 0 10 #fcfcfc #000000
#000000 0 1;
#X obj 364 39 bng 41 250 50 0 empty \$0-b3 empty 17 7 0 10 #fcfcfc
#000000 #000000;
#X obj 407 82 tgl 41 0 \$0-t4 empty empty 17 7 0 10 #fcfcfc #000000
#000000 0 1;
#X obj 407 39 bng 41 250 50 0 empty \$0-b4 empty 17 7 0 10 #fcfcfc
#000000 #000000;
#X obj 450 82 tgl 41 0 \$0-t5 empty empty 17 7 0 10 #fcfcfc #000000
#000000 0 1;
#X obj 450 39 bng 41 250 50 0 empty \$0-b5 empty 17 7 0 10 #fcfcfc
#000000 #000000;
#X obj 493 82 tgl 41 0 \$0-t6 empty empty 17 7 0 10 #fcfcfc #000000
#000000 0 1;
#X obj 493 39 bng 41 250 50 0 empty \$0-b6 empty 17 7 0 10 #fcfcfc
#000000 #000000;
#X obj 536 82 tgl 41 0 \$0-t7 empty empty 17 7 0 10 #fcfcfc #000000
#000000 0 1;
#X obj 536 39 bng 41 250 50 0 empty \$0-b7 empty 17 7 0 10 #fcfcfc
#000000 #000000;
#X obj 579 82 tgl 41 0 \$0-t8 empty empty 17 7 0 10 #fcfcfc #000000
#000000 0 1;
#X obj 579 39 bng 41 250 50 0 empty \$0-b8 empty 17 7 0 10 #fcfcfc
#000000 #000000;
#X obj 16 184 s \$0-b1;
#X obj 98 184 s \$0-b2;
#X obj 177 184 s \$0-b3;
#X obj 255 184 s \$0-b4;
#X obj 337 184 s \$0-b5;
#X obj 416 184 s \$0-b6;
#X obj 495 184 s \$0-b7;
#X obj 573 184 s \$0-b8;
#X obj 28 238 r \$0-t1;
#X obj 10 271 f;
#X obj 10 351 sel 1;
#X obj 89 271 f;
#X obj 168 271 f;
#X obj 247 271 f;
#X obj 327 271 f;
#X obj 406 271 f;
#X obj 485 271 f;
#X obj 564 271 f;
#X obj 107 238 r \$0-t2;
#X obj 186 238 r \$0-t3;
#X obj 265 238 r \$0-t4;
#X obj 345 238 r \$0-t5;
#X obj 424 238 r \$0-t6;
#X obj 503 238 r \$0-t7;
#X obj 582 238 r \$0-t8;
#X obj 10 46 inlet;
#X obj 73 46 inlet;
#X obj 10 423 outlet;
#X text 11 13 count;
#X text 72 14 start no.;
#X text 62 423 Bangs on Selected Beats;
#X obj 73 77 f \$1;
#X obj 117 46 loadbang;
#X obj 10 120 -;
#X obj 10 152 sel 0 1 2 3 4 5 6 7, f 91;
#X obj 277 13 cnv 15 344 24 empty empty Sequencer 136 12 0 14 #e0e0e0
#404040 0;
#X obj 277 13 cnv 15 75 15 empty empty step\  3 4 0 8 #e0e0e0 #404040
0;
#X obj 277 126 cnv 15 344 15 empty empty sequenced\ bangs 3 8 0 8 #e0e0e0
#404040 0;
#X obj 546 13 cnv 15 75 15 empty empty offset 21 4 0 8 #e0e0e0 #404040
0;
#X obj 79 104 s \$0-offset;
#X obj 598 14 nbx 3 8 -1e+37 1e+37 0 0 \$0-dummyReceive \$0-offset
empty 0 -8 0 10 #e0e0e0 #000000 #000000 0 256 0;
#X connect 24 0 25 1;
#X connect 25 0 26 0;
#X connect 26 0 43 0;
#X connect 27 0 26 0;
#X connect 28 0 26 0;
#X connect 29 0 26 0;
#X connect 30 0 26 0;
#X connect 31 0 26 0;
#X connect 32 0 26 0;
#X connect 33 0 26 0;
#X connect 34 0 27 1;
#X connect 35 0 28 1;
#X connect 36 0 29 1;
#X connect 37 0 30 1;
#X connect 38 0 31 1;
#X connect 39 0 32 1;
#X connect 40 0 33 1;
#X connect 41 0 49 0;
#X connect 42 0 47 0;
#X connect 47 0 49 1;
#X connect 47 0 55 0;
#X connect 48 0 47 0;
#X connect 49 0 50 0;
#X connect 50 0 16 0;
#X connect 50 0 25 0;
#X connect 50 1 17 0;
#X connect 50 1 27 0;
#X connect 50 2 18 0;
#X connect 50 2 28 0;
#X connect 50 3 19 0;
#X connect 50 3 29 0;
#X connect 50 4 20 0;
#X connect 50 4 30 0;
#X connect 50 5 21 0;
#X connect 50 5 31 0;
#X connect 50 6 22 0;
#X connect 50 6 32 0;
#X connect 50 7 23 0;
#X connect 50 7 33 0;
#X coords 0 -1 1 1 348 133 2 275 10;
