#N canvas 663 106 682 446 12;
#X obj 14 42 tgl 41 0 \$0-start empty empty 17 7 0 10 #fcfcfc #000000
#000000 1 1;
#X text 60 42 BPM;
#X floatatom 85 41 5 0 0 0 - - #0-bpm, f 5;
#X floatatom 166 63 5 0 0 0 - - #0-beatDiv, f 5;
#X text 126 41 cycle;
#X floatatom 166 41 5 0 0 0 - - #0-cycle, f 5;
#X obj 216 334 outlet;
#X obj 18 141 r \$0-bpm;
#X obj 18 199 /;
#X msg 18 170 60000 \$1;
#X text 181 359 step count output;
#X obj 18 274 /;
#X text 60 63 Beat Division;
#X text 18 109 BPM to Ms;
#X text 65 264 use Division to get subdivisions of the beat, f 12
;
#X obj 18 336 s \$0-tempoInMs;
#X obj 216 143 r \$0-start;
#X obj 216 172 metro;
#X obj 293 143 r \$0-tempoInMs;
#X obj 270 173 sel 0;
#X msg 270 202 0;
#X obj 216 261 f 0;
#X obj 307 251 + 1;
#X obj 307 276 % 4;
#X obj 345 251 r \$0-cycle;
#X text 428 250 limit the count to the cycle length, f 13;
#X msg 307 68 120;
#X msg 345 68 1;
#X obj 58 203 r \$0-beatDiv;
#X obj 306 36 t b b b;
#X obj 306 9 loadbang;
#X text 214 108 Generate Count;
#X text 320 334 <- Our resulting count starts from 0!;
#X msg 383 68 8;
#X obj 14 12 cnv 15 190 27 empty empty Stepper 71 12 0 14 #e0e0e0 #404040
0;
#X obj 14 85 cnv 15 190 15 empty empty step\ counter 2 7 0 8 #e0e0e0
#404040 0;
#X obj 58 226 t b f;
#X connect 7 0 9 0;
#X connect 8 0 11 0;
#X connect 9 0 8 0;
#X connect 11 0 15 0;
#X connect 16 0 17 0;
#X connect 16 0 19 0;
#X connect 17 0 21 0;
#X connect 18 0 17 1;
#X connect 19 0 20 0;
#X connect 20 0 21 1;
#X connect 21 0 22 0;
#X connect 21 0 6 0;
#X connect 22 0 23 0;
#X connect 23 0 21 1;
#X connect 24 0 23 1;
#X connect 26 0 2 0;
#X connect 27 0 3 0;
#X connect 28 0 36 0;
#X connect 29 0 26 0;
#X connect 29 1 27 0;
#X connect 29 2 33 0;
#X connect 30 0 29 0;
#X connect 33 0 5 0;
#X connect 36 0 11 0;
#X connect 36 1 11 1;
#X coords 0 -1 1 1 194 92 2 12 10;
