#N canvas 495 25 450 300 12;
#X obj 57 108 metro \$1;
#X obj 40 136 snapshot~;
#X obj 13 26 inlet~;
#X obj 41 236 outlet;
#X obj 57 80 jw.loadnum 1;
#X connect 0 0 1 0;
#X connect 1 0 3 0;
#X connect 2 0 1 0;
#X connect 4 0 0 0;
