#N canvas 495 25 450 300 12;
#X obj 108 56 inlet;
#X obj 106 223 outlet;
#X obj 252 56 inlet;
#X obj 305 56 loadbang;
#X obj 252 85 f \$1;
#X obj 108 132 pack;
#X obj 108 161 line;
#X connect 0 0 5 0;
#X connect 2 0 4 0;
#X connect 3 0 4 0;
#X connect 4 0 5 1;
#X connect 5 0 6 0;
#X connect 6 0 1 0;
