#N canvas 495 25 855 602 12;
#X msg 877 365;
#X obj 45 157 inlet~;
#X obj 96 157 inlet~;
#X obj 45 243 outlet~;
#X obj 459 84 inlet;
#X text 38 35 Takes 2 args: Window Size \, No. Overlaps;
#X obj 446 41 jw.createHanning~ 1024 \$0;
#X obj 45 203 jw.fftSubtract~ \$0 \$1 \$2;
#X floatatom 510 167 5 0 0 0 - \$0-setComp1 \$0-comp1 0;
#X floatatom 552 167 5 0 0 0 - \$0-setComp2 \$0-comp2 0;
#X text 435 167 Compress;
#X obj 459 110 s \$0-setComp1;
#X obj 559 82 inlet;
#X obj 559 108 s \$0-setComp2;
#X obj 239 157 r \$0-comp2;
#X obj 155 157 r \$0-comp1;
#X connect 1 0 7 0;
#X connect 2 0 7 1;
#X connect 4 0 11 0;
#X connect 7 0 3 0;
#X connect 12 0 13 0;
#X connect 14 0 7 3;
#X connect 15 0 7 2;
#X coords 0 -1 1 1 161 40 1 432 148;
