#N canvas 495 25 532 465 12;
#X obj 108 56 inlet;
#X obj 252 56 inlet;
#X obj 305 56 loadbang;
#X obj 252 85 f \$1;
#X obj 206 239 pack;
#X obj 41 101 route stop;
#X obj 41 125 t b;
#X msg 41 149 stop;
#X obj 375 58 inlet;
#X obj 428 58 loadbang;
#X obj 375 87 f \$2;
#X obj 174 213 moses;
#X obj 174 145 t f b;
#X obj 206 186 f 0;
#X obj 174 305 pack;
#X obj 206 371 line~;
#X obj 206 413 outlet~;
#X connect 0 0 5 0;
#X connect 1 0 3 0;
#X connect 2 0 3 0;
#X connect 3 0 4 1;
#X connect 4 0 15 0;
#X connect 5 0 6 0;
#X connect 5 1 12 0;
#X connect 6 0 7 0;
#X connect 7 0 15 0;
#X connect 8 0 10 0;
#X connect 9 0 10 0;
#X connect 10 0 14 1;
#X connect 11 0 14 0;
#X connect 11 1 4 0;
#X connect 12 0 13 1;
#X connect 12 0 11 0;
#X connect 12 1 13 0;
#X connect 13 0 11 1;
#X connect 14 0 15 0;
#X connect 15 0 16 0;
