#N canvas 108 -974 1094 660 12;
#X obj 84 36 inlet~;
#N canvas 295 320 743 485 make 0;
#N canvas 0 22 450 300 (subpatch) 0;
#X array han-\$0 1000 float 0;
#X coords 0 1 999 0 300 100 1 0 0;
#X restore 260 278 graph;
#X obj 369 136 osc~;
#X obj 369 161 *~ -0.5;
#X obj 369 185 +~ 0.5;
#X obj 244 169 samplerate~;
#X obj 126 215 swap;
#X obj 126 239 /;
#X obj 125 112 t f b f;
#X msg 244 119 resize \$1;
#X msg 394 106 0;
#X obj 321 102 t f b;
#X obj 125 77 jw.loadnum 1000;
#X obj 126 263 s \$0-window-hz;
#X obj 321 74 r \$0-window-hz;
#X obj 352 228 tabwrite~ han-\$0;
#X obj 244 143 s han-\$0;
#X connect 1 0 2 0;
#X connect 2 0 3 0;
#X connect 3 0 14 0;
#X connect 4 0 5 1;
#X connect 5 0 6 0;
#X connect 5 1 6 1;
#X connect 6 0 12 0;
#X connect 7 0 5 0;
#X connect 7 1 4 0;
#X connect 7 2 8 0;
#X connect 8 0 15 0;
#X connect 9 0 1 1;
#X connect 10 0 1 0;
#X connect 10 1 9 0;
#X connect 10 1 14 0;
#X connect 11 0 7 0;
#X connect 13 0 10 0;
#X restore 334 549 pd make han-\$0;
#X obj 202 161 metro;
#X obj 202 138 jw.loadnum 1;
#X obj 368 178 jw.div;
#X obj 74 274 spigot;
#X msg 138 353 0;
#X obj 126 160 t b;
#X msg 202 185 1;
#X obj 127 230 f;
#X msg 166 229 0;
#X obj 138 328 t b;
#X obj 124 135 route 15;
#X obj 139 304 route 15;
#X msg 151 400 all \$1;
#X msg 229 400 all \$1;
#X obj 686 300 tgl 15 0 empty empty empty 17 7 0 10 #fcfcfc #000000
#000000 0 1;
#X obj 706 300 tgl 15 0 empty empty empty 17 7 0 10 #fcfcfc #000000
#000000 0 1;
#X obj 766 300 tgl 15 0 empty empty empty 17 7 0 10 #fcfcfc #000000
#000000 0 1;
#X obj 786 300 tgl 15 0 empty empty empty 17 7 0 10 #fcfcfc #000000
#000000 0 1;
#X obj 726 300 tgl 15 0 empty empty empty 17 7 0 10 #fcfcfc #000000
#000000 0 1;
#X obj 746 300 tgl 15 0 empty empty empty 17 7 0 10 #fcfcfc #000000
#000000 0 1;
#X obj 806 300 tgl 15 0 empty empty empty 17 7 0 10 #fcfcfc #000000
#000000 0 1;
#X obj 826 300 tgl 15 0 empty empty empty 17 7 0 10 #fcfcfc #000000
#000000 0 1;
#X obj 766 320 tgl 15 0 empty empty empty 17 7 0 10 #fcfcfc #000000
#000000 0 1;
#X obj 786 320 tgl 15 0 empty empty empty 17 7 0 10 #fcfcfc #000000
#000000 0 1;
#X obj 686 320 tgl 15 0 empty empty empty 17 7 0 10 #fcfcfc #000000
#000000 0 1;
#X obj 706 320 tgl 15 0 empty empty empty 17 7 0 10 #fcfcfc #000000
#000000 0 1;
#X obj 806 320 tgl 15 0 empty empty empty 17 7 0 10 #fcfcfc #000000
#000000 0 1;
#X obj 826 320 tgl 15 0 empty empty empty 17 7 0 10 #fcfcfc #000000
#000000 0 1;
#X obj 726 320 tgl 15 0 empty empty empty 17 7 0 10 #fcfcfc #000000
#000000 0 1;
#X obj 746 320 tgl 15 0 empty empty empty 17 7 0 10 #fcfcfc #000000
#000000 0 1;
#X msg 648 412 8 \$1;
#X msg 688 412 9 \$1;
#X msg 727 412 10 \$1;
#X msg 767 412 11 \$1;
#X msg 807 412 12 \$1;
#X msg 847 412 13 \$1;
#X msg 886 412 14 \$1;
#X msg 926 412 15 \$1;
#X msg 647 382 0 \$1;
#X msg 687 382 1 \$1;
#X msg 728 382 2 \$1;
#X msg 768 382 3 \$1;
#X msg 807 382 4 \$1;
#X msg 847 382 5 \$1;
#X msg 887 382 6 \$1;
#X msg 927 382 7 \$1;
#X obj 896 99 unpack 0 0 0 0 0 0 0 0 0 0 0 0 0 0 0 0;
#X obj 18 496 outlet~;
#X obj 150 378 r \$0-grain;
#X obj 368 135 r \$0-grain;
#X obj 230 378 * 0.01;
#X obj 230 350 r \$0-thresh;
#X obj 896 23 inlet;
#X obj 74 103 sigmund~ -npts \$1 -hop \$2 -npeak 16 tracks;
#X obj 958 48 loadbang;
#X msg 958 72 1 1 1 1 1 1 1 1 0 0 0 0 0 0 0 0;
#X floatatom 702 239 5 0 0 0 - \$0-setOverlaps \$0-overlaps 0;
#X floatatom 656 239 5 0 0 0 - \$0-setGrain \$0-grain 0;
#X text 654 220 grain;
#X obj 407 156 r \$0-overlaps;
#X floatatom 749 238 5 0 0 0 - \$0-setThresh \$0-thresh 0;
#X obj 159 37 inlet;
#X obj 159 61 s \$0-setGrain;
#X obj 264 36 inlet;
#X obj 264 60 s \$0-setOverlaps;
#X obj 384 35 inlet;
#X obj 384 59 s \$0-setThresh;
#X floatatom 725 277 5 0 0 0 - \$0-setWarpRef \$0-warpRef 0;
#X floatatom 656 277 5 0 0 0 - \$0-setWarp \$0-warp 0;
#X text 654 258 warp;
#X text 723 258 warpRef;
#X obj 284 378 r \$0-warp;
#X obj 358 378 r \$0-warpRef;
#X msg 284 400 all \$1;
#X msg 358 400 all \$1;
#X obj 488 34 inlet;
#X obj 578 34 inlet;
#X obj 488 58 s \$0-setWarp;
#X obj 578 58 s \$0-setWarpRef;
#X text 656 300 0-7;
#X text 656 320 8-15;
#X floatatom 798 277 5 0 0 0 - \$0-setTrans \$0-trans 0;
#X text 796 258 Trans;
#X msg 450 400 all \$1;
#X obj 450 378 r \$0-trans;
#X obj 690 34 inlet;
#X obj 690 58 s \$0-setTrans;
#X obj 18 465 clone jw.filtbankPoly~ 16 han-\$0;
#X obj 14 36 inlet~;
#X text 18 10 sound in;
#X text 88 10 filt sound;
#X obj 788 33 inlet;
#X obj 528 519 r \$0-Q;
#X msg 528 541 all \$1;
#X text 700 220 ovlp;
#X text 748 219 % thr;
#X floatatom 798 238 5 0 0 0 - \$0-setQ \$0-Q 0;
#X obj 788 57 s \$0-setQ;
#X text 797 219 Q;
#X floatatom 546 488 5 0 0 0 - - - 0;
#X connect 0 0 55 0;
#X connect 2 0 8 0;
#X connect 3 0 2 0;
#X connect 4 0 2 1;
#X connect 5 0 13 0;
#X connect 5 0 89 1;
#X connect 6 0 5 1;
#X connect 7 0 9 0;
#X connect 8 0 9 1;
#X connect 9 0 10 0;
#X connect 9 0 5 1;
#X connect 10 0 9 1;
#X connect 11 0 6 0;
#X connect 12 0 7 0;
#X connect 13 0 11 0;
#X connect 14 0 89 2;
#X connect 15 0 89 3;
#X connect 16 0 40 0;
#X connect 17 0 41 0;
#X connect 18 0 44 0;
#X connect 19 0 45 0;
#X connect 20 0 42 0;
#X connect 21 0 43 0;
#X connect 22 0 46 0;
#X connect 23 0 47 0;
#X connect 24 0 36 0;
#X connect 25 0 37 0;
#X connect 26 0 32 0;
#X connect 27 0 33 0;
#X connect 28 0 38 0;
#X connect 29 0 39 0;
#X connect 30 0 34 0;
#X connect 31 0 35 0;
#X connect 32 0 89 4;
#X connect 33 0 89 4;
#X connect 34 0 89 4;
#X connect 35 0 89 4;
#X connect 36 0 89 4;
#X connect 37 0 89 4;
#X connect 38 0 89 4;
#X connect 39 0 89 4;
#X connect 40 0 89 4;
#X connect 41 0 89 4;
#X connect 42 0 89 4;
#X connect 43 0 89 4;
#X connect 44 0 89 4;
#X connect 45 0 89 4;
#X connect 46 0 89 4;
#X connect 47 0 89 4;
#X connect 48 0 16 0;
#X connect 48 1 17 0;
#X connect 48 2 20 0;
#X connect 48 3 21 0;
#X connect 48 4 18 0;
#X connect 48 5 19 0;
#X connect 48 6 22 0;
#X connect 48 7 23 0;
#X connect 48 8 26 0;
#X connect 48 9 27 0;
#X connect 48 10 30 0;
#X connect 48 11 31 0;
#X connect 48 12 24 0;
#X connect 48 13 25 0;
#X connect 48 14 28 0;
#X connect 48 15 29 0;
#X connect 50 0 14 0;
#X connect 51 0 4 0;
#X connect 52 0 15 0;
#X connect 53 0 52 0;
#X connect 54 0 48 0;
#X connect 55 0 5 0;
#X connect 55 0 12 0;
#X connect 56 0 57 0;
#X connect 57 0 48 0;
#X connect 61 0 4 1;
#X connect 63 0 64 0;
#X connect 65 0 66 0;
#X connect 67 0 68 0;
#X connect 73 0 75 0;
#X connect 74 0 76 0;
#X connect 75 0 89 5;
#X connect 76 0 89 6;
#X connect 77 0 79 0;
#X connect 78 0 80 0;
#X connect 85 0 89 7;
#X connect 86 0 85 0;
#X connect 87 0 88 0;
#X connect 89 0 49 0;
#X connect 90 0 89 0;
#X connect 93 0 99 0;
#X connect 94 0 95 0;
#X connect 94 0 101 0;
#X connect 95 0 89 8;
#X coords 0 -1 1 1 200 140 1 650 200;
