#N canvas 237 25 807 586 12;
#X obj 3 5 cnv 15 800 60 empty empty TRIANGLE 20 12 0 30 #e0e0e0 #404040
0;
#X obj 93 196 loadbang;
#X obj 93 220 f \$1;
#X obj 472 156 inlet;
#X obj 472 180 t b;
#X obj 517 156 loadbang;
#X msg 472 216 0;
#X obj 483 397 par~ 9 0.0123 0;
#X text 27 93 a = 1 / (n^2);
#X text 27 73 odd harmonics;
#X obj 43 154 inlet~;
#X obj 93 244 sig~;
#X obj 133 397 par~ 3 0 0.1111;
#X obj 43 397 par~ 1 0 1;
#X obj 253 397 par~ 5 0 0.04;
#X obj 363 397 par~ 7 0 0.02044;
#X obj 43 548 outlet~;
#X obj 43 519 *~ 0.85;
#X text 40 129 FREQ;
#X text 103 549 SIGNAL OUT~;
#X text 472 128 RESET;
#X connect 1 0 2 0;
#X connect 2 0 11 0;
#X connect 3 0 4 0;
#X connect 4 0 6 0;
#X connect 5 0 6 0;
#X connect 6 0 7 2;
#X connect 6 0 12 2;
#X connect 6 0 13 2;
#X connect 6 0 14 2;
#X connect 6 0 15 2;
#X connect 7 0 17 0;
#X connect 10 0 7 0;
#X connect 10 0 12 0;
#X connect 10 0 13 0;
#X connect 10 0 14 0;
#X connect 10 0 15 0;
#X connect 11 0 7 0;
#X connect 11 0 12 0;
#X connect 11 0 13 0;
#X connect 11 0 14 0;
#X connect 11 0 15 0;
#X connect 12 0 17 0;
#X connect 13 0 17 0;
#X connect 14 0 17 0;
#X connect 15 0 17 0;
#X connect 17 0 16 0;
