#N canvas 353 378 699 494 12;
#X obj 127 163 timer;
#X obj 127 77 f 0;
#X obj 177 71 + 1;
#X obj 177 95 % 2;
#X obj 127 127 sel 0 1;
#X obj 183 163 timer;
#X obj 183 127 sel 1 0;
#X obj 129 43 inlet;
#X obj 134 218 outlet;
#X connect 0 0 8 0;
#X connect 1 0 2 0;
#X connect 1 0 4 0;
#X connect 1 0 6 0;
#X connect 2 0 3 0;
#X connect 3 0 1 1;
#X connect 4 0 0 0;
#X connect 4 1 0 1;
#X connect 5 0 8 0;
#X connect 6 0 5 0;
#X connect 6 1 5 1;
#X connect 7 0 1 0;
