#N canvas 379 207 756 508 12;
#X obj 231 194 f 0;
#X obj 271 194 + 1;
#X obj 231 151 until;
#X obj 231 102 f 10;
#X obj 231 129 t f b, f 11;
#X msg 305 151 0;
#X obj 212 52 inlet;
#X obj 353 50 inlet;
#X obj 353 74 f \$1;
#X obj 231 243 t b f;
#X obj 368 246 + 1;
#X obj 368 266 sel 10;
#X obj 368 297 outlet;
#X obj 211 297 outlet;
#X obj 260 297 outlet;
#X connect 0 0 1 0;
#X connect 0 0 9 0;
#X connect 0 0 10 0;
#X connect 1 0 0 1;
#X connect 2 0 0 0;
#X connect 3 0 4 0;
#X connect 4 0 2 0;
#X connect 4 1 5 0;
#X connect 5 0 0 1;
#X connect 6 0 3 0;
#X connect 7 0 8 0;
#X connect 8 0 3 1;
#X connect 8 0 11 1;
#X connect 9 0 13 0;
#X connect 9 1 14 0;
#X connect 10 0 11 0;
#X connect 11 0 12 0;
