#N canvas 331 71 912 666 12;
#X obj 358 123 until;
#X obj 358 66 loadbang;
#X obj 358 100 f \$1;
#X obj 358 158 f 0;
#X obj 391 148 + 1;
#X obj 391 172 % \$1;
#X obj 162 220 random;
#X obj 45 165 r \$0-tryAgain;
#X msg 358 197 append \$1;
#X msg 194 269 get \$1;
#X obj 358 221 s \$0-populateList;
#X obj 33 318 r \$0-populateList;
#X msg 162 293 delete \$1;
#X obj 162 243 t f f;
#X obj 143 164 t f b f;
#X obj 69 219 sel 1;
#X obj 190 117 % \$1;
#X obj 190 95 + 1;
#X obj 143 139 expr \$1 - $f1;
#X obj 69 243 s \$0-reset;
#X obj 519 66 r \$0-reset;
#X obj 143 101 f \$1;
#X obj 162 344 list store;
#X obj 143 66 inlet;
#X obj 162 372 outlet;
#X obj 314 66 inlet;
#X text 56 17 Bang for random number \; behaviour is like Max's urn
;
#X text 309 16 number resets number pool and range \; bang resets pool
;
#X obj 519 289 outlet;
#X connect 0 0 3 0;
#X connect 1 0 2 0;
#X connect 2 0 0 0;
#X connect 3 0 4 0;
#X connect 3 0 8 0;
#X connect 4 0 5 0;
#X connect 5 0 3 1;
#X connect 6 0 13 0;
#X connect 7 0 6 0;
#X connect 8 0 10 0;
#X connect 9 0 22 0;
#X connect 11 0 22 0;
#X connect 12 0 22 0;
#X connect 13 0 12 0;
#X connect 13 1 9 0;
#X connect 14 0 15 0;
#X connect 14 1 6 0;
#X connect 14 2 6 1;
#X connect 15 0 19 0;
#X connect 16 0 21 1;
#X connect 17 0 16 0;
#X connect 18 0 14 0;
#X connect 20 0 2 0;
#X connect 20 0 28 0;
#X connect 21 0 17 0;
#X connect 21 0 18 0;
#X connect 22 0 24 0;
#X connect 23 0 21 0;
#X connect 25 0 2 0;
