#N canvas 269 216 644 431 12;
#X obj 161 111 abs~;
#X obj 161 213 snapshot~;
#X obj 161 256 rmstodb;
#X obj 59 24 inlet~;
#X obj 161 288 - 100;
#X obj 59 287 - 100;
#X obj 41 361 outlet;
#X obj 143 361 outlet;
#X obj 239 89 expr 1000 / $f1;
#X obj 161 146 slop~ 0 0 0 0 1e+09;
#X obj 239 18 inlet;
#X obj 59 171 t f b;
#X obj 239 57 f \$2;
#X obj 282 18 loadbang;
#X obj 59 112 env~ \$1;
#X obj 291 282 jw.loadnum 1;
#X obj 291 306 metro \$3;
#X obj 41 334 f;
#X obj 143 333 f;
#X connect 0 0 9 0;
#X connect 1 0 2 0;
#X connect 2 0 4 0;
#X connect 3 0 0 0;
#X connect 3 0 14 0;
#X connect 4 0 18 1;
#X connect 5 0 17 1;
#X connect 8 0 9 3;
#X connect 9 0 1 0;
#X connect 10 0 12 0;
#X connect 11 0 5 0;
#X connect 11 1 1 0;
#X connect 12 0 8 0;
#X connect 13 0 12 0;
#X connect 14 0 11 0;
#X connect 15 0 16 0;
#X connect 16 0 18 0;
#X connect 16 0 17 0;
#X connect 17 0 6 0;
#X connect 18 0 7 0;
