#N canvas 32 28 1157 402.062 12;
#X obj 404 124 cnv 10 155 11 empty empty sig1 0 2 0 8 #e0e0e0 #404040
0;
#X obj 405 169 cnv 10 154 11 empty empty xConv\ out~ 0 2 0 8 #e0e0e0
#404040 0;
#X floatatom 479 149 5 0 100 0 - #0-setComp1 #0-comp1, f 5;
#X obj 404 133 cnv 15 155 15 empty empty X-Convolve 38 5 0 14 #e0e0e0
#404040 0;
#X msg 846 338;
#X obj 14 130 inlet~;
#X obj 65 130 inlet~;
#X obj 14 216 outlet~;
#X obj 525 72 inlet;
#X obj 525 98 s \$0-setComp;
#X obj 472 124 cnv 10 46 11 empty empty sig2 0 2 0 8 #e0e0e0 #404040
0;
#X obj 535 124 cnv 10 22 11 empty empty comp 0 2 0 8 #e0e0e0 #404040
0;
#X obj 14 176 jw.fftXconv~ \$0 \$1 \$2;
#X text 7 8 Takes 2 args: Window Size \, No. Overlaps;
#X obj 200 92 jw.createHanning~ 1024 \$0;
#X obj 617 71 inlet;
#X obj 617 97 s \$0-setComp;
#X text 404 148 Compress;
#X floatatom 522 149 5 0 100 0 - #0-setComp2 #0-comp2, f 5;
#X obj 116 131 r \$0-comp1;
#X obj 195 133 r \$0-comp2;
#X connect 5 0 12 0;
#X connect 6 0 12 1;
#X connect 8 0 9 0;
#X connect 12 0 7 0;
#X connect 15 0 16 0;
#X connect 19 0 12 2;
#X connect 20 0 12 3;
#X coords 0 -1 1 1 159 60 2 402 122;
